<svg width="353" height="253" viewBox="0 0 353 253" fill="none" xmlns="http://www.w3.org/2000/svg">
<path d="M288.321 158.668H60.9679C59.4159 158.666 57.928 158.035 56.8306 156.913C55.7332 155.792 55.1159 154.271 55.1141 152.685V9.38995C55.1154 8.22778 55.5676 7.11357 56.3716 6.29176C57.1756 5.46996 58.2656 5.00768 59.4026 5.00635H289.812C290.968 5.00769 292.077 5.47795 292.895 6.31396C293.713 7.14997 294.173 8.28346 294.174 9.46574V152.685C294.173 154.271 293.555 155.792 292.458 156.913C291.361 158.035 289.873 158.666 288.321 158.668Z" fill="#F2F2F2"/>
<path d="M280.027 150.194H68.1402C65.0341 150.194 62.5072 147.776 62.5072 144.803V20.02C62.5072 17.8152 64.3797 16.0214 66.6814 16.0214H281.417C283.756 16.0214 285.66 17.8448 285.66 20.0859V144.803C285.66 147.776 283.133 150.194 280.027 150.194Z" fill="white"/>
<path d="M294.093 9.04769H55.032V6.00146C55.0342 4.40983 55.6541 2.88411 56.7555 1.75901C57.8569 0.633912 59.3499 0.00131495 60.9071 0H288.218C289.775 0.00130728 291.268 0.633902 292.369 1.759C293.471 2.88411 294.091 4.40983 294.093 6.00146V9.04769Z" fill="#CCCCCC"/>
<path d="M65.7091 6.08621C66.5483 6.08621 67.2287 5.39077 67.2287 4.53291C67.2287 3.67505 66.5483 2.97961 65.7091 2.97961C64.8698 2.97961 64.1894 3.67505 64.1894 4.53291C64.1894 5.39077 64.8698 6.08621 65.7091 6.08621Z" fill="white"/>
<path d="M71.4772 6.08621C72.3165 6.08621 72.9969 5.39077 72.9969 4.53291C72.9969 3.67505 72.3165 2.97961 71.4772 2.97961C70.638 2.97961 69.9576 3.67505 69.9576 4.53291C69.9576 5.39077 70.638 6.08621 71.4772 6.08621Z" fill="white"/>
<path d="M77.2454 6.08621C78.0847 6.08621 78.7651 5.39077 78.7651 4.53291C78.7651 3.67505 78.0847 2.97961 77.2454 2.97961C76.4062 2.97961 75.7258 3.67505 75.7258 4.53291C75.7258 5.39077 76.4062 6.08621 77.2454 6.08621Z" fill="white"/>
<path d="M256.705 129.266H92.5017C90.8557 129.264 89.2776 128.595 88.1137 127.406C86.9497 126.216 86.295 124.603 86.2932 122.92V41.9981C86.2945 40.7398 86.7842 39.5334 87.6546 38.6436C88.5251 37.7538 89.7053 37.2533 90.9364 37.2518H258.196C259.447 37.2533 260.646 37.7618 261.53 38.6658C262.414 39.5698 262.912 40.7954 262.913 42.0739V122.92C262.911 124.603 262.257 126.216 261.093 127.406C259.929 128.595 258.351 129.264 256.705 129.266ZM90.9364 37.9771C89.8935 37.9783 88.8936 38.4023 88.1561 39.1562C87.4187 39.91 87.0038 40.932 87.0027 41.9981V122.92C87.0043 124.411 87.5842 125.839 88.6151 126.893C89.646 127.947 91.0438 128.539 92.5017 128.541H256.705C258.163 128.539 259.56 127.947 260.591 126.893C261.622 125.839 262.202 124.411 262.204 122.92V42.0739C262.203 40.9877 261.78 39.9464 261.029 39.1784C260.277 38.4103 259.258 37.9783 258.196 37.9771H90.9364Z" fill="#CCCCCC"/>
<path d="M98.1781 122.92H251.028C252.534 122.92 253.978 122.309 255.042 121.221C256.107 120.133 256.705 118.657 256.705 117.118V49.4704C256.705 47.9316 256.107 46.4558 255.042 45.3677C253.978 44.2796 252.534 43.6683 251.028 43.6683H98.1781C96.6726 43.6683 95.2288 44.2796 94.1643 45.3677C93.0998 46.4558 92.5017 47.9316 92.5017 49.4704V117.118C92.5017 118.657 93.0998 120.133 94.1643 121.221C95.2288 122.309 96.6726 122.92 98.1781 122.92Z" fill="#F2F2F2"/>
<path d="M115.533 63.3497C117.297 63.3497 118.726 61.8885 118.726 60.0861C118.726 58.2836 117.297 56.8224 115.533 56.8224C113.77 56.8224 112.34 58.2836 112.34 60.0861C112.34 61.8885 113.77 63.3497 115.533 63.3497Z" fill="#CCCCCC"/>
<path d="M115.533 75.6791C117.297 75.6791 118.726 74.2179 118.726 72.4155C118.726 70.613 117.297 69.1518 115.533 69.1518C113.77 69.1518 112.34 70.613 112.34 72.4155C112.34 74.2179 113.77 75.6791 115.533 75.6791Z" fill="#CCCCCC"/>
<path d="M115.533 88.0085C117.297 88.0085 118.726 86.5473 118.726 84.7449C118.726 82.9424 117.297 81.4812 115.533 81.4812C113.77 81.4812 112.34 82.9424 112.34 84.7449C112.34 86.5473 113.77 88.0085 115.533 88.0085Z" fill="#CCCCCC"/>
<path d="M115.533 100.338C117.297 100.338 118.726 98.8767 118.726 97.0743C118.726 95.2718 117.297 93.8106 115.533 93.8106C113.77 93.8106 112.34 95.2718 112.34 97.0743C112.34 98.8767 113.77 100.338 115.533 100.338Z" fill="#CCCCCC"/>
<path d="M236.511 60.4487H131.498C131.404 60.4487 131.314 60.4105 131.247 60.3424C131.181 60.2744 131.143 60.1822 131.143 60.086C131.143 59.9898 131.181 59.8976 131.247 59.8296C131.314 59.7616 131.404 59.7234 131.498 59.7234H236.511C236.605 59.7234 236.696 59.7616 236.762 59.8296C236.829 59.8976 236.866 59.9898 236.866 60.086C236.866 60.1822 236.829 60.2744 236.762 60.3424C236.696 60.4105 236.605 60.4487 236.511 60.4487Z" fill="#CCCCCC"/>
<path d="M236.511 72.7781H131.498C131.404 72.7781 131.314 72.7399 131.247 72.6718C131.181 72.6038 131.143 72.5116 131.143 72.4154C131.143 72.3192 131.181 72.227 131.247 72.159C131.314 72.091 131.404 72.0528 131.498 72.0528H236.511C236.605 72.0528 236.696 72.091 236.762 72.159C236.829 72.227 236.866 72.3192 236.866 72.4154C236.866 72.5116 236.829 72.6038 236.762 72.6718C236.696 72.7399 236.605 72.7781 236.511 72.7781Z" fill="#CCCCCC"/>
<path d="M236.511 85.1075H131.498C131.404 85.1075 131.314 85.0693 131.247 85.0013C131.181 84.9333 131.143 84.841 131.143 84.7448C131.143 84.6487 131.181 84.5564 131.247 84.4884C131.314 84.4204 131.404 84.3822 131.498 84.3822H236.511C236.605 84.3822 236.696 84.4204 236.762 84.4884C236.829 84.5564 236.866 84.6487 236.866 84.7448C236.866 84.841 236.829 84.9333 236.762 85.0013C236.696 85.0693 236.605 85.1075 236.511 85.1075Z" fill="#CCCCCC"/>
<path d="M236.511 97.4369H131.498C131.404 97.4369 131.314 97.3987 131.247 97.3307C131.181 97.2627 131.143 97.1705 131.143 97.0743C131.143 96.9781 131.181 96.8859 131.247 96.8179C131.314 96.7499 131.404 96.7117 131.498 96.7117H236.511C236.605 96.7117 236.696 96.7499 236.762 96.8179C236.829 96.8859 236.866 96.9781 236.866 97.0743C236.866 97.1705 236.829 97.2627 236.762 97.3307C236.696 97.3987 236.605 97.4369 236.511 97.4369Z" fill="#CCCCCC"/>
<path d="M151.366 109.766H141.077C140.607 109.766 140.156 109.575 139.823 109.235C139.491 108.895 139.304 108.434 139.303 107.953V98.1621C139.304 97.6814 139.491 97.2206 139.823 96.8807C140.156 96.5408 140.607 96.3496 141.077 96.349H151.366C151.836 96.3496 152.287 96.5408 152.619 96.8807C152.952 97.2206 153.139 97.6814 153.139 98.1621V107.953C153.139 108.434 152.952 108.895 152.619 109.235C152.287 109.575 151.836 109.766 151.366 109.766Z" fill="#9E00FF"/>
<path d="M174.426 109.766H164.137C163.667 109.766 163.216 109.575 162.884 109.235C162.551 108.895 162.364 108.434 162.364 107.953V85.8327C162.364 85.352 162.551 84.8912 162.884 84.5513C163.216 84.2114 163.667 84.0201 164.137 84.0196H174.426C174.896 84.0201 175.347 84.2114 175.68 84.5513C176.012 84.8912 176.199 85.352 176.2 85.8327V107.953C176.199 108.434 176.012 108.895 175.68 109.235C175.347 109.575 174.896 109.766 174.426 109.766Z" fill="#9E00FF"/>
<path d="M197.841 109.766H187.552C187.082 109.766 186.631 109.575 186.299 109.235C185.966 108.895 185.779 108.434 185.779 107.953V73.5033C185.779 73.0226 185.966 72.5618 186.299 72.2219C186.631 71.8819 187.082 71.6907 187.552 71.6902H197.841C198.311 71.6907 198.762 71.8819 199.095 72.2219C199.427 72.5618 199.614 73.0226 199.615 73.5033V107.953C199.614 108.434 199.427 108.895 199.095 109.235C198.762 109.575 198.311 109.766 197.841 109.766Z" fill="#9E00FF"/>
<path d="M221.966 109.766H211.677C211.207 109.766 210.756 109.575 210.423 109.235C210.091 108.895 209.904 108.434 209.903 107.953V61.5365C209.904 61.0558 210.091 60.595 210.423 60.2551C210.756 59.9151 211.207 59.7239 211.677 59.7234H221.966C222.436 59.7239 222.887 59.9151 223.219 60.2551C223.552 60.595 223.739 61.0558 223.739 61.5365V107.953C223.739 108.434 223.552 108.895 223.219 109.235C222.887 109.575 222.436 109.766 221.966 109.766Z" fill="#9E00FF"/>
<path d="M236.511 109.766H131.498C131.404 109.766 131.314 109.728 131.247 109.66C131.181 109.592 131.143 109.5 131.143 109.404C131.143 109.308 131.181 109.215 131.247 109.147C131.314 109.079 131.404 109.041 131.498 109.041H236.511C236.605 109.041 236.696 109.079 236.762 109.147C236.829 109.215 236.866 109.308 236.866 109.404C236.866 109.5 236.829 109.592 236.762 109.66C236.696 109.728 236.605 109.766 236.511 109.766Z" fill="#3F3D56"/>
<path d="M282.649 177.414C282.936 176.969 283.316 176.594 283.76 176.316C284.205 176.037 284.704 175.861 285.222 175.801C285.74 175.741 286.265 175.797 286.76 175.967C287.254 176.136 287.706 176.414 288.084 176.782L299.35 170.839L298.649 177.535L288.058 182.152C287.413 182.76 286.571 183.104 285.693 183.12C284.815 183.137 283.962 182.823 283.295 182.239C282.628 181.655 282.194 180.841 282.075 179.952C281.956 179.063 282.16 178.16 282.649 177.414Z" fill="#FFB8B8"/>
<path d="M292.342 179.911C292.087 179.706 291.898 179.427 291.802 179.109L290.906 176.15C290.809 175.83 290.812 175.487 290.912 175.168C291.013 174.848 291.207 174.569 291.469 174.366L300.6 167.316L310.489 148.564C310.903 148.018 311.418 147.562 312.005 147.22C312.592 146.878 313.239 146.658 313.909 146.572C314.579 146.486 315.26 146.535 315.911 146.718C316.562 146.9 317.172 147.212 317.706 147.636C318.239 148.059 318.686 148.586 319.02 149.185C319.354 149.785 319.57 150.447 319.654 151.132C319.738 151.817 319.69 152.512 319.511 153.178C319.333 153.843 319.028 154.467 318.613 155.012L312.987 167.149C311.28 170.833 308.322 173.758 304.663 175.38L293.962 180.124C293.756 180.215 293.534 180.261 293.31 180.258C293.086 180.256 292.864 180.205 292.66 180.11C292.547 180.057 292.44 179.99 292.342 179.911Z" fill="#3F3D56"/>
<path d="M318.862 140.737C323.674 140.737 327.576 136.75 327.576 131.831C327.576 126.912 323.674 122.924 318.862 122.924C314.05 122.924 310.148 126.912 310.148 131.831C310.148 136.75 314.05 140.737 318.862 140.737Z" fill="#FFB8B8"/>
<path d="M315.327 248.669L310.978 248.668L308.909 231.52L315.329 231.521L315.327 248.669Z" fill="#FFB8B8"/>
<path d="M307.871 247.398H316.259V252.796H302.59C302.59 252.087 302.726 251.385 302.992 250.73C303.257 250.076 303.646 249.48 304.137 248.979C304.627 248.478 305.209 248.08 305.85 247.809C306.491 247.538 307.178 247.398 307.871 247.398Z" fill="#2F2E41"/>
<path d="M329.518 248.669L325.169 248.669L323.1 231.521L329.52 231.521L329.518 248.669Z" fill="#FFB8B8"/>
<path d="M322.062 247.399H330.45V252.797H316.781C316.781 252.088 316.917 251.386 317.183 250.731C317.448 250.076 317.837 249.481 318.327 248.98C318.818 248.479 319.4 248.081 320.041 247.81C320.682 247.538 321.368 247.399 322.062 247.399Z" fill="#2F2E41"/>
<path d="M329.836 244.318L324.739 244.318C324.388 244.317 324.047 244.199 323.769 243.981C323.49 243.763 323.29 243.457 323.198 243.111L315.861 215.296C315.85 215.253 315.823 215.216 315.786 215.191C315.749 215.167 315.705 215.158 315.661 215.165C315.618 215.172 315.579 215.195 315.551 215.23C315.524 215.265 315.51 215.31 315.513 215.354L316.995 241.733C317.008 241.966 316.972 242.2 316.889 242.417C316.806 242.635 316.679 242.832 316.515 242.995C316.352 243.158 316.155 243.284 315.94 243.362C315.725 243.441 315.496 243.472 315.268 243.453L309.539 242.964C309.172 242.932 308.827 242.772 308.563 242.51C308.298 242.248 308.13 241.901 308.086 241.527L302.867 186.137L304.887 187.376L323.806 184.092L331.419 242.471C331.449 242.701 331.43 242.935 331.365 243.158C331.299 243.381 331.187 243.586 331.037 243.761C330.887 243.936 330.703 244.076 330.496 244.172C330.288 244.268 330.064 244.318 329.836 244.318H329.836Z" fill="#2F2E41"/>
<path d="M309.195 191.983C307.108 191.966 305.063 191.378 303.273 190.28C302.997 190.113 302.778 189.865 302.642 189.568C302.507 189.271 302.463 188.939 302.515 188.616C303.181 184.45 306.66 163.084 309.826 151.435C311.116 146.691 313.967 144.136 318.301 143.841C324.64 143.416 330.274 148.485 330.861 155.155C331.896 166.922 327.692 183.639 325.836 190.281C325.764 190.538 325.632 190.772 325.451 190.964C325.269 191.156 325.045 191.3 324.796 191.382C324.548 191.465 324.284 191.484 324.027 191.438C323.77 191.392 323.528 191.282 323.322 191.117L319.539 188.11C319.307 187.928 319.019 187.835 318.726 187.848C318.433 187.86 318.154 187.977 317.937 188.178C314.749 191.085 311.721 191.983 309.195 191.983Z" fill="#3F3D56"/>
<path opacity="0.2" d="M321.704 160.913L324.897 174.693L320.284 186.297L323.478 175.056L321.704 160.913Z" fill="black"/>
<path d="M323.834 139.155C324.609 139.17 325.379 139.027 326.1 138.736C326.418 138.611 326.747 138.508 327.063 138.383C329.86 137.279 331.702 134.236 331.768 131.172C331.834 128.109 330.282 125.136 327.978 123.176C325.673 121.217 322.688 120.211 319.699 119.978C316.48 119.727 312.854 120.561 311.055 123.302C310.576 124.032 310.241 124.917 310.525 125.797C310.61 126.063 310.761 126.302 310.965 126.489C311.768 127.219 312.569 126.67 313.388 126.622C314.514 126.555 315.525 127.486 315.889 128.577C316.252 129.669 316.092 130.87 315.799 131.983C315.575 132.653 315.434 133.348 315.379 134.053C315.355 134.407 315.42 134.761 315.568 135.082C315.716 135.403 315.941 135.68 316.223 135.886C316.926 136.321 317.85 136.07 318.554 135.636C319.258 135.202 319.866 134.598 320.626 134.279C321.387 133.96 322.408 134.031 322.851 134.739C322.991 134.997 323.087 135.277 323.132 135.569C323.529 137.416 323.437 137.308 323.834 139.155Z" fill="#2F2E41"/>
<path d="M310.328 236.229L255.765 216.806C254.829 216.471 254.061 215.771 253.629 214.858C253.198 213.945 253.138 212.895 253.463 211.937L267.642 170.322C267.882 169.621 268.384 169.046 269.038 168.723C269.692 168.4 270.445 168.355 271.131 168.598L327.539 188.678C328.236 188.927 328.809 189.449 329.131 190.129C329.452 190.809 329.497 191.592 329.255 192.306L315.091 233.875C314.764 234.832 314.079 235.617 313.186 236.059C312.293 236.5 311.265 236.561 310.328 236.229Z" fill="#E6E6E6"/>
<path d="M260.422 214.414L308.133 231.398C309.041 231.722 310.038 231.663 310.905 231.235C311.771 230.807 312.435 230.045 312.752 229.116L324.201 195.512C324.517 194.584 324.46 193.565 324.041 192.679C323.622 191.794 322.877 191.115 321.968 190.791L274.257 173.807C273.348 173.484 272.351 173.543 271.485 173.971C270.619 174.399 269.954 175.161 269.638 176.09L258.189 209.693C258.032 210.153 257.966 210.64 257.993 211.126C258.02 211.612 258.141 212.088 258.349 212.526C258.556 212.965 258.846 213.357 259.201 213.681C259.557 214.005 259.972 214.254 260.422 214.414Z" fill="white"/>
<path d="M272.402 190.805L270.04 189.964C269.911 189.918 269.806 189.822 269.747 189.697C269.688 189.572 269.68 189.429 269.725 189.298L270.547 186.882C270.592 186.751 270.686 186.644 270.808 186.584C270.93 186.523 271.071 186.515 271.199 186.56L273.562 187.401C273.69 187.447 273.795 187.543 273.854 187.668C273.913 187.793 273.921 187.936 273.877 188.068L273.054 190.483C273.009 190.614 272.916 190.721 272.793 190.781C272.671 190.842 272.531 190.85 272.402 190.805Z" fill="#9E00FF"/>
<path d="M270.27 197.062L267.908 196.221C267.779 196.175 267.674 196.08 267.615 195.955C267.556 195.83 267.548 195.686 267.593 195.555L268.415 193.14C268.46 193.009 268.554 192.902 268.676 192.841C268.798 192.781 268.939 192.772 269.067 192.818L271.43 193.659C271.558 193.705 271.663 193.801 271.722 193.926C271.781 194.05 271.789 194.194 271.745 194.325L270.922 196.74C270.877 196.871 270.784 196.979 270.661 197.039C270.539 197.099 270.399 197.108 270.27 197.062Z" fill="#3F3D56"/>
<path d="M268.138 203.32L265.775 202.479C265.647 202.433 265.542 202.337 265.483 202.212C265.424 202.087 265.416 201.944 265.46 201.813L266.283 199.398C266.328 199.267 266.422 199.159 266.544 199.099C266.666 199.038 266.807 199.03 266.935 199.076L269.298 199.917C269.426 199.962 269.531 200.058 269.59 200.183C269.649 200.308 269.657 200.452 269.613 200.583L268.79 202.998C268.745 203.129 268.652 203.236 268.529 203.297C268.407 203.357 268.267 203.365 268.138 203.32Z" fill="#CCCCCC"/>
<path d="M288.28 195.103L276.895 191.05C276.832 191.027 276.773 190.992 276.723 190.947C276.672 190.901 276.631 190.846 276.602 190.784C276.572 190.722 276.555 190.655 276.551 190.586C276.547 190.517 276.557 190.448 276.579 190.383C276.601 190.318 276.636 190.259 276.68 190.207C276.725 190.156 276.78 190.114 276.84 190.084C276.901 190.054 276.967 190.037 277.034 190.033C277.101 190.029 277.168 190.039 277.232 190.062L288.617 194.115C288.68 194.137 288.739 194.172 288.789 194.218C288.84 194.263 288.881 194.319 288.91 194.381C288.94 194.443 288.957 194.51 288.961 194.579C288.965 194.647 288.955 194.716 288.933 194.781C288.911 194.846 288.876 194.906 288.832 194.957C288.787 195.009 288.733 195.05 288.672 195.08C288.611 195.11 288.545 195.128 288.478 195.131C288.411 195.135 288.344 195.125 288.28 195.103Z" fill="#CCCCCC"/>
<path d="M286.148 201.36L274.763 197.308C274.635 197.262 274.53 197.166 274.471 197.041C274.412 196.916 274.404 196.773 274.448 196.641C274.493 196.51 274.587 196.403 274.709 196.343C274.831 196.282 274.972 196.274 275.1 196.32L286.485 200.372C286.548 200.395 286.607 200.43 286.657 200.475C286.708 200.521 286.749 200.577 286.778 200.638C286.807 200.7 286.824 200.768 286.828 200.836C286.832 200.905 286.823 200.974 286.801 201.039C286.779 201.104 286.744 201.163 286.699 201.215C286.654 201.266 286.6 201.308 286.54 201.338C286.479 201.368 286.413 201.385 286.346 201.389C286.279 201.393 286.212 201.383 286.148 201.36Z" fill="#CCCCCC"/>
<path d="M284.016 207.618L272.631 203.565C272.503 203.52 272.398 203.424 272.339 203.299C272.28 203.174 272.272 203.03 272.316 202.899C272.361 202.768 272.455 202.661 272.577 202.6C272.699 202.54 272.84 202.532 272.968 202.577L284.353 206.63C284.481 206.675 284.586 206.771 284.645 206.896C284.704 207.021 284.712 207.165 284.668 207.296C284.623 207.427 284.529 207.534 284.407 207.595C284.285 207.655 284.144 207.663 284.016 207.618Z" fill="#CCCCCC"/>
<path d="M314.313 211.008C314.396 210.805 314.474 210.598 314.546 210.387C315.482 207.641 315.312 204.627 314.074 202.009C312.835 199.39 310.63 197.382 307.943 196.426L304.201 207.409L314.313 211.008Z" fill="#9E00FF"/>
<path d="M303.113 208.077L306.855 197.094C304.877 196.39 302.741 196.293 300.711 196.815C298.68 197.336 296.843 198.455 295.426 200.031C294.009 201.607 293.075 203.573 292.738 205.685C292.401 207.798 292.677 209.965 293.531 211.92C294.384 213.874 295.779 215.531 297.543 216.684C299.306 217.838 301.362 218.44 303.456 218.414C305.55 218.388 307.591 217.736 309.327 216.539C311.062 215.342 312.418 213.651 313.225 211.676L303.113 208.077Z" fill="#3F3D56"/>
<path d="M316.51 192.322C316.467 191.79 316.54 191.256 316.721 190.756C316.903 190.257 317.189 189.804 317.561 189.429C317.932 189.055 318.379 188.768 318.871 188.59C319.362 188.411 319.886 188.345 320.405 188.396L325.682 176.613L329.173 182.324L323.627 192.637C323.486 193.523 323.031 194.325 322.35 194.892C321.669 195.458 320.808 195.75 319.931 195.711C319.054 195.672 318.221 195.305 317.59 194.681C316.96 194.056 316.575 193.217 316.51 192.322Z" fill="#FFB8B8"/>
<path d="M325.645 188.172C325.32 188.172 325.003 188.071 324.735 187.882L322.244 186.119C321.975 185.928 321.769 185.656 321.656 185.342C321.542 185.027 321.526 184.684 321.609 184.36L324.538 173.053L320.998 152.059C320.994 151.368 321.123 150.683 321.378 150.044C321.633 149.404 322.009 148.822 322.484 148.331C322.96 147.839 323.525 147.449 324.148 147.181C324.771 146.914 325.44 146.774 326.116 146.771C326.792 146.767 327.462 146.9 328.087 147.162C328.713 147.423 329.282 147.808 329.762 148.295C330.242 148.781 330.623 149.359 330.885 149.997C331.146 150.634 331.281 151.317 331.284 152.008L334.185 165.108C335.066 169.083 334.504 173.251 332.604 176.835L327.048 187.318C326.941 187.519 326.794 187.695 326.616 187.835C326.438 187.975 326.233 188.074 326.015 188.128C325.894 188.157 325.77 188.172 325.645 188.172Z" fill="#3F3D56"/>
<path d="M352.645 253H285.238C285.144 253 285.054 252.962 284.987 252.894C284.921 252.826 284.883 252.734 284.883 252.637C284.883 252.541 284.921 252.449 284.987 252.381C285.054 252.313 285.144 252.275 285.238 252.275H352.645C352.739 252.275 352.83 252.313 352.896 252.381C352.963 252.449 353 252.541 353 252.637C353 252.734 352.963 252.826 352.896 252.894C352.83 252.962 352.739 253 352.645 253Z" fill="#CCCCCC"/>
<path d="M174.031 248.488L178.381 248.488L180.45 231.34H174.03L174.031 248.488Z" fill="#A0616A"/>
<path d="M172.922 247.037L181.487 247.036H181.488C182.205 247.036 182.914 247.181 183.577 247.461C184.239 247.741 184.841 248.152 185.348 248.671C185.855 249.189 186.257 249.804 186.531 250.481C186.805 251.158 186.946 251.883 186.946 252.616V252.797L172.922 252.798L172.922 247.037Z" fill="#2F2E41"/>
<path d="M156.647 248.488L160.997 248.488L163.066 231.34H156.646L156.647 248.488Z" fill="#A0616A"/>
<path d="M155.538 247.037L164.103 247.036H164.104C164.821 247.036 165.53 247.181 166.193 247.461C166.855 247.741 167.457 248.152 167.964 248.671C168.471 249.189 168.873 249.804 169.147 250.481C169.421 251.158 169.563 251.883 169.562 252.616V252.797L155.538 252.798L155.538 247.037Z" fill="#2F2E41"/>
<path d="M174.899 129.77C179.712 129.77 183.613 125.782 183.613 120.863C183.613 115.945 179.712 111.957 174.899 111.957C170.087 111.957 166.186 115.945 166.186 120.863C166.186 125.782 170.087 129.77 174.899 129.77Z" fill="#A0616A"/>
<path d="M180.759 244.787H172.688C172.476 244.787 172.267 244.744 172.072 244.661C171.877 244.578 171.7 244.456 171.552 244.302C171.403 244.148 171.286 243.966 171.207 243.766C171.128 243.566 171.089 243.351 171.091 243.135L171.56 203.96C171.562 203.821 171.511 203.686 171.419 203.584C171.327 203.482 171.2 203.42 171.064 203.411C170.928 203.401 170.794 203.446 170.689 203.534C170.584 203.623 170.516 203.749 170.5 203.888L165.802 243.353C165.755 243.748 165.568 244.112 165.276 244.377C164.984 244.641 164.608 244.787 164.218 244.787H156.069C155.849 244.787 155.631 244.741 155.429 244.651C155.227 244.56 155.046 244.429 154.897 244.263C154.747 244.098 154.633 243.903 154.561 243.691C154.488 243.478 154.46 243.253 154.477 243.028L159.858 172.651L160.004 172.634L185.771 169.79L182.354 243.233C182.335 243.652 182.158 244.047 181.861 244.337C181.564 244.626 181.169 244.788 180.759 244.787Z" fill="#2F2E41"/>
<path d="M160.172 176.971C159.758 176.97 159.36 176.805 159.064 176.51C158.767 176.215 158.594 175.813 158.581 175.391C158.44 170.941 158.199 155.543 161.001 144.239C161.766 141.151 163.482 138.396 165.897 136.382C168.312 134.368 171.296 133.202 174.409 133.056C177.473 132.885 180.512 133.704 183.095 135.398C185.678 137.092 187.673 139.574 188.798 142.492C193.508 154.714 197.958 169.779 192.41 172.142C185.139 175.238 165.971 176.619 160.27 176.968C160.237 176.97 160.204 176.971 160.172 176.971Z" fill="#3F3D56"/>
<path d="M193.475 111.862C193.612 112.005 193.76 112.138 193.917 112.258L193.002 130.218L189.197 132.209L191.387 138.47L198.457 135.615C199.028 135.384 199.511 134.97 199.833 134.435C200.154 133.9 200.297 133.273 200.24 132.648L198.388 112.276C198.994 111.814 199.448 111.174 199.69 110.441C199.931 109.709 199.949 108.918 199.741 108.175C199.532 107.432 199.107 106.772 198.523 106.282C197.938 105.791 197.221 105.495 196.467 105.431C195.714 105.368 194.959 105.54 194.303 105.926C193.648 106.311 193.123 106.892 192.798 107.59C192.473 108.288 192.364 109.071 192.485 109.834C192.606 110.597 192.951 111.304 193.475 111.862Z" fill="#A0616A"/>
<path d="M193.074 130.886L195.751 138.661C195.827 138.882 195.856 139.117 195.835 139.351C195.814 139.584 195.744 139.81 195.63 140.014C195.516 140.217 195.36 140.393 195.173 140.53C194.987 140.666 194.774 140.76 194.548 140.804L186.656 142.366C185.547 142.758 184.331 142.685 183.274 142.161C182.218 141.638 181.408 140.708 181.021 139.575C180.635 138.442 180.704 137.199 181.213 136.117C181.722 135.036 182.63 134.206 183.737 133.808L190.824 129.985C191.026 129.875 191.25 129.812 191.479 129.799C191.708 129.785 191.937 129.823 192.151 129.909C192.365 129.994 192.558 130.126 192.717 130.294C192.876 130.463 192.998 130.665 193.074 130.886V130.886Z" fill="#3F3D56"/>
<path d="M155.732 111.862C155.595 112.005 155.447 112.138 155.29 112.258L156.204 130.218L160.009 132.209L157.82 138.47L150.749 135.615C150.178 135.384 149.695 134.97 149.374 134.435C149.052 133.9 148.909 133.273 148.966 132.648L150.818 112.276C150.212 111.814 149.758 111.174 149.517 110.441C149.275 109.709 149.257 108.918 149.466 108.175C149.674 107.432 150.099 106.772 150.684 106.282C151.269 105.791 151.986 105.495 152.739 105.431C153.493 105.368 154.248 105.54 154.903 105.926C155.559 106.311 156.084 106.892 156.409 107.59C156.733 108.288 156.843 109.071 156.722 109.834C156.601 110.597 156.255 111.304 155.732 111.862H155.732Z" fill="#A0616A"/>
<path d="M157.056 129.908C157.269 129.823 157.498 129.785 157.727 129.798C157.956 129.812 158.18 129.875 158.383 129.984L165.469 133.808C166.576 134.206 167.484 135.036 167.993 136.117C168.503 137.198 168.572 138.442 168.185 139.575C167.799 140.708 166.988 141.638 165.932 142.161C164.876 142.685 163.66 142.758 162.55 142.366L154.658 140.804C154.433 140.76 154.22 140.666 154.033 140.53C153.846 140.393 153.691 140.217 153.577 140.014C153.462 139.81 153.393 139.584 153.372 139.351C153.351 139.117 153.379 138.882 153.456 138.661L156.132 130.886C156.208 130.665 156.33 130.463 156.489 130.294C156.649 130.126 156.842 129.994 157.056 129.908Z" fill="#3F3D56"/>
<path d="M178.284 122.382C178.238 121.246 178.517 120.12 179.086 119.144C179.656 118.167 180.491 117.381 181.491 116.881C184.14 115.484 185.804 112.503 185.074 109.78C184.141 106.296 179.501 104.036 175.742 105.235C174.725 105.604 173.743 106.07 172.811 106.627L170.355 107.973C169.306 108.51 168.294 109.12 167.328 109.8C165.879 110.891 164.744 112.359 164.041 114.051C163.338 115.743 163.092 117.598 163.329 119.42C163.813 122.963 166.082 126.211 169.189 128.436C170.377 129.343 171.75 129.967 173.205 130.26C174.694 130.511 176.352 130.226 177.441 129.279C179.142 127.8 178.966 125.323 178.416 123.254C178.343 122.968 178.299 122.676 178.284 122.382Z" fill="#2F2E41"/>
<path d="M207.897 253H140.49C140.396 253 140.306 252.962 140.24 252.894C140.173 252.826 140.136 252.734 140.136 252.637C140.136 252.541 140.173 252.449 140.24 252.381C140.306 252.313 140.396 252.275 140.49 252.275H207.897C207.992 252.275 208.082 252.313 208.148 252.381C208.215 252.449 208.252 252.541 208.252 252.637C208.252 252.734 208.215 252.826 208.148 252.894C208.082 252.962 207.992 253 207.897 253Z" fill="#CCCCCC"/>
<path d="M97.8856 186.846L42.2651 210.17C41.3099 210.569 40.2388 210.565 39.2866 210.158C38.3345 209.751 37.5793 208.974 37.1865 207.999L20.1602 165.577C19.874 164.862 19.8771 164.06 20.1688 163.347C20.4605 162.634 21.0169 162.068 21.7161 161.774L79.2168 137.662C79.9287 137.365 80.7271 137.368 81.4367 137.671C82.1462 137.975 82.7091 138.553 83.0019 139.28L100.009 181.655C100.4 182.632 100.396 183.727 99.9977 184.7C99.5995 185.673 98.8399 186.445 97.8856 186.846Z" fill="#E6E6E6"/>
<path d="M44.2798 205.024L92.916 184.63C93.8422 184.241 94.5795 183.493 94.9657 182.549C95.3519 181.605 95.3555 180.543 94.9755 179.596L81.2269 145.341C81.0388 144.872 80.7621 144.446 80.4128 144.086C80.0635 143.727 79.6484 143.441 79.1911 143.246C78.7338 143.05 78.2433 142.949 77.7476 142.947C77.2519 142.945 76.7607 143.043 76.3022 143.236L27.666 163.63C27.2074 163.823 26.7903 164.105 26.4386 164.462C26.087 164.82 25.8075 165.244 25.6163 165.711C25.425 166.179 25.3257 166.68 25.3241 167.187C25.3224 167.693 25.4183 168.195 25.6065 168.664L39.3551 202.919C39.5432 203.388 39.8198 203.814 40.1691 204.174C40.5185 204.533 40.9336 204.819 41.3909 205.014C41.8482 205.21 42.3387 205.311 42.8344 205.313C43.3301 205.315 43.8212 205.217 44.2798 205.024Z" fill="white"/>
<path d="M80.9581 154.683L80.2431 154.983L80.292 155.104L81.007 154.805L80.9581 154.683Z" fill="#E6E6E6"/>
<path d="M78.8475 155.71L77.403 156.316L77.3541 156.194L78.7986 155.588L78.8475 155.71ZM75.9584 156.922L74.5139 157.527L74.465 157.406L75.9095 156.8L75.9584 156.922ZM73.0693 158.133L71.6248 158.739L71.5759 158.617L73.0204 158.011L73.0693 158.133ZM70.1802 159.345L68.7356 159.95L68.6867 159.828L70.1313 159.223L70.1802 159.345ZM67.2911 160.556L65.8465 161.162L65.7976 161.04L67.2422 160.434L67.2911 160.556ZM64.402 161.768L62.9574 162.373L62.9085 162.251L64.3531 161.646L64.402 161.768ZM61.5129 162.979L60.0683 163.585L60.0194 163.463L61.464 162.857L61.5129 162.979ZM58.6238 164.191L57.1792 164.796L57.1303 164.674L58.5749 164.069L58.6238 164.191ZM55.7347 165.402L54.2901 166.008L54.2412 165.886L55.6858 165.28L55.7347 165.402ZM52.8456 166.614L51.401 167.219L51.3521 167.097L52.7967 166.492L52.8456 166.614ZM49.9564 167.825L48.5119 168.431L48.463 168.309L49.9075 167.703L49.9564 167.825ZM47.0673 169.037L45.6228 169.642L45.5739 169.52L47.0184 168.915L47.0673 169.037ZM44.1782 170.248L42.7337 170.854L42.6848 170.732L44.1293 170.126L44.1782 170.248ZM41.2891 171.459L39.8446 172.065L39.7957 171.943L41.2402 171.338L41.2891 171.459ZM38.4 172.671L36.9555 173.277L36.9066 173.155L38.3511 172.549L38.4 172.671ZM35.5109 173.882L34.0663 174.488L34.0175 174.366L35.462 173.761L35.5109 173.882Z" fill="#E6E6E6"/>
<path d="M32.5729 174.972L31.8578 175.272L31.9067 175.394L32.6218 175.094L32.5729 174.972Z" fill="#E6E6E6"/>
<path d="M62.0275 175.856L61.3125 176.156L61.3614 176.278L62.0764 175.978L62.0275 175.856Z" fill="#E6E6E6"/>
<path d="M59.9382 176.875L58.5151 177.471L58.4662 177.35L59.8893 176.753L59.9382 176.875ZM57.092 178.068L55.6689 178.665L55.62 178.543L57.0431 177.946L57.092 178.068ZM54.2458 179.262L52.8227 179.858L52.7738 179.737L54.1969 179.14L54.2458 179.262ZM51.3996 180.455L49.9765 181.052L49.9277 180.93L51.3507 180.333L51.3996 180.455ZM48.5535 181.649L47.1303 182.246L47.0814 182.124L48.5046 181.527L48.5535 181.649ZM45.7072 182.842L44.2841 183.439L44.2353 183.317L45.6583 182.72L45.7072 182.842ZM42.8611 184.036L41.438 184.633L41.3891 184.511L42.8122 183.914L42.8611 184.036ZM40.0149 185.229L38.5918 185.826L38.5429 185.704L39.966 185.107L40.0149 185.229Z" fill="#E6E6E6"/>
<path d="M37.1198 186.301L36.4048 186.601L36.4537 186.723L37.1687 186.423L37.1198 186.301Z" fill="#E6E6E6"/>
<path d="M50.2352 187.063L49.5201 187.363L49.569 187.485L50.284 187.185L50.2352 187.063Z" fill="#E6E6E6"/>
<path d="M48.1049 188.099L46.6407 188.713L46.5918 188.591L48.056 187.977L48.1049 188.099ZM45.1765 189.327L43.7124 189.941L43.6635 189.819L45.1277 189.205L45.1765 189.327ZM42.2482 190.555L40.7841 191.169L40.7352 191.047L42.1994 190.433L42.2482 190.555Z" fill="#E6E6E6"/>
<path d="M39.271 191.661L38.556 191.961L38.6049 192.082L39.3199 191.783L39.271 191.661Z" fill="#E6E6E6"/>
<path d="M53.9063 196.21L53.1912 196.51L53.2401 196.631L53.9552 196.332L53.9063 196.21Z" fill="#E6E6E6"/>
<path d="M51.776 197.245L50.3119 197.859L50.263 197.738L51.7271 197.124L51.776 197.245ZM48.8477 198.473L47.3835 199.087L47.3346 198.966L48.7988 198.352L48.8477 198.473ZM45.9194 199.701L44.4552 200.315L44.4063 200.193L45.8705 199.58L45.9194 199.701Z" fill="#E6E6E6"/>
<path d="M42.9422 200.807L42.2271 201.107L42.276 201.229L42.9911 200.929L42.9422 200.807Z" fill="#E6E6E6"/>
<path d="M46.345 199.632L87.5608 182.349C88.5583 181.929 89.3523 181.122 89.7684 180.105C90.1846 179.088 90.189 177.944 89.7807 176.923L81.4532 156.175L81.3727 156.211L71.2584 180.931L63.7568 177.725C63.6184 177.666 63.4684 177.64 63.3184 177.649C63.1685 177.659 63.0228 177.704 62.8927 177.78C62.6974 177.901 62.5463 178.083 62.4628 178.3L57.162 191.254L51.6772 188.91C51.5589 188.86 51.4319 188.833 51.3036 188.833C51.1753 188.832 51.0482 188.858 50.9295 188.908C50.8108 188.957 50.7029 189.031 50.6119 189.123C50.5209 189.215 50.4486 189.325 50.3991 189.446C50.364 189.534 46.9822 198.015 46.345 199.632Z" fill="#9E00FF"/>
<path d="M46.2181 199.827L46.0993 199.777L50.3404 189.41C50.4527 189.137 50.6666 188.92 50.9352 188.807C51.2038 188.695 51.5051 188.695 51.773 188.81L57.1494 191.108L62.42 178.225C62.5323 177.952 62.7462 177.735 63.0147 177.622C63.2833 177.51 63.5846 177.511 63.8526 177.625L71.2458 180.785L81.4121 155.936L81.531 155.987L71.3149 180.957L63.8029 177.746C63.6858 177.696 63.5603 177.67 63.4334 177.67C63.3065 177.669 63.1808 177.694 63.0634 177.744C62.9461 177.793 62.8393 177.865 62.7493 177.957C62.6593 178.048 62.5878 178.157 62.5388 178.276L57.2185 191.28L51.7233 188.931C51.4869 188.83 51.221 188.83 50.9841 188.929C50.7471 189.028 50.5584 189.22 50.4593 189.461L46.2181 199.827Z" fill="#3F3D56"/>
<path d="M50.2596 188.046C50.7576 188.046 51.1613 187.633 51.1613 187.124C51.1613 186.615 50.7576 186.202 50.2596 186.202C49.7616 186.202 49.3579 186.615 49.3579 187.124C49.3579 187.633 49.7616 188.046 50.2596 188.046Z" fill="#3F3D56"/>
<path d="M62.0519 176.839C62.5499 176.839 62.9536 176.426 62.9536 175.917C62.9536 175.408 62.5499 174.996 62.0519 174.996C61.5539 174.996 61.1502 175.408 61.1502 175.917C61.1502 176.426 61.5539 176.839 62.0519 176.839Z" fill="#3F3D56"/>
<path d="M80.4139 155.633C80.9119 155.633 81.3156 155.22 81.3156 154.711C81.3156 154.202 80.9119 153.789 80.4139 153.789C79.9159 153.789 79.5122 154.202 79.5122 154.711C79.5122 155.22 79.9159 155.633 80.4139 155.633Z" fill="#3F3D56"/>
<path d="M29.9433 186.078C30.412 185.84 30.824 185.499 31.15 185.08C31.476 184.662 31.7083 184.175 31.8304 183.655C31.9525 183.134 31.9615 182.593 31.8567 182.068C31.7519 181.544 31.536 181.05 31.224 180.62L33.9021 153.856H28.1145L25.9862 179.989C25.3145 180.573 24.8756 181.388 24.7526 182.28C24.6296 183.172 24.8311 184.08 25.3189 184.83C25.8066 185.581 26.5468 186.122 27.3991 186.352C28.2514 186.582 29.1567 186.485 29.9433 186.078Z" fill="#FFB8B8"/>
<path d="M35.2573 139.086C39.7795 139.086 43.4455 135.339 43.4455 130.716C43.4455 126.094 39.7795 122.347 35.2573 122.347C30.7351 122.347 27.0691 126.094 27.0691 130.716C27.0691 135.339 30.7351 139.086 35.2573 139.086Z" fill="#FFB8B8"/>
<path d="M36.7988 169.442C36.471 169.442 36.1523 169.332 35.8916 169.129C35.6309 168.926 35.4426 168.641 35.3556 168.318C34.6995 165.882 32.9927 161.763 30.2827 156.075C29.6712 154.789 29.3326 153.386 29.2891 151.957C29.2456 150.528 29.4981 149.105 30.0302 147.783C30.5622 146.461 31.3617 145.269 32.3763 144.284C33.3909 143.3 34.5975 142.547 35.9172 142.073C37.1677 141.621 38.4941 141.431 39.8179 141.513C41.1417 141.595 42.4359 141.947 43.6242 142.549C44.8124 143.151 45.8704 143.991 46.7356 145.018C47.6008 146.045 48.2556 147.24 48.6613 148.53C50.7619 155.262 50.6604 162.472 50.5193 165.26C50.5018 165.595 50.3771 165.916 50.1643 166.172C49.9515 166.429 49.6623 166.607 49.3411 166.679L37.1205 169.407C37.0149 169.431 36.907 169.442 36.7988 169.442Z" fill="#FF6584"/>
<path d="M48.6331 248.918H52.7201L54.6646 232.804L48.6324 232.804L48.6331 248.918Z" fill="#FFB8B8"/>
<path d="M60.6028 252.797L47.7574 252.798L47.7571 247.725L55.6396 247.724C56.2913 247.724 56.9367 247.856 57.5389 248.11C58.141 248.365 58.6881 248.739 59.149 249.21C59.6099 249.681 59.9755 250.24 60.2249 250.856C60.4744 251.471 60.6028 252.131 60.6028 252.797Z" fill="#2F2E41"/>
<path d="M7.76315 243.504L11.345 245.517L20.6443 232.354L15.3585 229.383L7.76315 243.504Z" fill="#FFB8B8"/>
<path d="M16.4239 252.798L5.16744 246.472L7.55846 242.027L14.4658 245.908C15.6193 246.557 16.4736 247.647 16.8408 248.939C17.208 250.231 17.058 251.619 16.4239 252.798Z" fill="#2F2E41"/>
<path d="M48.4421 239.974C48.0779 239.974 47.7263 239.838 47.4528 239.592C47.1793 239.347 47.0026 239.007 46.9558 238.638L41.8443 198.377C41.8217 198.199 41.7447 198.033 41.6241 197.902C41.5036 197.772 41.3457 197.683 41.1731 197.65C41.0005 197.616 40.822 197.64 40.663 197.716C40.504 197.792 40.3728 197.918 40.2879 198.076L18.9853 237.581C18.8095 237.903 18.5263 238.151 18.1872 238.278C17.8481 238.405 17.4756 238.404 17.1374 238.274L12.4941 236.465C12.3073 236.393 12.1367 236.283 11.9921 236.142C11.8476 236 11.7321 235.831 11.6524 235.644C11.5727 235.457 11.5304 235.255 11.5281 235.051C11.5257 234.846 11.5633 234.644 11.6387 234.454L26.3955 197.401C26.4329 197.307 26.4582 197.208 26.4709 197.107C28.4697 181.295 33.5551 173.253 35.0661 171.166C35.1764 171.012 35.2491 170.834 35.2778 170.646C35.3066 170.457 35.2907 170.265 35.2314 170.084L35.0237 169.447C34.9407 169.195 34.9237 168.924 34.9743 168.662C35.025 168.401 35.1415 168.157 35.3124 167.956C40.7569 161.617 50.2466 165.076 50.3418 165.112L50.3894 165.13L50.4192 165.171C61.0599 180.087 57.1256 228.534 56.229 238.095C56.1955 238.454 56.0388 238.79 55.7865 239.042C55.5343 239.295 55.2028 239.448 54.8507 239.475L48.5586 239.97C48.5195 239.973 48.4807 239.974 48.4421 239.974Z" fill="#2F2E41"/>
<path d="M67.0899 140.438C67.049 140.622 67.0223 140.809 67.0102 140.997L52.6889 149.442L49.2079 147.394L45.497 152.359L51.3146 156.598C51.7846 156.94 52.3506 157.117 52.9276 157.103C53.5045 157.089 54.0614 156.883 54.5145 156.518L69.2822 144.61C69.9486 144.862 70.6744 144.901 71.363 144.721C72.0515 144.541 72.6702 144.152 73.1368 143.604C73.6033 143.056 73.8956 142.376 73.9748 141.654C74.0539 140.932 73.9162 140.202 73.5799 139.562C73.2436 138.923 72.7247 138.402 72.0922 138.071C71.4596 137.74 70.7435 137.614 70.0389 137.709C69.3344 137.804 68.6749 138.116 68.1481 138.604C67.6213 139.091 67.2522 139.731 67.0899 140.438Z" fill="#FFB8B8"/>
<path d="M52.2101 149.842L47.5816 155.974C47.4499 156.148 47.2829 156.292 47.0921 156.394C46.9013 156.497 46.6911 156.556 46.4759 156.568C46.2606 156.58 46.0453 156.545 45.8447 156.464C45.6441 156.383 45.4628 156.259 45.3133 156.101L40.0734 150.539C39.2039 149.845 38.6391 148.827 38.5028 147.709C38.3665 146.59 38.6697 145.461 39.3461 144.571C40.0224 143.68 41.0167 143.1 42.1109 142.958C43.2051 142.815 44.3098 143.122 45.183 143.811L51.7549 147.567C51.9431 147.675 52.1063 147.823 52.2335 148C52.3607 148.178 52.449 148.382 52.4922 148.598C52.5354 148.814 52.5325 149.037 52.4839 149.252C52.4352 149.466 52.3418 149.668 52.2101 149.842Z" fill="#FF6584"/>
<path d="M34.2704 160.495L26.814 159.119C26.6019 159.08 26.4005 158.994 26.2235 158.868C26.0466 158.743 25.8983 158.579 25.7887 158.389C25.6791 158.2 25.6108 157.988 25.5885 157.769C25.5661 157.55 25.5903 157.328 25.6592 157.119L28.0764 149.804C28.2785 148.696 28.9024 147.714 29.8113 147.075C30.7201 146.436 31.8397 146.192 32.9247 146.396C34.0096 146.599 34.9713 147.234 35.5988 148.161C36.2264 149.089 36.4685 150.233 36.2722 151.342L36.0364 159.035C36.0296 159.255 35.9764 159.471 35.8805 159.668C35.7846 159.866 35.6482 160.04 35.4806 160.178C35.313 160.317 35.1181 160.417 34.9093 160.472C34.7004 160.526 34.4825 160.534 34.2704 160.495H34.2704Z" fill="#FF6584"/>
<path d="M36.5533 128.791C38.6578 130.263 41.4211 131.777 43.5706 130.209C44.243 129.686 44.7314 128.954 44.9628 128.123C45.1942 127.292 45.1562 126.407 44.8543 125.6C43.8251 122.592 40.9973 121.267 38.2932 120.252C34.7779 118.932 30.9502 117.882 27.3212 118.828C23.6922 119.773 20.485 123.364 21.1401 127.133C21.667 130.164 24.464 132.686 24.0669 135.737C23.6673 138.808 20.2884 140.425 17.3054 140.973C14.3224 141.522 10.9844 141.699 8.84059 143.889C6.10583 146.683 6.78875 151.676 9.36204 154.626C11.9353 157.576 15.8186 158.913 19.5815 159.822C24.567 161.026 29.9593 161.659 34.6944 159.661C39.4294 157.662 43.1141 152.281 41.7425 147.236C41.1631 145.105 39.7982 143.304 38.4792 141.551C37.1601 139.797 35.8244 137.964 35.3212 135.813C34.9019 134.02 35.2123 131.939 36.3753 130.594C36.5869 130.359 36.72 130.061 36.7556 129.743C36.7912 129.426 36.7274 129.105 36.5735 128.827L36.5533 128.791Z" fill="#2F2E41"/>
<path d="M67.7618 253H0.354774C0.260682 253 0.170444 252.962 0.103911 252.894C0.0373776 252.826 0 252.734 0 252.637C0 252.541 0.0373776 252.449 0.103911 252.381C0.170444 252.313 0.260682 252.275 0.354774 252.275H67.7618C67.8559 252.275 67.9461 252.313 68.0127 252.381C68.0792 252.449 68.1166 252.541 68.1166 252.637C68.1166 252.734 68.0792 252.826 68.0127 252.894C67.9461 252.962 67.8559 253 67.7618 253Z" fill="#CCCCCC"/>
</svg>
