<svg width="652" height="396" viewBox="0 0 652 396" fill="none" xmlns="http://www.w3.org/2000/svg">
<g clip-path="url(#clip0)">
<path d="M306.066 398.684L305.245 397.83C305.407 397.674 321.577 381.849 327.739 352.278C333.431 324.971 331.508 280.012 290.033 220.906C272.703 196.21 260.886 172.877 254.908 151.555C250.023 134.133 248.989 117.938 251.834 103.418C257.458 74.7117 276.575 62.1092 276.767 61.9854L277.41 62.9809C277.221 63.1024 258.504 75.4684 252.99 103.683C246.664 136.053 259.454 175.264 291.004 220.226C309.427 246.481 321.691 272.19 327.455 296.639C332.072 316.226 332.553 335.052 328.884 352.595C322.631 382.497 306.231 398.525 306.066 398.684Z" fill="#F2F2F2"/>
<path d="M266.27 128.102C291.612 128.102 312.155 107.571 312.155 82.2434C312.155 56.9162 291.612 36.3845 266.27 36.3845C240.928 36.3845 220.384 56.9162 220.384 82.2434C220.384 107.571 240.928 128.102 266.27 128.102Z" fill="#F2F2F2"/>
<path d="M277.088 124.966C264.723 124.966 252.636 121.302 242.354 114.436C232.073 107.57 224.06 97.8119 219.328 86.3946C214.596 74.9773 213.358 62.4141 215.77 50.2935C218.182 38.1729 224.137 27.0395 232.88 18.301C241.624 9.56259 252.764 3.61161 264.891 1.20065C277.019 -1.2103 289.589 0.0270451 301.013 4.75622C312.437 9.4854 322.202 17.494 329.071 27.7693C335.941 38.0446 339.608 50.1251 339.608 62.4831C339.589 79.0489 332.996 94.9308 321.276 106.645C309.555 118.358 293.664 124.948 277.088 124.966ZM277.088 1.18479C264.958 1.18477 253.099 4.77983 243.013 11.5154C232.927 18.2509 225.065 27.8244 220.423 39.0253C215.781 50.2261 214.566 62.5512 216.933 74.4419C219.299 86.3327 225.141 97.255 233.719 105.828C242.296 114.4 253.225 120.239 265.123 122.604C277.02 124.969 289.353 123.755 300.56 119.116C311.767 114.476 321.346 106.619 328.086 96.5387C334.825 86.4582 338.422 74.6068 338.422 62.4831C338.404 46.2314 331.936 30.6507 320.438 19.159C308.939 7.66732 293.35 1.20321 277.088 1.18479Z" fill="#F2F2F2"/>
<path d="M312.155 224.294C333.171 224.294 350.207 207.268 350.207 186.265C350.207 165.262 333.171 148.235 312.155 148.235C291.14 148.235 274.104 165.262 274.104 186.265C274.104 207.268 291.14 224.294 312.155 224.294Z" fill="#F2F2F2"/>
<path d="M292.757 356.278C313.772 356.278 330.808 339.252 330.808 318.249C330.808 297.246 313.772 280.219 292.757 280.219C271.741 280.219 254.705 297.246 254.705 318.249C254.705 339.252 271.741 356.278 292.757 356.278Z" fill="#F2F2F2"/>
<path d="M452.5 67.5315H313.21V158.166H452.5V67.5315Z" fill="#689EFF"/>
<path d="M638.356 398.673H509.354C509.354 398.673 506.739 360.344 522.21 359.908C537.682 359.473 535.939 376.895 555.332 352.939C574.726 328.983 598.26 330.29 601.311 344.446C604.362 358.602 595.428 369.926 611.771 366.442C628.114 362.957 651.648 372.104 638.356 398.673Z" fill="#F2F2F2"/>
<path d="M571.677 398.682L571.242 398.665C572.257 373.429 577.545 357.214 581.803 348.056C586.426 338.112 590.88 334.087 590.925 334.047L591.214 334.373C591.17 334.412 586.768 338.397 582.182 348.274C577.948 357.393 572.689 373.541 571.677 398.682Z" fill="white"/>
<path d="M618.366 398.734L617.948 398.612C621.192 387.917 627.04 378.193 634.968 370.311L635.261 370.634C627.392 378.46 621.587 388.115 618.366 398.734Z" fill="white"/>
<path d="M529.672 398.703L529.24 398.643C530.647 389.182 529.159 379.517 524.971 370.916C523.253 367.308 520.98 363.992 518.233 361.089L518.535 360.775C521.317 363.714 523.621 367.07 525.362 370.723C529.588 379.402 531.091 389.156 529.672 398.703Z" fill="white"/>
<path d="M50.7006 398.549L50.4031 397.938C50.3125 397.752 41.4008 379.134 46.3695 360.777C51.3385 342.419 68.4266 330.83 68.5985 330.716L69.1631 330.338L69.4607 330.949C69.5513 331.135 78.463 349.753 73.494 368.11C68.5253 386.468 51.4372 398.057 51.2653 398.171L50.7006 398.549ZM68.685 332.105C65.6933 334.281 51.8528 345.056 47.5138 361.086C43.1717 377.128 49.6917 393.397 51.1787 396.782C54.1704 394.606 68.011 383.831 72.3496 367.801C76.6921 351.759 70.1721 335.49 68.685 332.105Z" fill="#3F3D56"/>
<path d="M27.7238 367.956C32.6922 386.311 49.7098 397.679 49.7098 397.679C49.7098 397.679 58.6723 379.287 53.7039 360.932C48.7356 342.576 31.7179 331.208 31.7179 331.208C31.7179 331.208 22.7555 349.6 27.7238 367.956Z" fill="#689EFF"/>
<path d="M50.9689 398.292L50.2905 398.255C50.0839 398.244 29.4724 396.974 15.8374 383.709C2.20291 370.444 0.378713 349.886 0.361927 349.68L0.306648 349.003L0.985043 349.04C1.19169 349.051 21.8031 350.321 35.4379 363.586C49.0727 376.852 50.8969 397.409 50.9136 397.616L50.9689 398.292ZM1.61945 350.28C2.0666 353.95 4.75847 371.277 16.6645 382.86C28.5706 394.444 45.973 396.667 49.6561 397.015C49.209 393.345 46.5171 376.019 34.6107 364.435C22.696 352.843 5.30084 350.627 1.61945 350.28Z" fill="#3F3D56"/>
<path d="M65.6213 364.011C51.9881 377.275 50.3229 397.664 50.3229 397.664C50.3229 397.664 70.7615 396.549 84.3947 383.285C98.0279 370.021 99.6931 349.632 99.6931 349.632C99.6931 349.632 79.2545 350.747 65.6213 364.011Z" fill="#3F3D56"/>
<path d="M176.461 249.089C162.828 262.352 161.163 282.742 161.163 282.742C161.163 282.742 181.601 281.626 195.235 268.363C208.868 255.099 210.533 234.71 210.533 234.71C210.533 234.71 190.094 235.825 176.461 249.089Z" fill="#3F3D56"/>
<path d="M50.0387 328.18C54.949 328.18 58.9296 324.202 58.9296 319.294C58.9296 314.387 54.949 310.408 50.0387 310.408C45.1284 310.408 41.1478 314.387 41.1478 319.294C41.1478 324.202 45.1284 328.18 50.0387 328.18Z" fill="#689EFF"/>
<path d="M157.904 398.091L157.082 397.237C157.212 397.113 170.037 384.557 174.922 361.097C179.433 339.429 177.901 303.753 144.982 256.842C119.736 220.863 109.519 189.429 114.616 163.413C119.094 140.558 134.324 130.517 134.478 130.419L135.12 131.414C134.971 131.511 120.14 141.314 115.772 163.677C110.757 189.358 120.911 220.474 145.953 256.161C160.598 277.032 170.347 297.47 174.93 316.908C178.602 332.486 178.984 347.46 176.066 361.414C171.091 385.205 158.036 397.965 157.904 398.091Z" fill="#3F3D56"/>
<path d="M151.988 159.943C210.912 159.943 258.679 151.753 258.679 141.65C258.679 131.547 210.912 123.357 151.988 123.357C93.064 123.357 45.2969 131.547 45.2969 141.65C45.2969 151.753 93.064 159.943 151.988 159.943Z" fill="#689EFF"/>
<path d="M132.131 154.612C58.1792 154.612 0.24963 144.464 0.24963 131.509C0.24963 118.554 58.1792 108.406 132.131 108.406C206.084 108.406 264.013 118.554 264.013 131.509C264.013 144.464 206.084 154.612 132.131 154.612ZM132.131 109.591C61.2867 109.591 1.43508 119.628 1.43508 131.509C1.43508 143.39 61.2867 153.427 132.131 153.427C202.976 153.427 262.828 143.39 262.828 131.509C262.828 119.628 202.976 109.591 132.131 109.591Z" fill="#3F3D56"/>
<path d="M162.1 41.7298C162.1 41.7298 146.29 37.2788 141.614 58.8661C136.937 80.4533 140.5 91.3583 140.5 91.3583L175.795 87.2411C175.795 87.2411 185.815 48.295 162.1 41.7298Z" fill="#2F2E41"/>
<path d="M138.446 135.229C138.446 135.229 115.255 137.537 119.386 146.895C123.516 156.252 123.516 157.078 123.516 157.078L143.894 193.406L150.503 186.525C150.503 186.525 143.068 170.288 143.068 165.059C143.068 159.83 135.357 150.748 135.357 150.748L148.851 149.647L138.446 135.229Z" fill="#A0616A"/>
<path d="M201.998 146.344L209.708 163.132C209.708 163.132 215.491 168.912 221.825 192.03C228.158 215.147 229.535 214.322 229.535 214.322L219.897 216.248C219.897 216.248 209.157 191.204 205.578 189.277C201.998 187.351 197.592 169.737 197.592 169.737L184.925 153.775L188.78 145.243L201.998 146.344Z" fill="#A0616A"/>
<path d="M192.635 127.079L204.476 149.096C204.476 149.096 189.606 142.216 187.403 157.353L173.91 146.895C173.91 146.895 155.184 152.949 143.894 150.748C143.894 150.748 147.198 140.29 135.357 135.611L162.069 132.308L160.967 126.529L163.721 121.025L192.635 127.079Z" fill="#2F2E41"/>
<path d="M145.546 188.452C145.546 188.452 138.111 187.351 140.039 193.956L143.894 207.166C143.894 207.166 138.937 220.652 146.648 217.624C154.358 214.597 159.315 195.883 159.315 195.883C159.315 195.883 162.619 181.572 159.315 181.572C156.01 181.572 145.546 179.37 146.648 181.572C147.749 183.773 145.546 188.452 145.546 188.452Z" fill="#2F2E41"/>
<path d="M228.709 210.469C228.709 210.469 219.071 207.992 216.868 211.845C214.665 215.698 215.216 228.358 215.216 228.633C215.216 228.908 218.52 231.66 219.622 231.66C220.723 231.66 227.607 244.045 236.97 239.641C246.333 235.238 228.709 210.469 228.709 210.469Z" fill="#2F2E41"/>
<path d="M159.315 75.3392C165.246 75.3392 170.054 70.5337 170.054 64.6059C170.054 58.678 165.246 53.8726 159.315 53.8726C153.384 53.8726 148.575 58.678 148.575 64.6059C148.575 70.5337 153.384 75.3392 159.315 75.3392Z" fill="#A0616A"/>
<path d="M168.127 66.8076C168.127 66.8076 170.33 78.3666 172.257 80.0178C174.185 81.6691 157.663 84.146 157.663 84.146C157.663 84.146 160.141 76.1649 157.112 72.0367C154.083 67.9085 168.127 66.8076 168.127 66.8076Z" fill="#A0616A"/>
<path d="M197.041 132.308C195.166 132.308 190.391 131.532 185.038 130.533C180.406 129.669 175.336 128.643 171.338 127.811C167.056 126.92 163.996 126.254 163.996 126.254C163.996 126.254 162.895 133.134 159.315 132.308C156.231 131.598 147.014 99.4233 144.522 90.5311C144.34 89.8819 144.375 89.1909 144.622 88.5634C144.869 87.9359 145.314 87.4063 145.89 87.0552L158.549 79.3299L161.793 80.5684C161.793 80.5684 167.273 76.3356 170.454 76.2503C173.634 76.165 179.142 75.3394 179.142 75.3394C179.142 75.3394 185.475 75.8898 186.577 80.5684C187.678 85.247 188.229 114.42 192.36 119.649C196.49 124.878 202.273 132.308 197.041 132.308Z" fill="#D0CDE1"/>
<path d="M158.489 147.72C158.489 147.72 158.489 158.454 165.648 156.802C172.808 155.151 166.199 145.243 166.199 145.243L158.489 147.72Z" fill="#A0616A"/>
<path d="M178.316 148.821C178.316 148.821 175.837 161.481 170.605 159.554C165.373 157.628 170.605 146.344 170.605 146.344L178.316 148.821Z" fill="#A0616A"/>
<path opacity="0.15" d="M189.881 118.823C189.881 118.823 187.185 125.252 185.038 130.533C180.406 129.669 175.336 128.642 171.338 127.811C171.625 127.051 172.028 126.34 172.533 125.703C174.46 123.501 173.359 122.951 173.359 122.951C171.707 119.648 173.084 115.245 173.084 115.245C169.779 106.438 174.736 95.4297 174.736 95.4297L189.881 118.823Z" fill="black"/>
<path d="M175.562 95.4299C175.562 95.4299 170.605 106.438 173.91 115.245C173.91 115.245 172.533 119.649 174.185 122.951C174.185 122.951 175.287 123.502 173.359 125.703C171.431 127.905 169.779 135.611 171.156 137.262C172.533 138.914 169.228 141.941 170.054 143.592C170.881 145.243 168.678 147.445 168.678 147.445C168.678 147.445 176.939 149.096 178.316 151.573C178.316 151.573 179.968 149.647 179.142 147.445C178.316 145.243 178.866 144.418 179.693 143.042C180.519 141.666 182.997 138.638 183.272 137.262C183.548 135.886 190.707 118.823 190.707 118.823L187.35 87.7278L175.562 95.4299Z" fill="#D0CDE1"/>
<path d="M146.923 87.7239L146.409 87.8174C145.691 87.9474 145.043 88.3263 144.578 88.8872C144.113 89.4482 143.86 90.1553 143.866 90.8839C143.885 93.6471 144.041 98.551 144.72 105.338C145.822 116.346 149.677 132.859 150.503 134.51C151.815 137.432 153.286 140.28 154.909 143.042C157.387 147.17 157.938 145.794 157.387 147.72C157.22 148.251 157.208 148.819 157.355 149.355C157.501 149.892 157.799 150.376 158.213 150.748C158.213 150.748 163.17 145.243 168.127 148.271C168.481 147.493 168.669 146.649 168.678 145.794C168.678 144.418 169.504 143.042 168.127 142.216C166.75 141.39 168.953 137.813 166.75 135.886C164.547 133.96 164.272 134.235 164.547 132.308C164.676 130.999 164.487 129.677 163.996 128.455L146.923 87.7239Z" fill="#D0CDE1"/>
<path d="M163.33 50.8184C163.33 50.8184 158.876 62.6135 147.965 67.5095L146.184 57.0497L163.33 50.8184Z" fill="#2F2E41"/>
<path d="M169.779 63.3674C170.616 63.3674 171.294 62.0736 171.294 60.4776C171.294 58.8817 170.616 57.5879 169.779 57.5879C168.943 57.5879 168.265 58.8817 168.265 60.4776C168.265 62.0736 168.943 63.3674 169.779 63.3674Z" fill="#A0616A"/>
<path d="M481.184 212.583C491.808 212.583 500.42 203.975 500.42 193.357C500.42 182.739 491.808 174.132 481.184 174.132C470.56 174.132 461.947 182.739 461.947 193.357C461.947 203.975 470.56 212.583 481.184 212.583Z" fill="#2F2E41"/>
<path d="M478.614 174.493C482.143 174.493 485.004 171.634 485.004 168.107C485.004 164.58 482.143 161.72 478.614 161.72C475.085 161.72 472.225 164.58 472.225 168.107C472.225 171.634 475.085 174.493 478.614 174.493Z" fill="#2F2E41"/>
<path d="M471.424 172.062C470.439 170.822 469.95 169.262 470.051 167.683C470.152 166.103 470.836 164.618 471.97 163.514C471.792 163.629 471.617 163.753 471.447 163.888C470.79 164.409 470.242 165.055 469.835 165.788C469.428 166.522 469.169 167.328 469.073 168.161C468.978 168.994 469.047 169.838 469.278 170.644C469.509 171.451 469.896 172.204 470.418 172.86C470.94 173.517 471.586 174.064 472.32 174.471C473.054 174.878 473.86 175.137 474.694 175.233C475.528 175.328 476.372 175.259 477.179 175.028C477.986 174.797 478.739 174.41 479.396 173.888C479.566 173.754 479.727 173.612 479.879 173.464C478.546 174.318 476.943 174.648 475.381 174.389C473.819 174.13 472.409 173.301 471.424 172.062Z" fill="#2F2E41"/>
<path d="M449.675 262.882L438.542 272.297C438.542 272.297 421.841 277.433 429.977 282.997C438.113 288.56 442.824 276.149 442.824 276.149L456.527 267.59L449.675 262.882Z" fill="#FFB9B9"/>
<path d="M473.656 221.796L472.372 220.94C472.372 220.94 467.233 220.94 466.376 226.076C465.52 231.211 462.951 241.911 462.951 241.911C462.951 241.911 454.386 247.047 455.242 256.462L446.25 264.166C446.25 264.166 456.955 267.59 454.814 270.585L470.659 256.034L471.087 228.216L473.656 221.796Z" fill="#2F2E41"/>
<path d="M478.795 211.952C484.944 211.952 489.929 206.97 489.929 200.825C489.929 194.679 484.944 189.698 478.795 189.698C472.646 189.698 467.661 194.679 467.661 200.825C467.661 206.97 472.646 211.952 478.795 211.952Z" fill="#FFB9B9"/>
<path d="M475.369 208.529C475.369 208.529 482.221 216.232 477.939 220.512C473.656 224.792 472.372 245.763 472.372 245.763L491.214 217.088C491.214 217.088 486.075 206.817 486.503 203.393L475.369 208.529Z" fill="#FFB9B9"/>
<path d="M474.084 238.487C474.084 238.487 484.362 215.927 489.929 214.368L504.489 217.944C504.489 217.944 492.926 257.746 494.211 261.598C495.496 265.45 502.776 271.013 500.206 304.824C500.206 304.824 533.18 365.169 525.043 375.44C516.907 385.712 486.503 393.415 486.075 390.419C485.647 387.423 471.943 341.202 474.084 327.079C474.084 327.079 474.084 388.279 471.515 389.563C468.946 390.847 427.836 400.263 429.121 392.987C430.405 385.712 450.96 305.68 450.96 305.68L466.805 256.034L467.233 248.759C467.233 248.759 460.381 244.051 465.52 233.351C470.659 222.652 472.372 220.94 472.372 220.94L478.541 219.782C478.541 219.782 472.8 235.491 474.084 238.487Z" fill="#2F2E41"/>
<path d="M497.209 270.585L492.07 281.713C492.07 281.713 478.795 295.836 488.216 296.264C497.637 296.692 498.493 283.425 498.493 283.425L505.345 270.585H497.209Z" fill="#FFB9B9"/>
<path d="M498.922 218.372H504.489C504.489 218.372 506.202 215.804 507.914 226.504C509.627 237.203 508.771 253.466 508.771 253.466L506.202 274.865C506.202 274.865 497.209 271.441 495.068 272.297C492.927 273.153 495.068 271.869 495.068 271.869L498.922 257.318L494.211 236.347L498.922 218.372Z" fill="#2F2E41"/>
<path d="M477.668 184.417C470.396 186.392 465.434 191.43 466.587 195.67C467.103 197.567 468.759 198.979 471.08 199.787L473.115 197.263L473.208 200.326C473.53 200.381 473.857 200.43 474.194 200.466L476.78 195.022L478.255 200.446C479.467 200.317 480.666 200.091 481.842 199.771C489.115 197.796 494.076 192.758 492.923 188.519C491.77 184.279 484.94 182.443 477.668 184.417Z" fill="#2F2E41"/>
<path d="M490.143 200.611C490.852 200.611 491.428 199.653 491.428 198.471C491.428 197.289 490.852 196.331 490.143 196.331C489.433 196.331 488.858 197.289 488.858 198.471C488.858 199.653 489.433 200.611 490.143 200.611Z" fill="#FFB9B9"/>
<path d="M446.573 398.673C452.138 398.673 456.65 396.684 456.65 394.23C456.65 391.777 452.138 389.788 446.573 389.788C441.008 389.788 436.497 391.777 436.497 394.23C436.497 396.684 441.008 398.673 446.573 398.673Z" fill="#2F2E41"/>
<path d="M501.268 396.558C508.21 393.823 512.864 389.138 511.664 386.095C510.464 383.051 503.863 382.801 496.921 385.535C489.979 388.27 485.324 392.954 486.524 395.998C487.725 399.042 494.326 399.292 501.268 396.558Z" fill="#2F2E41"/>
<path d="M433.221 277.393C433.045 277.35 415.466 272.878 408.777 255.117C401.153 234.872 410.116 206.324 435.419 170.266C466.324 126.224 468.002 111.426 463.968 106.767C458.865 100.874 442.852 108.853 442.692 108.935L442.157 107.877C442.848 107.528 459.157 99.4024 464.863 105.991C471.134 113.231 461.553 135.085 436.389 170.946C422.678 190.486 413.716 208.025 409.753 223.076C406.539 235.278 406.582 245.911 409.88 254.682C416.338 271.858 433.332 276.201 433.503 276.242L433.221 277.393Z" fill="#3F3D56"/>
<path d="M443.017 143.949H294.242V46.7981H443.017V143.949ZM295.428 142.764H441.831V47.9829H295.428V142.764Z" fill="#3F3D56"/>
<path d="M356.202 108.259C359.65 108.259 362.445 105.465 362.445 102.019C362.445 98.5735 359.65 95.78 356.202 95.78C352.754 95.78 349.959 98.5735 349.959 102.019C349.959 105.465 352.754 108.259 356.202 108.259Z" fill="#3F3D56"/>
<path d="M409.508 108.259C412.956 108.259 415.751 105.465 415.751 102.019C415.751 98.5735 412.956 95.78 409.508 95.78C406.06 95.78 403.265 98.5735 403.265 102.019C403.265 105.465 406.06 108.259 409.508 108.259Z" fill="#3F3D56"/>
<path d="M409.508 127.457C409.508 129.313 397.468 134.657 382.615 134.657C367.762 134.657 355.722 129.313 355.722 127.457C355.722 125.602 367.762 127.937 382.615 127.937C397.468 127.937 409.508 125.602 409.508 127.457Z" fill="#3F3D56"/>
</g>
<defs>
<clipPath id="clip0">
<rect width="652" height="399" fill="white"/>
</clipPath>
</defs>
</svg>
