<svg width="160" height="62" viewBox="0 0 160 62" fill="none" xmlns="http://www.w3.org/2000/svg">
<path d="M7.43243 30.0287C7.65405 29.9117 8.5159 30.219 9.30118 30.5518C9.79629 30.7617 10.543 30.5374 11.033 30.3157C11.4691 30.1184 11.7327 29.649 11.4203 29.2864C9.8239 27.4336 4.92381 23.7229 1.78218 21.4607C1.41705 21.1978 0.911997 21.4612 0.911997 21.9112C0.911997 22.134 0.753007 22.3199 0.628145 22.5044C0.356862 22.9053 0.600927 23.6153 0.884776 24.1506C1.01051 24.3878 0.998432 24.6808 0.827225 24.8876C0.5993 25.1628 0.657181 25.5743 0.952173 25.776L1.9585 26.4639C2.0668 26.538 2.20718 26.546 2.32317 26.4847C2.45461 26.4152 2.61545 26.4354 2.72564 26.5352L3.01079 26.7935C3.16868 26.9364 3.26187 27.1346 3.34414 27.3311C3.93891 28.7516 7.0532 30.2291 7.43243 30.0287Z" fill="#F7B400"/>
<path d="M12.6196 29.453C9.48946 24.2816 4.18574 21.4159 1.52221 20.4765C1.26499 20.3858 1.05625 20.1949 0.953724 19.9422C0.861839 19.7157 0.672335 19.5485 0.476562 19.4021C-0.398396 18.748 0.103236 17.3916 0.617122 16.5455C0.723423 16.3705 0.708632 16.1441 0.567867 15.9954C0.465166 15.8868 0.426319 15.7327 0.465321 15.5885L0.743433 14.5601C0.784957 14.4066 0.901729 14.2847 1.05336 14.2366L1.20447 14.1887C1.48128 14.101 1.5586 13.7461 1.34335 13.5511C1.21086 13.4312 1.18106 13.2345 1.27208 13.0807L2.44494 11.0981C2.56828 10.8896 2.79252 10.7617 3.03476 10.7617C3.29469 10.7617 3.53225 10.6146 3.64815 10.382L4.00769 9.66023C4.26321 9.14732 4.88028 8.98178 5.26812 9.40364C7.88086 12.2456 12.9879 21.988 15.6863 27.4706C15.8703 27.8445 15.8007 28.2919 15.5143 28.5945L14.4626 29.7056C14.2111 29.9713 13.8347 30.0784 13.481 29.985L13.2362 29.9204C12.9776 29.8521 12.7581 29.6818 12.6196 29.453Z" fill="#0E2748"/>
<path d="M16.2708 0.958326C15.7159 6.18289 17.8264 18.292 19.4226 25.968C19.5165 26.4198 17.7341 27.876 17.2726 27.8718C17.0815 27.8701 16.9798 27.7411 16.9354 27.5553C15.077 19.7824 8.20421 11.5281 4.67906 8.04362C4.48582 7.85262 4.3655 7.59151 4.42491 7.32638C4.64961 6.32365 5.60001 5.28404 6.28861 4.68175C6.49095 4.50478 6.61732 4.25338 6.61732 3.98457C6.61732 3.50668 7.00472 3.11928 7.48261 3.11928H8.99988C9.23758 3.11928 9.46749 3.03461 9.64842 2.88046L12.1367 0.76043C12.37 0.561602 12.7037 0.532347 12.9681 0.687533C13.2486 0.852166 13.6003 0.801236 13.8637 0.610414C14.4512 0.184745 15.0506 0.0293253 15.5396 0.0038795C16.0375 -0.0220276 16.3234 0.462575 16.2708 0.958326Z" fill="#C34B1E"/>
<path d="M28.0037 3.58705C24.3049 12.0502 24.0428 26.1108 24.4445 33.5832C24.4747 34.1458 23.7923 34.4579 23.3889 34.0645C23.2826 33.9609 23.2177 33.8221 23.2063 33.6741L22.8878 29.5524C22.8476 29.0316 22.4132 28.6294 21.8908 28.6294H21.7537C21.2993 28.6294 20.9116 28.3256 20.8329 27.8781C20.2225 24.4052 18.4596 11.3543 17.4632 3.81378C17.3841 3.21489 17.851 2.68864 18.4551 2.68864H18.8405C18.91 2.68864 18.9793 2.69588 19.0472 2.71024L20.1681 2.94707C20.3668 2.98906 20.5442 3.0955 20.7026 3.22264C21.7614 4.07269 23.4999 3.97268 24.4466 3.87265C25.0626 3.80758 24.8251 3.36956 24.4818 3.00459C24.2925 2.8033 24.2119 2.51377 24.3158 2.25768C24.3972 2.05702 24.5758 1.90892 24.7916 1.89108C25.7234 1.81403 26.7381 2.04895 27.5047 2.31203C28.0237 2.49011 28.2234 3.08432 28.0037 3.58705Z" fill="#FF2600"/>
<path d="M39.6379 11.1172C32.5978 17.1497 29.107 28.2592 27.8055 35.3745C27.6736 36.0952 25.8597 36.3387 25.3076 35.8571C25.1593 35.7277 25.1591 35.6191 25.1587 35.4262L25.1587 35.4129C25.1198 18.5545 28.3557 6.75966 30.0189 2.86891C30.0406 2.81834 30.0565 2.76853 30.072 2.71577C30.3973 1.60897 31.5228 1.41364 32.4917 1.50831C33.059 1.56374 33.4395 2.21047 33.675 2.72953C34.6917 4.9707 39.1965 9.07283 39.627 9.25476C39.9414 9.38763 39.9931 9.99894 39.969 10.4855C39.9568 10.7335 39.8264 10.9557 39.6379 11.1172Z" fill="#FE8900"/>
<path d="M52.521 20.1125C38.1762 22.371 30.0152 37.424 27.7068 44.7755C28.2276 42.968 27.9958 40.9631 27.7706 39.9721C27.7323 39.8034 27.7297 39.6254 27.7724 39.4577C31.8869 23.281 37.5842 14.4 40.2733 11.5652C40.5023 11.3237 40.8448 11.2336 41.1652 11.3232C44.8058 12.3413 43.5116 14.3047 43.8042 14.0986C44.018 13.948 45.4944 14.994 46.4747 15.7387C46.7196 15.9248 46.8588 16.2394 47.0692 16.4637C47.2408 16.6468 47.5012 16.8191 47.7836 16.9695C48.3376 17.2646 49.2181 16.9438 49.775 16.6541C50.532 16.2602 51.622 15.8982 52.3975 15.6795C52.5707 15.6306 52.7193 15.5187 52.8109 15.3638L52.8393 15.3158C53.0232 15.0049 53.4298 14.9112 53.7312 15.1102C53.8958 15.2189 54.0023 15.3975 53.9995 15.5946C53.9844 16.642 53.6304 18.2802 53.3484 19.3821C53.2491 19.7699 52.9164 20.0503 52.521 20.1125Z" fill="#F7CF00"/>
<path d="M47.7482 36.1301C38.0437 35.9547 31.4008 43.4177 28.7544 48.0656C28.4825 48.5432 27.8155 48.6311 27.45 48.2208L27.0119 47.729C26.8198 47.5134 26.9282 47.1709 27.2093 47.1049C27.3814 47.0644 27.5031 46.9109 27.5031 46.734V45.8839C27.5031 45.7215 27.5438 45.5592 27.62 45.4157C35.9027 29.8255 46.883 22.7182 52.1688 20.7535C52.6012 20.5928 53.0327 20.9458 52.9932 21.4053C52.9805 21.5529 52.9177 21.6917 52.8173 21.8005C50.0002 24.8544 48.355 28.7625 47.5917 31.3301C47.3702 32.0754 48.3437 33.015 48.3345 33.7925C48.3334 33.8883 48.3256 33.9864 48.3129 34.0839C48.2661 34.444 48.3642 34.8138 48.4994 35.1508C48.5233 35.2105 48.5432 35.2703 48.5597 35.3295C48.6902 35.7989 48.2353 36.1389 47.7482 36.1301Z" fill="#0B71FB"/>
<path d="M44.159 48.2333C36.8291 46.1049 32.2463 48.0469 30.2321 49.8348C29.8059 50.2131 29.1001 50.1943 28.7809 49.7222C28.5692 49.409 28.6007 48.989 28.8589 48.7128C36.5119 40.5286 44.6038 37.567 48.2912 36.9948C48.6639 36.9369 49.0151 37.1288 49.0906 37.4983C49.233 38.1942 49.2887 39.2591 49.3023 40.0007C49.3066 40.2346 49.2239 40.4605 49.0742 40.6402L45.1476 45.3544C44.9436 45.5993 44.8728 45.9267 44.9321 46.2399C45.0591 46.9103 45.0675 47.4186 45.025 47.781C44.9766 48.1942 44.5585 48.3494 44.159 48.2333Z" fill="#046906"/>
<path d="M40.0718 55.5076C37.0352 52.7842 32.9656 52.1425 30.7346 52.1758C30.3848 52.181 30.0589 51.986 29.9207 51.6646C29.7609 51.2932 29.8951 50.8575 30.2611 50.6855C33.3022 49.2563 38.9168 49.2129 42.6292 49.4559C43.4318 49.5085 43.9246 50.5414 43.6804 51.3077C43.5076 51.8501 43.3815 52.4118 43.2976 52.8854C43.2222 53.3109 42.9355 53.7462 42.662 54.0808C42.3948 54.4076 42.0817 54.8609 41.7881 55.3138C41.4146 55.8901 40.5831 55.9662 40.0718 55.5076Z" fill="#FE0100"/>
<path d="M32.3913 57.458C31.8016 56.8235 31.1928 55.4436 30.7781 54.3192C30.5888 53.8059 30.8985 53.3167 31.4308 53.4428C33.3194 53.8902 36.9684 55.8057 39.4215 57.2062C39.9586 57.5129 40.0782 58.2299 39.679 58.7023L38.4685 60.1347C38.1414 60.5217 37.5767 60.5925 37.0994 60.4222C36.8606 60.3369 36.6037 60.2751 36.3668 60.2751C35.9273 60.2751 35.3386 60.6583 34.9362 60.982C34.7363 61.1427 34.4915 61.2482 34.236 61.2258C33.5195 61.163 32.6312 60.9208 32.9028 60.2751C33.1307 59.7333 33.1064 58.9847 33.0247 58.4116C32.9707 58.0331 32.6515 57.7381 32.3913 57.458Z" fill="#694D00"/>
<path d="M76.596 41V4.922H84.03L87.348 22.184V4.922H94.32V41H87.264L83.652 22.94V41H76.596ZM114.482 41V29.114L108.728 4.922H115.868L117.884 17.144L119.9 4.922H127.04L121.286 29.114V41H114.482ZM150.026 41.336C146.75 41.336 144.384 40.524 142.928 38.9C141.472 37.276 140.744 34.658 140.744 31.046V27.518H147.842V32.012C147.842 33.804 148.416 34.7 149.564 34.7C150.208 34.7 150.656 34.518 150.908 34.154C151.16 33.762 151.286 33.118 151.286 32.222C151.286 31.046 151.146 30.08 150.866 29.324C150.586 28.54 150.222 27.896 149.774 27.392C149.354 26.86 148.584 26.048 147.464 24.956L144.356 21.848C141.948 19.496 140.744 16.892 140.744 14.036C140.744 10.956 141.444 8.618 142.844 7.022C144.272 5.398 146.344 4.586 149.06 4.586C152.308 4.586 154.646 5.454 156.074 7.19C157.502 8.898 158.216 11.586 158.216 15.254H150.866L150.824 12.776C150.824 12.3 150.684 11.922 150.404 11.642C150.152 11.362 149.788 11.222 149.312 11.222C148.752 11.222 148.332 11.376 148.052 11.684C147.772 11.992 147.632 12.412 147.632 12.944C147.632 14.12 148.304 15.338 149.648 16.598L153.848 20.63C154.828 21.582 155.64 22.492 156.284 23.36C156.928 24.2 157.446 25.208 157.838 26.384C158.23 27.532 158.426 28.904 158.426 30.5C158.426 34.056 157.768 36.758 156.452 38.606C155.164 40.426 153.022 41.336 150.026 41.336Z" fill="#0057FF"/>
<path d="M79.618 59.18C78.658 59.18 77.926 58.91 77.422 58.37C76.918 57.818 76.666 57.032 76.666 56.012V46.4H78.646V56.156C78.646 56.588 78.73 56.9 78.898 57.092C79.078 57.284 79.33 57.38 79.654 57.38C79.978 57.38 80.224 57.284 80.392 57.092C80.572 56.9 80.662 56.588 80.662 56.156V46.4H82.57V56.012C82.57 57.032 82.318 57.818 81.814 58.37C81.31 58.91 80.578 59.18 79.618 59.18ZM85.9602 46.4H88.4442L90.3702 53.942H90.4062V46.4H92.1702V59H90.1362L87.7602 49.802H87.7242V59H85.9602V46.4ZM95.6218 46.4H97.6018V59H95.6218V46.4ZM100.543 46.4H102.541L103.837 56.174H103.873L105.169 46.4H106.987L105.079 59H102.451L100.543 46.4ZM109.918 46.4H115.318V48.2H111.898V51.53H114.616V53.33H111.898V57.2H115.318V59H109.918V46.4ZM118.437 46.4H121.371C122.391 46.4 123.135 46.64 123.603 47.12C124.071 47.588 124.305 48.314 124.305 49.298V50.072C124.305 51.38 123.873 52.208 123.009 52.556V52.592C123.489 52.736 123.825 53.03 124.017 53.474C124.221 53.918 124.323 54.512 124.323 55.256V57.47C124.323 57.83 124.335 58.124 124.359 58.352C124.383 58.568 124.443 58.784 124.539 59H122.523C122.451 58.796 122.403 58.604 122.379 58.424C122.355 58.244 122.343 57.92 122.343 57.452V55.148C122.343 54.572 122.247 54.17 122.055 53.942C121.875 53.714 121.557 53.6 121.101 53.6H120.417V59H118.437V46.4ZM121.137 51.8C121.533 51.8 121.827 51.698 122.019 51.494C122.223 51.29 122.325 50.948 122.325 50.468V49.496C122.325 49.04 122.241 48.71 122.073 48.506C121.917 48.302 121.665 48.2 121.317 48.2H120.417V51.8H121.137ZM130.251 59.18C129.291 59.18 128.565 58.91 128.073 58.37C127.581 57.818 127.335 57.032 127.335 56.012V55.292H129.207V56.156C129.207 56.972 129.549 57.38 130.233 57.38C130.569 57.38 130.821 57.284 130.989 57.092C131.169 56.888 131.259 56.564 131.259 56.12C131.259 55.592 131.139 55.13 130.899 54.734C130.659 54.326 130.215 53.84 129.567 53.276C128.751 52.556 128.181 51.908 127.857 51.332C127.533 50.744 127.371 50.084 127.371 49.352C127.371 48.356 127.623 47.588 128.127 47.048C128.631 46.496 129.363 46.22 130.323 46.22C131.271 46.22 131.985 46.496 132.465 47.048C132.957 47.588 133.203 48.368 133.203 49.388V49.91H131.331V49.262C131.331 48.83 131.247 48.518 131.079 48.326C130.911 48.122 130.665 48.02 130.341 48.02C129.681 48.02 129.351 48.422 129.351 49.226C129.351 49.682 129.471 50.108 129.711 50.504C129.963 50.9 130.413 51.38 131.061 51.944C131.889 52.664 132.459 53.318 132.771 53.906C133.083 54.494 133.239 55.184 133.239 55.976C133.239 57.008 132.981 57.8 132.465 58.352C131.961 58.904 131.223 59.18 130.251 59.18ZM136.354 46.4H138.334V59H136.354V46.4ZM143.345 48.2H141.275V46.4H147.395V48.2H145.325V59H143.345V48.2ZM152.222 53.636L149.828 46.4H151.934L153.284 51.026H153.32L154.67 46.4H156.596L154.202 53.636V59H152.222V53.636Z" fill="#FE0100"/>
</svg>
