<svg width="353" height="242" viewBox="0 0 353 242" fill="none" xmlns="http://www.w3.org/2000/svg">
<g clip-path="url(#clip0)">
<path d="M325.207 58.7332C285.142 7.35967 200.507 -13.4797 117.271 8.96479C73.2668 20.8305 30.8386 44.6052 9.81216 90.6407C-27.7748 172.934 51.1438 199.217 102.748 207.593C127.701 211.644 151.202 218.448 172.678 227.711C211.315 244.377 279.705 259.145 331.276 189.724C368.655 139.407 351.894 92.953 325.207 58.7332Z" fill="#F2F2F2"/>
<path d="M92.9244 68.8973C92.8123 68.0808 92.5856 67.2812 92.2501 66.5185C92.2073 66.3743 92.1323 66.2399 92.0301 66.1238C91.9278 66.0077 91.8004 65.9125 91.656 65.8443C91.463 65.7981 91.2606 65.796 91.0665 65.8382L88.0402 66.2649C87.7869 66.2756 87.5444 66.3624 87.3497 66.5122C86.9555 66.8941 87.3437 67.5092 87.3316 68.0362C87.318 68.6288 86.7467 69.1098 86.1271 69.2689C85.4946 69.3866 84.8422 69.3792 84.213 69.247L79.9813 68.6411C81.2276 68.2744 82.3369 67.5923 83.1827 66.6725C83.7396 66.0646 84.0358 64.9297 83.231 64.6418C82.9919 64.5813 82.7425 64.5629 82.496 64.5874C80.5787 64.6012 79.07 63.1261 77.2751 62.5048C76.1264 62.1329 74.8794 62.1053 73.7125 62.4258C72.5457 62.7463 71.5187 63.3986 70.7784 64.2895L73.0327 64.3896C73.2448 64.3788 73.4551 64.4305 73.6332 64.5372C74.1272 64.9112 73.513 65.6296 73.5826 66.2153C73.673 66.9763 74.7695 67.1387 75.596 67.2157C76.4225 67.2926 77.471 67.9114 77.0735 68.5835C72.9193 69.9021 68.6919 66.0061 64.3291 66.4857C63.2249 66.6071 62.1823 67.0068 61.1042 67.2581C54.5186 68.7935 47.7103 64.697 40.9828 65.5645C39.4872 65.7995 38.0173 66.1567 36.5905 66.632C35.6748 66.909 34.7198 67.2084 34.0545 67.8509C33.3892 68.4934 33.136 69.5921 33.7663 70.2639C32.0291 70.3957 30.2804 70.2426 28.6013 69.8115C29.0553 70.0441 29.4331 70.385 29.6948 70.7985C29.9566 71.212 30.0927 71.6828 30.089 72.1614C27.3766 72.569 24.7361 73.3109 22.2384 74.3672C22.7045 75.0815 23.249 75.7499 23.8633 76.3618L20.4295 78.3945C21.5896 78.6639 22.1894 80.1215 21.5147 81.0319C22.7176 80.5388 23.4631 79.2632 24.7494 79.0046C25.5921 78.8351 26.4495 79.1528 27.249 79.4512C28.0484 79.7496 28.927 80.0389 29.7546 79.815C30.5821 79.591 31.1926 78.6022 30.6667 77.9722C34.2039 77.0212 37.8596 76.495 41.5431 76.4064C41.8272 76.3736 42.1154 76.424 42.3668 76.5505C42.8463 76.857 42.7201 77.5191 42.6943 78.0564C42.6685 78.5936 43.1229 79.2997 43.644 79.0575C43.0309 79.5474 43.555 80.4695 44.1431 80.9847C44.7313 81.4998 45.4402 82.2105 45.0801 82.8806C44.9861 83.0555 44.8267 83.1954 44.7363 83.3719C44.4694 83.8928 44.8932 84.5 45.393 84.8459C45.8929 85.1918 46.5052 85.4336 46.8524 85.9126C47.1996 86.3916 47.0419 87.23 46.4211 87.2969L44.6563 85.2322C44.0533 85.8083 43.6399 86.5301 43.4641 87.3139C45.3355 88.7236 45.617 91.593 44.0503 93.289C43.2496 94.1558 42.111 94.6825 41.1173 95.3585C40.1236 96.0346 39.2041 96.9973 39.2066 98.1355C39.2109 100.102 39.0365 101.929 39.8362 103.752C41.3108 107.114 43.0133 110.387 44.9336 113.552C45.4379 114.383 46.0896 115.294 47.1112 115.437C45.8201 112.541 44.6579 109.599 43.6245 106.613C44.2976 106.615 45.0754 106.665 45.4699 107.167C45.7967 107.583 45.7265 108.149 45.828 108.654C45.9571 109.143 46.1724 109.609 46.4654 110.035L52.6305 120.154C53.1416 120.993 53.7279 121.893 54.7046 122.233C55.3291 122.45 56.0517 122.409 56.6265 122.722C57.077 122.967 57.3805 123.402 57.8398 123.633C59.1385 124.286 60.9445 123.034 62.1582 123.814C62.5052 124.036 62.726 124.39 63.0458 124.646C64.1667 125.54 66.0056 124.942 67.2996 125.609C68.1335 126.039 68.5658 126.899 69.0106 127.679C70.1248 129.631 71.9277 131.544 74.3156 131.699C75.0657 131.748 75.8319 131.617 76.5651 131.771C77.2983 131.924 78.0201 132.514 77.9024 133.198C77.7006 134.372 78.3297 135.656 78.1607 136.834C77.853 138.979 74.5509 139.922 74.2673 142.07C74.2052 142.54 74.3024 143.025 74.1809 143.486C74.0319 144.05 73.5721 144.509 73.4087 145.07C73.099 146.133 73.9253 147.191 74.8331 147.906C75.7408 148.621 76.8236 149.237 77.3198 150.238C77.8444 151.296 77.5867 152.529 77.7573 153.682C78.1297 156.198 80.4879 158.063 82.9148 159.265C83.6543 159.632 84.4482 159.986 84.9268 160.622C85.5514 161.452 85.4892 162.545 85.6978 163.537C86.2086 165.964 88.4265 167.965 88.4895 170.437C88.5342 172.194 87.4742 173.788 86.841 175.446C86.2474 177.035 86.0325 178.722 86.2112 180.394C86.3899 182.066 86.9578 183.683 87.8763 185.135C88.35 185.872 88.9165 186.566 89.2516 187.365C89.8495 188.791 89.6555 190.412 90.2068 191.854C90.9358 193.76 92.9387 195.334 92.747 197.347C93.6563 199.087 95.6642 199.942 97.6833 200.46L101.302 201.388C101.995 201.566 102.719 201.745 103.424 201.617C104.13 201.488 104.803 200.948 104.785 200.286C103.011 199.917 101.179 199.525 99.7163 198.528C98.2535 197.532 97.2514 195.757 97.8064 194.161C98.0638 193.421 98.6113 192.566 98.0908 191.954C97.7927 191.604 97.2477 191.513 96.9116 191.193C96.3872 190.695 96.5674 189.858 96.9443 189.257C97.3213 188.656 97.8661 188.119 98.0182 187.439C98.0949 187.059 98.0436 186.666 97.8712 186.313C97.6988 185.96 97.4134 185.665 97.0534 185.466C97.7243 185.232 98.3346 184.871 98.8445 184.407C99.3155 183.911 99.5331 183.147 99.1625 182.583C100.263 182.712 101.562 182.775 102.284 181.999C102.861 181.38 102.821 180.454 102.593 179.665C102.366 178.877 101.98 178.111 101.968 177.295C104.507 177.406 107.05 177.326 109.575 177.057C109.21 175.924 108.38 174.967 107.262 174.388C108.405 174.21 109.447 172.949 109.808 171.934C110.169 170.918 110.077 169.812 109.854 168.764C109.768 168.494 109.756 168.209 109.82 167.934C109.948 167.556 110.351 167.325 110.724 167.128L116.399 164.124C116.737 163.968 117.044 163.759 117.306 163.507C117.901 162.864 117.813 161.892 117.508 161.095C117.204 160.298 116.716 159.548 116.599 158.71C116.248 156.203 119.16 154.405 120.143 152.045C120.529 151.119 120.608 150.112 120.682 149.123C120.762 148.06 120.768 146.826 119.883 146.141C119.034 145.484 117.707 145.631 116.819 145.02C116.005 144.46 115.724 143.373 114.834 142.921C114.026 142.51 113.013 142.771 112.115 142.578C110.532 142.238 109.537 140.558 107.921 140.402C107.009 140.314 105.977 140.725 105.23 140.236C104.572 139.805 104.545 138.938 104.42 138.203C104.2 137.06 103.606 136.007 102.717 135.185C101.828 134.363 100.687 133.812 99.4474 133.606C98.5074 133.467 97.4842 133.52 96.6845 133.044C95.8748 132.562 95.5035 131.659 94.8674 130.992C93.8423 129.916 92.2278 129.534 90.7153 129.206L84.5634 127.874C83.4713 127.637 82.0636 127.512 81.4775 128.393C81.304 128.729 81.1812 129.085 81.1125 129.451C80.8929 130.114 80.451 130.695 79.8502 131.112C79.2495 131.528 78.5208 131.759 77.769 131.77C77.2534 130.959 76.4181 130.364 75.4374 130.107C74.8136 129.947 74.1459 129.929 73.5509 129.694C73.2269 129.548 72.9386 129.343 72.7036 129.091C72.4686 128.839 72.2918 128.545 72.1842 128.228C72.0766 127.911 72.0403 127.577 72.0776 127.247C72.1149 126.916 72.225 126.596 72.4011 126.306C72.7558 125.725 72.8928 125.051 72.7909 124.391C72.689 123.73 72.354 123.118 71.8374 122.65C70.7912 121.785 69.2779 121.576 67.875 121.662C67.5076 120.924 68.1219 120.09 68.7839 119.553C69.4459 119.016 70.2498 118.489 70.394 117.687C70.6208 116.426 68.8746 115.468 67.5488 115.844C66.223 116.22 65.3768 117.407 64.8175 118.577C64.4965 119.248 64.2237 119.954 63.7174 120.52C63.2112 121.086 62.3959 121.491 61.6248 121.31C60.5331 121.053 60.1115 119.858 59.8699 118.843C59.5457 117.483 59.2196 116.103 59.2876 114.712C59.3555 113.32 59.8646 111.891 60.9783 110.949C62.793 109.414 65.5769 109.564 68.026 109.809C67.4474 109.208 67.5904 108.196 68.2095 107.631C68.5363 107.363 68.929 107.173 69.3536 107.077C69.7781 106.981 70.2217 106.981 70.6459 107.079C71.3839 107.221 72.0487 107.587 72.5333 108.119C73.2293 108.901 73.4272 109.956 73.9533 110.844C74.4793 111.731 75.6622 112.488 76.6304 112.012C77.4666 111.601 77.5994 110.533 77.3912 109.68C77.1831 108.828 76.7411 108 76.8165 107.129C76.9603 105.468 78.8293 104.467 80.4786 103.783C82.1278 103.099 84.0163 102.179 84.2776 100.53C84.2866 100.207 84.3527 99.8874 84.4733 99.5841C84.6562 99.3163 84.9104 99.096 85.2118 98.9442C90.0252 96.013 94.9187 93.046 100.42 91.4444C100.706 91.361 100.74 91.4536 101.032 91.3883C101.44 91.1709 101.169 90.5695 100.778 90.3272C100.387 90.0849 99.8635 89.8991 99.7642 89.4743C99.6912 89.1621 99.8908 88.8555 99.9427 88.5397C100.07 87.7637 99.0627 87.0473 98.2803 87.3575C97.8384 86.8182 98.7128 86.1916 99.4199 86.0122C101.543 85.4737 103.723 85.1457 105.921 85.0335C106.175 84.9963 106.435 85.0371 106.661 85.1495C107.03 85.3852 106.983 85.9259 106.722 86.2623C106.46 86.5988 106.053 86.81 105.727 87.0947C105.37 87.4146 105.116 87.8185 104.992 88.2624C104.868 88.7063 104.878 89.1731 105.022 89.6118C106.17 90.1499 107.418 90.7037 108.689 90.5142C109.96 90.3246 111.089 89.0084 110.491 87.9572C109.935 86.9783 108.263 86.7575 107.976 85.6846C107.639 84.4284 109.569 83.3112 109.134 82.0809C108.944 81.542 108.361 81.2249 107.914 80.8358C107.386 80.3587 107.026 79.7457 106.883 79.0771C106.74 78.4084 106.82 77.7156 107.111 77.0894C106.383 77.2075 105.634 77.1629 104.929 76.9593C104.223 76.7558 103.58 76.3992 103.054 75.9195C102.084 75.0171 101.31 73.5936 99.932 73.6339C98.6674 73.671 97.5783 75.0304 96.3959 74.6157C96.105 74.5136 95.7983 74.306 95.5164 74.4276C95.4241 74.4829 95.3465 74.5568 95.2897 74.6437C95.2329 74.7306 95.1982 74.8283 95.1884 74.9294C94.8879 76.2532 95.4048 77.7614 94.6218 78.9053C93.7698 80.1501 91.7991 80.3227 90.7661 81.4452C90.2054 82.0545 89.9882 82.8756 89.4728 83.518C88.9574 84.1604 87.8636 84.5688 87.2451 84.009C87.549 83.4332 87.632 82.7793 87.4805 82.1544C87.329 81.5295 86.9519 80.9704 86.4109 80.5685C85.8367 80.2233 85.2177 79.9458 84.5684 79.7427C83.843 79.4597 83.1529 79.1053 82.5101 78.6856C82.1881 78.5066 81.9265 78.2487 81.7545 77.9406C81.6184 77.5548 81.6367 77.1368 81.8062 76.7624C82.1198 75.9339 82.6731 75.2 83.4063 74.64C84.1395 74.08 85.0247 73.7152 85.9665 73.5849C86.79 73.4817 87.7485 73.5181 88.2934 72.9399C88.5818 72.634 88.7331 72.1714 89.1517 72.0472C89.4194 71.9976 89.6974 72.0292 89.944 72.1371L93.0178 73.1341C93.3607 73.2767 93.7382 73.3342 94.1128 73.3009C94.2985 73.2779 94.4679 73.191 94.5869 73.0576C94.706 72.9243 94.7659 72.7544 94.7547 72.582C94.6565 72.1117 93.8711 71.886 93.9425 71.4115C93.9826 71.2578 94.0723 71.1188 94.1998 71.013C95.3091 69.9251 96.6656 69.0766 98.1724 68.5283C99.6792 67.98 101.299 67.7455 102.916 67.8415C103.304 68.4286 102.69 69.1239 102.179 69.6251C101.669 70.1263 101.259 71.0219 101.876 71.4077C102.129 71.5267 102.411 71.5851 102.695 71.5776C103.451 71.6719 104.187 71.8775 104.873 72.1864C105.935 72.6123 106.977 73.0784 107.998 73.5845C107.908 72.9639 107.822 72.3102 108.077 71.7299C108.332 71.1497 109.058 70.6946 109.691 70.9205C110.302 71.1383 110.615 71.8834 111.266 71.9517C112.134 72.0428 112.476 70.8613 112.114 70.129C111.751 69.3967 111.034 68.7835 110.974 67.9805C110.933 67.4388 111.157 66.7669 110.687 66.4389C110.52 66.3404 110.331 66.2791 110.133 66.2598L98.4075 64.2715C97.7112 64.1535 96.7052 64.244 96.6743 64.8957C96.6571 65.2596 97.0098 65.6195 96.8536 65.954C96.6868 66.311 96.1392 66.2783 95.7403 66.4046C95.1213 66.6005 94.8107 67.2778 94.8702 67.8783C94.979 68.4751 95.2298 69.0423 95.6046 69.5391C94.8419 69.2452 93.6871 69.1912 92.9244 68.8973Z" fill="#0B71FB"/>
<path d="M83.5684 59.7251C82.8289 59.4997 82.0322 59.4892 81.2861 59.6951C80.5399 59.901 79.8806 60.3133 79.3974 60.8762C79.2043 61.1104 79.0422 61.4333 79.2038 61.687C79.4355 62.0506 80.026 61.907 80.4613 61.7769C81.1012 61.5663 81.7976 61.5509 82.4477 61.7332C82.8564 61.8626 83.2221 62.0911 83.6327 62.2156C83.8326 62.2926 84.0514 62.318 84.2657 62.2892C84.4801 62.2603 84.6819 62.1782 84.8495 62.0517C85.1312 61.7869 85.1489 61.3752 85.1494 61.0044C85.169 60.8803 85.1582 60.7537 85.1179 60.634C85.0776 60.5142 85.0088 60.4042 84.9165 60.3121C84.7521 60.2244 84.5675 60.1741 84.3778 60.1653C83.953 60.0928 83.569 59.886 83.2919 59.5806" fill="#0B71FB"/>
<path d="M87.7964 58.6405C87.631 58.6322 87.466 58.6632 87.3173 58.7307C87.1686 58.7981 87.0413 58.8997 86.9475 59.0256C86.8537 59.1515 86.7967 59.2975 86.7819 59.4496C86.767 59.6017 86.7949 59.7547 86.8628 59.894C87.371 60.0217 87.9019 60.0536 88.4238 59.9878C88.6841 59.9506 88.9266 59.8432 89.1208 59.6791C89.315 59.5151 89.4521 59.3018 89.5149 59.066C88.9004 59.1691 88.2664 59.0575 87.7364 58.7531" fill="#0B71FB"/>
<path d="M101.982 56.8288C100.599 57.0998 99.2554 57.5203 97.9793 58.0818C98.5809 58.2948 99.0922 58.6804 99.4381 59.1815C99.7839 59.6826 99.9459 60.2729 99.9001 60.8652C99.8461 61.0927 99.8524 61.3287 99.9183 61.5534C100.065 61.8818 100.491 62.0051 100.866 62.0894C101.539 62.2781 102.241 62.3607 102.944 62.3338C103.296 62.3168 103.637 62.2194 103.937 62.0503C104.238 61.8811 104.488 61.6457 104.664 61.3651C104.766 61.0989 104.886 60.8387 105.022 60.5859C105.92 59.3261 108.587 60.8494 109.55 59.6318C109.89 59.2029 109.859 58.5572 110.301 58.2173C110.53 58.0692 110.796 57.9759 111.074 57.9458C113.012 57.591 114.97 57.334 116.938 57.1761C117.871 57.1013 119.087 56.7927 119.095 55.9299C115.581 55.2941 111.938 55.7457 108.732 57.2145C107.577 57.7477 106.049 58.8692 104.936 58.1624C104.52 57.8977 104.54 57.1851 103.967 56.8875C103.38 56.5832 102.604 56.707 101.982 56.8288Z" fill="#0B71FB"/>
<path d="M113.472 58.8088L115.122 59.1008C114.818 59.0885 114.515 59.1359 114.233 59.2399C113.951 59.344 113.696 59.5023 113.486 59.7042C113.275 59.9062 113.114 60.1472 113.012 60.4112C112.911 60.6752 112.872 60.9561 112.898 61.2351C114.442 61.7105 116.126 61.2479 117.753 61.3111C119.38 61.3743 121.273 62.4452 120.995 63.9237C120.911 64.3708 120.631 64.8176 120.777 65.2509C120.879 65.5547 121.17 65.7702 121.334 66.05C121.676 66.6329 121.402 67.3703 120.971 67.9002C120.539 68.4301 119.958 68.853 119.579 69.4161C118.637 70.8168 119.172 72.6276 119.734 74.1924C119.896 74.7836 120.196 75.3353 120.613 75.8093C121.444 76.6244 122.8 76.6953 124.014 76.7116C124.898 76.7235 125.91 76.6832 126.469 76.0523C127.199 75.2287 126.688 73.9436 127.169 72.9769C127.605 72.0989 128.716 71.7223 129.723 71.4552C131.568 70.9658 133.448 70.5497 135.192 69.8105C137.358 68.8926 139.382 67.4621 141.763 67.3439C142.43 67.3108 143.115 67.3834 143.758 67.2148C144.401 67.0462 145.012 66.5337 144.964 65.9191C144.922 65.394 144.44 65.0083 144.063 64.6125C143.686 64.2166 143.39 63.6078 143.737 63.189L149.976 62.1151C149.534 61.0045 149.189 59.5417 150.206 58.8188C150.572 58.558 151.063 58.4537 151.375 58.1384C151.907 57.6009 151.64 56.6751 151.026 56.218C150.411 55.761 149.581 55.6548 148.794 55.5946C146.058 55.3853 143.307 55.5236 140.566 55.6621C135.207 55.9327 129.849 56.2033 124.491 56.474C123.412 56.5285 122.167 56.4452 121.178 56.7843C120.34 57.0714 119.745 57.5984 118.787 57.7835C117.018 58.1253 115.073 57.894 113.472 58.8088Z" fill="#0B71FB"/>
<path d="M143.019 70.8216C142.851 70.7971 142.679 70.833 142.539 70.9219C142.447 71.0159 142.391 71.1362 142.383 71.263C142.276 71.8225 142.403 72.3984 142.738 72.8754C142.909 73.1094 143.144 73.297 143.42 73.4189C143.696 73.5407 144.002 73.5923 144.307 73.5683C145.049 73.481 145.596 72.8972 146.279 72.6123C147.332 72.1737 151.8 71.4898 148.709 69.9508C147.644 69.4205 146.955 69.8887 146.116 70.2379C145.16 70.6883 144.09 70.8901 143.019 70.8216Z" fill="#0B71FB"/>
<path d="M170.096 57.9399C169.735 58.0758 169.433 58.318 169.237 58.6288C169.147 58.7865 169.126 58.9702 169.178 59.1418C169.231 59.3134 169.353 59.4598 169.52 59.5507C169.655 59.5958 169.797 59.6167 169.941 59.6123L171.409 59.6527C172.032 59.6698 172.811 59.7922 172.978 60.3459C173.103 60.757 172.824 61.2853 173.16 61.5791C173.305 61.682 173.478 61.7443 173.66 61.7586C174.143 61.873 174.648 61.888 175.139 61.8025C176.206 61.5386 175.645 60.938 175.982 60.4032C176.496 59.5849 176.407 60.0803 177.314 59.6113C177.984 59.265 178.849 58.6367 178.29 57.754C177.318 56.219 171.53 57.2805 170.096 57.9399Z" fill="#0B71FB"/>
<path d="M199.065 57.1683L198.213 57.2731C196.291 57.5094 194.358 57.7479 192.507 58.2797C193.308 58.5716 194.149 58.7617 195.006 58.8447C195.477 58.866 195.946 58.9274 196.405 59.0281C197.223 59.2523 198.047 59.8315 198.837 59.5348C199.326 59.3509 199.486 58.881 199.892 58.6319C200.172 58.46 201.234 58.1817 201.353 58.0081C202.313 56.605 199.803 57.0775 199.065 57.1683Z" fill="#0B71FB"/>
<path d="M202.807 60.7375C201.669 61.3241 200.613 62.0369 199.662 62.8599C199.262 63.2068 198.853 63.6382 198.889 64.1435C198.937 64.8151 199.714 65.2047 200.386 65.4671L203.111 66.53C203.441 66.1008 203.139 65.5082 202.797 65.0864C202.456 64.6645 202.05 64.1765 202.201 63.6688C202.373 63.0895 203.139 62.8921 203.782 62.7923C204.829 62.6297 207.654 62.6428 207.315 61.0875C206.915 59.255 203.858 60.1961 202.807 60.7375Z" fill="#0B71FB"/>
<path d="M202.259 164.443C202 165.135 201.975 165.95 202.424 166.554C202.927 167.232 203.935 167.485 204.807 167.313C205.675 167.1 206.448 166.642 207.019 166.002C207.54 165.467 207.97 164.86 208.291 164.204C208.74 163.182 209.057 162.115 209.234 161.024L210.08 156.932C210.269 156.017 210.262 153.213 208.438 154.127C207.939 154.376 206.785 156.347 206.263 156.906C205.322 157.913 205.197 158.89 204.701 160.11C204.081 161.639 202.833 162.912 202.259 164.443Z" fill="#0B71FB"/>
<path d="M298.619 185.386C298.022 185.172 297.442 184.918 296.885 184.626C296.326 186.042 296.029 187.533 296.006 189.04L300.091 186.91C300.706 186.589 301.402 186.144 301.389 185.493C301.395 185.413 301.377 185.333 301.337 185.261C301.297 185.189 301.237 185.129 301.163 185.086C301.073 185.052 300.974 185.042 300.877 185.055C300.271 185.102 299.719 185.376 299.148 185.567C298.576 185.758 297.908 185.859 297.384 185.576" fill="#0B71FB"/>
<path d="M320.168 186.651C319.72 186.764 319.282 186.908 318.858 187.084C317.921 187.524 317.283 188.359 316.439 188.937C315.632 189.491 314.66 189.796 313.706 190.091C313.426 190.32 313.555 190.78 313.859 190.981C314.187 191.153 314.562 191.23 314.938 191.204C315.929 191.225 316.973 191.233 317.841 190.792C318.331 190.5 318.788 190.165 319.208 189.793C320.223 189.012 321.442 188.497 322.649 188C323.088 187.847 323.494 187.623 323.848 187.339C324.606 186.651 324.659 185.589 323.566 185.355C322.683 185.165 321.009 186.4 320.168 186.651Z" fill="#0B71FB"/>
<path d="M329.689 180.92C329.738 180.446 329.67 179.969 329.489 179.523C329.309 179.077 329.021 178.675 328.647 178.347C328.635 179.295 328.604 180.304 328.026 181.088C327.614 181.646 326.968 182.023 326.516 182.555C326.065 183.087 325.864 183.93 326.394 184.396C326.732 184.634 327.145 184.765 327.57 184.77C328.624 184.884 329.844 184.948 330.584 184.246C330.987 183.863 331.184 183.296 331.676 183.014C331.859 182.943 332.023 182.835 332.155 182.698C332.358 182.4 332.035 182.008 331.672 181.901C331.308 181.794 330.908 181.844 330.542 181.742C330.177 181.64 329.842 181.262 330.029 180.955" fill="#0B71FB"/>
<path d="M312.767 146.178C312.214 146.302 311.641 146.333 311.076 146.27C310.138 146.111 309.407 145.459 308.649 144.924C306.848 143.661 304.659 142.956 302.395 142.911C300.337 142.875 298.259 143.389 296.236 143.03C296.369 143.708 296.997 144.215 297.668 144.517C298.339 144.819 299.08 144.971 299.754 145.267C300.833 145.745 301.69 146.566 302.166 147.579C302.383 148.046 302.519 148.554 302.848 148.962C303.52 149.795 304.795 149.978 305.919 149.91C307.385 149.821 308.916 149.433 310.28 149.936C311.324 150.321 312.071 151.163 312.942 151.817C313.813 152.471 315.04 152.957 316.04 152.485C315.001 152.175 314.097 151.567 313.459 150.75C312.822 149.933 312.484 148.949 312.496 147.943C313.477 148.026 316.303 147.994 316.151 146.457C316.022 145.155 313.609 146.037 312.767 146.178Z" fill="#0B71FB"/>
<path d="M299.931 156.771C300.106 155.89 301.058 155.113 300.762 154.26C300.556 153.671 299.815 153.38 299.143 153.366C298.472 153.351 297.812 153.535 297.141 153.553C296.704 153.531 296.266 153.537 295.829 153.57C294.497 153.772 293.675 155.059 292.419 155.517C291.655 155.795 290.797 155.742 290.003 155.934C288.2 156.371 287.059 157.941 285.799 159.207C283.762 161.243 281.109 162.669 278.183 163.299C277.158 163.518 276.056 163.658 275.241 164.272C274.162 165.084 273.896 166.477 273.656 167.742C272.993 171.235 271.979 174.664 270.628 177.985L274.909 178.488C275.723 178.584 276.567 178.678 277.351 178.456C277.921 178.258 278.461 177.993 278.957 177.667C280.864 176.576 282.998 175.867 285.221 175.584C286.343 175.442 287.518 175.416 288.57 175.8C289.622 176.184 290.525 177.055 290.613 178.094C291.068 177.964 291.553 177.95 292.016 178.054C292.479 178.157 292.903 178.375 293.242 178.684C293.912 179.313 294.351 180.121 294.497 180.992C294.61 181.532 294.723 182.179 295.266 182.405C295.71 182.59 296.218 182.391 296.703 182.355C298.349 182.234 299.715 184.002 301.333 183.698C303.068 183.371 303.494 180.977 305.187 180.497C306.159 180.222 307.523 180.556 307.988 179.723C308.399 178.989 307.58 178.141 307.665 177.319C307.768 176.306 309.065 175.876 310.064 175.444C313.51 173.954 315.145 169.681 313.475 166.53C312.486 164.663 310.539 163.193 310.18 161.141C309.903 159.563 310.579 157.723 309.487 156.481C308.931 155.849 307.991 155.5 307.66 154.746C307.452 154.271 307.536 153.733 307.424 153.231C307.312 152.73 306.837 152.205 306.3 152.335C304.74 152.713 304.242 157.153 303.407 158.231C302.138 159.871 299.532 158.791 299.931 156.771Z" fill="#0B71FB"/>
<path d="M271.102 147.855C270.569 147.717 269.987 147.582 269.476 147.779C268.965 147.975 268.667 148.666 269.077 149.009C272.283 148.894 275.51 148.78 278.689 149.181C282.352 149.643 285.978 150.789 289.657 150.452C287.555 149.88 285.419 149.424 283.259 149.084L279.657 148.45C278.691 148.263 277.714 148.124 276.732 148.033C274.677 147.877 273.122 148.377 271.102 147.855Z" fill="#0B71FB"/>
<path d="M274.312 137.564C274.046 137.544 273.716 137.526 273.578 137.737C273.447 137.938 273.597 138.205 273.526 138.431C273.43 138.739 272.991 138.818 272.645 138.776C272.3 138.734 271.926 138.633 271.62 138.787C271.464 138.885 271.347 139.026 271.287 139.19C271.226 139.354 271.225 139.532 271.283 139.697C271.409 140.024 271.611 140.322 271.876 140.568C272.329 141.094 272.845 141.571 273.415 141.99C274.517 142.739 276.01 143.101 276.704 144.189C276.802 144.4 276.953 144.587 277.143 144.734C277.477 144.928 277.911 144.78 278.27 144.629L279.528 144.1C279.754 144.025 279.956 143.898 280.116 143.731C280.403 143.372 280.226 142.861 279.985 142.474C279.744 142.087 279.435 141.687 279.487 141.243C279.579 140.452 280.683 140.149 281.137 139.472C281.595 138.79 281.297 137.911 281.35 137.11C281.411 136.174 282.05 134.956 281.023 134.257C280.15 133.662 279.315 134.211 278.688 134.868C277.367 136.252 276.742 137.751 274.312 137.564Z" fill="#0B71FB"/>
<path d="M281.946 123.575C282.375 124.332 283.27 124.784 283.739 125.522C284.246 126.322 284.188 127.355 284.739 128.13C285.304 128.925 286.44 129.347 286.757 130.252C287.103 131.239 286.318 132.439 286.944 133.302C287.061 133.443 287.208 133.56 287.376 133.646C287.545 133.732 287.73 133.785 287.922 133.801C288.114 133.817 288.307 133.797 288.489 133.741C288.672 133.684 288.84 133.594 288.982 133.475C289.246 133.21 289.387 132.861 289.376 132.502C289.364 132.143 289.201 131.802 288.921 131.552C288.55 131.241 288.019 131.107 287.709 130.743C287.548 130.534 287.441 130.293 287.396 130.04C287.227 129.308 287.254 128.55 287.474 127.831C287.557 127.648 287.578 127.447 287.535 127.253C287.395 126.88 286.847 126.854 286.463 126.681C285.589 126.288 285.611 125.152 285.763 124.268C285.662 124.857 283.385 123.855 283.147 123.522C282.673 122.859 282.931 121.581 282.837 120.849C281.815 121.302 281.421 122.648 281.946 123.575Z" fill="#0B71FB"/>
<path d="M259.014 135.23C258.594 134.797 257.961 134.344 257.397 134.605C256.968 134.804 256.849 135.352 257.018 135.768C257.223 136.171 257.539 136.518 257.934 136.774C259.108 137.667 260.372 138.472 261.396 139.509C263.229 141.364 264.2 143.868 266.193 145.578C266.593 145.974 267.124 146.239 267.703 146.331C268.284 146.381 268.936 146.038 269.002 145.505C269.057 145.065 268.725 144.671 268.4 144.345C267.625 143.569 266.778 142.855 266.047 142.044C265.709 141.733 265.497 141.325 265.446 140.887C265.442 140.451 265.874 139.994 266.333 140.102C265.775 139.97 265.361 139.113 264.541 138.952C263.856 138.817 263.691 139.208 262.876 138.886C261.322 138.272 260.102 136.353 259.014 135.23Z" fill="#0B71FB"/>
<path d="M295.535 93.0306C295.089 92.9085 294.651 92.7642 294.222 92.5984C293.068 92.2792 291.541 93.0608 291.695 94.162C291.797 94.8937 292.536 95.3869 292.944 96.0216C293.549 96.9627 293.388 98.1565 293.07 99.2105C292.992 99.5368 292.843 99.8454 292.633 100.118C292.34 100.405 291.989 100.638 291.599 100.803C290.041 101.609 288.666 102.684 287.552 103.972C287.431 104.09 287.347 104.237 287.308 104.396C287.253 104.768 287.658 105.039 287.888 105.349C288.397 106.038 288.029 106.965 288.079 107.797C288.071 107.915 288.096 108.032 288.152 108.138C288.207 108.245 288.291 108.336 288.396 108.404C288.703 108.548 289.066 108.304 289.233 108.026C289.785 107.104 289.369 105.624 290.405 105.18C290.601 105.096 290.838 105.06 290.969 104.902C291.177 104.65 290.976 104.277 291.082 103.977C291.239 103.525 291.91 103.505 292.424 103.525C293.31 103.559 294.196 103.45 295.041 103.204C295.373 103.131 295.674 102.97 295.908 102.741C296.218 102.385 296.19 101.879 296.128 101.426C295.818 99.1688 295.042 96.9871 293.842 94.9986C294.752 95.1057 295.742 95.1985 296.528 94.7615C296.967 94.5168 297.495 93.785 297.276 93.2869C296.932 92.4993 296.309 93.1623 295.535 93.0306Z" fill="#0B71FB"/>
<path d="M178.874 105.445C178.983 105.983 179.09 106.55 178.899 107.068C178.708 107.587 178.105 108.02 177.537 107.861C177.096 107.738 176.841 107.329 176.527 107.017C174.785 105.284 170.853 106.287 169.777 104.143C169.338 103.268 169.636 102.219 169.337 101.295C169.147 100.761 168.771 100.3 168.267 99.9843C167.763 99.6687 167.159 99.5163 166.551 99.5511C165.996 99.625 165.456 99.7736 164.948 99.9921C161.544 101.248 157.971 102.072 154.327 102.44C153.634 102.479 152.949 102.594 152.286 102.782C150.79 103.282 149.767 104.56 149.04 105.865C148.312 107.169 147.775 108.582 146.799 109.741C145.774 110.959 144.337 111.811 142.997 112.734C142.481 113.041 142.051 113.456 141.743 113.945C141.452 114.495 141.469 115.134 141.491 115.745L141.765 123.166C141.8 124.121 141.845 125.11 142.308 125.964C142.887 127.03 144.031 127.729 144.824 128.671C145.634 129.64 146.056 130.836 146.018 132.058C146.001 132.549 145.948 133.13 146.364 133.439C146.616 133.59 146.912 133.668 147.213 133.664L158.107 134.486C160.023 134.63 162.147 134.868 163.398 136.213C163.989 136.848 164.463 137.761 165.367 137.829C165.755 137.858 166.133 137.712 166.521 137.683C167.5 137.612 168.36 138.297 168.902 139.051C169.724 140.2 170.097 141.573 169.96 142.943C169.871 143.804 169.581 144.64 169.519 145.502C169.282 148.783 172.3 151.634 172.358 154.921C172.393 156.855 171.397 158.662 170.425 160.377C171.993 162.565 170.709 165.479 171.333 168.038C171.925 170.465 174.122 172.365 174.669 174.801C174.919 175.916 174.934 177.289 176.001 177.863C176.47 178.073 176.989 178.169 177.509 178.141C180.646 178.175 183.747 177.525 186.559 176.243C187.878 175.639 189.246 174.738 189.476 173.398C189.662 172.316 189.067 171.107 189.673 170.165C190.387 169.055 192.215 169.143 193.265 168.289C194.969 166.905 193.64 164.264 194.331 162.27C194.951 160.478 197.087 159.525 198.146 157.916C198.562 157.225 198.861 156.478 199.032 155.702C199.517 153.849 199.819 151.959 199.934 150.055C199.963 148.899 200.055 147.744 200.212 146.597C201.353 140.062 208.364 135.686 210.64 129.408C210.858 128.809 210.96 128.01 210.381 127.671C210.037 127.52 209.648 127.483 209.279 127.565L204.257 128.148C203.633 128.221 202.972 128.288 202.399 128.05C201.826 127.811 201.415 127.143 201.719 126.636C202.572 125.212 200.818 123.413 200.038 121.954C197.939 118.026 195.439 114.29 192.572 110.797C192.389 110.618 192.274 110.388 192.245 110.143L193.67 110.186C193.189 108.595 192.395 106.855 190.718 106.273C189.773 105.945 188.726 106.058 187.718 106.109C184.83 106.254 181.733 105.853 178.874 105.445Z" fill="#0B71FB"/>
<path d="M187.72 69.5958C188.476 70.3354 189.323 71.1195 190.417 71.2484C192.348 71.4762 193.737 69.6357 194.621 68.037C194.654 68.4446 194.858 68.8243 195.19 69.0954C195.521 69.3665 195.955 69.5076 196.398 69.4887C196.875 69.4148 197.33 69.2509 197.735 69.0072C201.561 67.0801 205.848 66.059 210.209 66.0357C210.167 65.7313 210.249 65.4234 210.439 65.1714C210.629 64.9194 210.913 64.7411 211.238 64.6711C212.124 64.5091 212.923 65.2155 213.351 65.9493C213.778 66.683 214.045 67.5336 214.725 68.0828C215.404 68.6321 216.72 68.6081 216.988 67.8128C217.246 67.0492 216.383 66.398 215.666 65.9478C214.948 65.4976 214.192 64.6644 214.675 64C218.34 63.2526 222.026 62.5024 225.776 62.3538C226.414 62.3743 227.05 62.2734 227.644 62.0572C228.216 61.7987 228.671 61.2118 228.517 60.6422C227.699 60.8194 226.842 60.7681 226.055 60.4948C225.269 60.2214 224.589 59.7385 224.101 59.1075C229.304 58.7118 234.837 58.3746 239.448 60.6304C240.001 61.7249 237.181 62.6355 237.936 63.6227C238.176 63.9375 238.659 63.9744 239.076 63.9816C242.28 64.0364 245.503 64.0901 248.671 63.6444C249.828 63.4815 250.998 63.2516 252.16 63.3837C254.096 63.6037 255.752 64.7939 257.656 65.182C258.432 65.3399 259.301 65.3453 259.954 64.9298C260.608 64.5144 260.888 63.5684 260.353 63.0283C262.146 61.4088 265.122 61.8101 267.488 62.5855C269.854 63.3608 272.095 64.6112 274.599 64.784C276.394 64.9079 278.215 64.4629 279.989 64.7458C281.104 64.9235 282.142 65.3806 283.231 65.6614C285.292 66.1924 287.472 66.0803 289.612 66.1059C295.072 66.1737 300.472 67.1624 305.545 69.0232C306.205 69.2212 306.809 69.5503 307.316 69.9874C307.788 70.4532 308.029 71.177 307.711 71.7433L302.469 71.0375C302.963 71.9335 304.241 72.0861 305.279 72.3952C306.316 72.7043 307.392 73.7602 306.769 74.5846C305.644 74.2548 304.625 75.2906 304.057 76.2436C303.489 77.1967 302.797 78.338 301.619 78.3961C300.564 78.4481 299.288 77.6202 298.6 78.3594C299.55 79.4639 300.364 80.6625 301.026 81.933C301.705 83.2373 302.189 84.8809 301.271 86.0544C301.127 86.2639 300.907 86.4205 300.651 86.4973C299.901 86.6722 299.414 85.8268 298.876 85.3143C298.198 84.6686 297.173 84.4857 296.255 84.1828C295.338 83.88 294.371 83.2842 294.299 82.3883C294.254 81.8309 294.574 81.3127 294.809 80.7975C295.204 79.9292 295.377 78.9885 295.314 78.0486C295.263 77.2924 295.033 76.5058 294.443 75.9775C293.854 75.4492 292.836 75.2816 292.204 75.7655C291.909 75.9913 291.672 76.3524 291.289 76.3659C290.611 76.3898 290.091 75.3016 289.546 75.6731C289.61 76.0689 289.521 76.4728 289.295 76.8142C287.668 78.1175 285.17 77.5662 283.073 78.0266C282.076 78.2895 281.122 78.6736 280.235 79.1688C279.903 79.2995 279.621 79.5178 279.424 79.7963C279.162 80.2649 279.451 80.8651 279.912 81.1767C280.401 81.4532 280.951 81.6261 281.521 81.6829C284.077 82.129 286.671 82.8195 288.688 84.3323C290.706 85.8451 292.03 88.3458 291.391 90.6696L286.351 86.2315C286.542 88.095 286.651 89.9635 286.677 91.8373C286.709 92.2031 286.655 92.5711 286.517 92.9155C286.157 93.6469 285.184 93.893 284.33 94.0544C284.093 94.096 283.868 94.1833 283.669 94.3108C283.471 94.4382 283.305 94.6028 283.181 94.7938C283.056 94.9848 282.977 95.1978 282.949 95.4189C282.92 95.64 282.943 95.8641 283.015 96.0766C283.318 96.9873 284.074 97.6974 284.767 98.4049C285.459 99.1124 286.14 99.9165 286.231 100.865C286.322 101.814 285.545 102.884 284.513 102.818C283.731 102.768 283.151 102.123 282.818 101.47C282.484 100.816 282.286 100.088 281.785 99.5328C280.268 97.8521 276.862 98.5722 275.503 96.7804C275.157 97.1424 274.917 97.5799 274.806 98.0515C274.695 98.523 274.716 99.0129 274.868 99.4747C275.5 99.1101 276.365 99.4489 276.84 99.9786C277.315 100.508 277.539 101.188 277.912 101.783C278.415 102.586 279.216 103.297 279.286 104.222C279.268 104.572 279.274 104.923 279.306 105.271C279.43 105.832 279.944 106.234 280.301 106.703C281.13 107.793 281.089 109.29 280.555 110.527C280.02 111.764 279.06 112.797 278.108 113.799C276.447 115.549 274.752 117.288 272.782 118.742C272.22 119.156 271.62 119.564 271.27 120.144C270.92 120.724 270.902 121.537 271.44 121.978C271.055 121.996 270.365 122.171 269.98 122.188C269.845 120.766 269.815 119.336 269.892 117.91C268.373 117.238 266.738 119.037 266.934 120.579C267.13 122.121 268.34 123.359 269.202 124.693C269.832 125.669 270.3 126.806 270.09 127.925C269.88 129.043 268.796 130.075 267.569 129.977C265.616 129.82 264.8 127.237 262.866 126.942C262.696 126.905 262.517 126.921 262.357 126.988C262.07 127.133 262.02 127.487 262.004 127.788C261.925 129.267 261.857 130.805 262.483 132.168C263.4 134.163 265.767 135.838 265.271 137.955C262.595 136.809 261.204 134.044 260.573 131.389C259.941 128.733 259.836 125.945 258.703 123.434C257.844 124.45 256.037 123.61 255.251 122.545C254.507 121.535 254.048 120.367 253.326 119.344C252.603 118.32 251.496 117.404 250.173 117.348C248.785 117.289 247.582 118.166 246.523 118.995C245.653 119.677 244.759 120.386 244.251 121.328C243.51 122.7 243.704 124.316 243.668 125.848C243.63 127.503 243.249 129.25 242.024 130.462C240.8 131.674 238.54 132.096 237.189 131.004C236.484 130.434 236.142 129.582 235.838 128.764C234.372 124.822 233.151 120.805 232.182 116.735C231.955 117.664 231.069 118.861 230.224 118.314C230.034 118.167 229.88 117.985 229.773 117.779C228.195 115.315 225.273 113.837 222.322 112.951C219.37 112.065 216.264 111.652 213.345 110.678C211.709 110.132 210.147 109.415 208.689 108.54C208.317 109.044 208.1 109.63 208.06 110.238C208.021 110.846 208.161 111.452 208.465 111.992C209.112 113.049 210.578 113.66 211.832 113.291C212.48 113.1 213.027 112.685 213.67 112.481C214.314 112.276 215.177 112.376 215.458 112.947C215.727 113.494 215.32 114.155 215.522 114.726C215.83 115.595 217.252 115.662 217.749 116.452C218.12 117.041 217.815 117.822 217.287 118.297C216.758 118.772 216.053 119.032 215.408 119.363C213.315 120.435 211.827 122.266 209.998 123.69C208.169 125.115 205.588 126.155 203.408 125.241C203.928 122.816 200.793 121.036 200.217 118.623C200.027 117.828 200.125 116.985 199.854 116.21C199.462 115.09 198.383 114.319 197.498 113.469C196.424 112.428 195.587 111.199 195.037 109.855C194.487 108.511 194.235 107.078 194.296 105.643C194.343 104.645 194.542 103.632 194.296 102.659C194.049 101.687 193.175 100.746 192.093 100.79C189.621 100.891 186.506 101.06 185.209 99.1182C184.746 98.425 184.544 97.4098 185.213 96.8788C185.686 96.5041 186.383 96.5394 187.003 96.5956L192.574 97.1006C193.877 97.2187 195.285 97.3162 196.403 96.6885C197.521 96.0609 198.006 94.3948 196.97 93.6563C196.214 93.1168 194.859 93.146 194.639 92.2882C194.456 91.5737 195.314 90.763 194.85 90.166C194.518 89.7378 193.771 89.8566 193.318 90.1775C192.865 90.4985 192.537 90.9679 192.03 91.2109C191.141 91.6371 190.079 91.2314 189.122 90.9557C188.166 90.68 186.884 90.6566 186.42 91.4751C185.901 92.3905 186.88 93.5899 186.365 94.5072C185.685 95.7199 183.379 95.0296 182.423 96.0727C181.326 97.2697 183.17 99.0546 182.8 100.584C182.328 100.799 181.803 100.898 181.277 100.871C180.75 100.844 180.241 100.691 179.798 100.428C179.362 100.155 179.014 99.7783 178.792 99.3377C178.571 98.8971 178.482 98.4094 178.537 97.9263C178.629 97.2384 179.018 96.5362 178.757 95.8861C178.546 95.3605 177.974 95.0476 177.442 94.7766L172.028 92.0201C171.525 92.8792 172.161 93.9443 172.955 94.5896C173.75 95.2349 174.746 95.7209 175.268 96.5702C175.598 97.1586 175.672 97.8409 175.475 98.4779C175.277 99.1149 174.823 99.6585 174.206 99.9976C174.129 100.047 174.041 100.08 173.948 100.095C173.855 100.11 173.76 100.106 173.669 100.084C173.583 100.037 173.508 99.9748 173.448 99.9007C173.388 99.8267 173.345 99.7423 173.321 99.6526C172.366 97.4002 170.932 95.1795 168.639 94.0029C166.347 92.8263 163.052 93.0682 161.549 95.0502C161.192 95.521 160.952 96.0576 160.641 96.5554C158.988 99.1997 155.445 100.452 152.134 100.37C151.81 100.387 151.488 100.317 151.206 100.169C150.671 99.8287 150.695 99.1062 150.777 98.5118L151.125 95.9894C151.194 95.4829 151.296 94.923 151.731 94.6068C152.344 94.1611 153.229 94.4424 154.01 94.432C154.601 94.4065 155.17 94.2139 155.639 93.8804C156.108 93.5469 156.454 93.0887 156.631 92.5677C156.789 92.0416 156.788 91.4858 156.628 90.9602C156.469 90.4346 156.156 89.9591 155.725 89.585C155.367 89.2751 154.887 88.886 155.076 88.4683C155.151 88.3528 155.253 88.2539 155.374 88.1786C155.496 88.1033 155.634 88.0534 155.778 88.0324C157.181 87.657 158.663 87.5586 160.043 87.1157C161.422 86.6727 162.76 85.7665 163.087 84.4544C163.187 84.0524 163.233 83.5653 163.625 83.3659C163.821 83.2894 164.032 83.2497 164.246 83.249C164.994 83.1509 165.675 82.7984 166.155 82.2609C166.635 81.7234 166.879 81.0397 166.839 80.3446C167.5 79.9189 168.427 80.2321 169.066 80.6848C169.706 81.1376 170.271 81.7358 171.049 81.9309C172.499 82.2947 173.901 81.1114 175.404 81.1059C176.036 81.1036 176.69 81.3095 177.285 81.1121C177.888 80.9119 178.248 80.3589 178.71 79.9504C179.173 79.5419 179.985 79.2927 180.412 79.7328L180.048 77.2497C180.781 77.4203 181.545 77.4444 182.288 77.3205C183.032 77.1966 183.738 76.9276 184.36 76.5314L179.658 75.0675C179.494 75.0299 179.343 74.9554 179.218 74.8509C178.876 74.5117 179.216 73.9832 179.494 73.5976C180.159 72.6752 180.27 71.1559 179.177 70.6967C178.43 70.3832 177.574 70.7595 176.857 71.1276L173.425 72.8908C173.316 73.4919 174.114 73.8325 174.608 74.2374C174.908 74.4824 175.119 74.805 175.216 75.1628C175.312 75.5206 175.289 75.897 175.149 76.2425C175.009 76.5879 174.759 76.8863 174.432 77.0984C174.104 77.3105 173.715 77.4264 173.315 77.4309C173.541 77.7017 173.698 78.0158 173.774 78.35C173.851 78.6842 173.845 79.03 173.756 79.3617L171.447 79.5147C171.188 79.5628 170.919 79.5143 170.699 79.38C170.452 79.1779 170.485 78.8238 170.428 78.524C170.29 77.8006 169.521 77.2935 168.736 77.1635C167.952 77.0335 167.149 77.2001 166.372 77.3647C166.042 77.4741 165.68 77.4664 165.356 77.3431C165.17 77.2318 165.029 77.0676 164.954 76.8755C164.613 76.1145 164.932 75.22 165.479 74.5692C166.026 73.9184 166.775 73.4426 167.447 72.9008C169.056 71.6004 170.237 69.9115 170.859 68.0248C172.13 67.5341 173.446 66.8673 174.717 66.3766C176.677 65.4623 178.874 65.0699 181.063 65.2436L185.367 65.3194C186.642 65.3418 187.951 65.3706 189.129 65.8183C190.308 66.266 191.343 67.2343 191.424 68.4065C191.449 68.5392 191.437 68.6755 191.388 68.8026C191.34 68.9296 191.257 69.0433 191.148 69.1329C190.982 69.2166 190.793 69.2558 190.604 69.2459C189.416 69.2844 188.909 69.5573 187.72 69.5958Z" fill="#0B71FB"/>
<path d="M153.41 82.0273C153.578 81.8806 153.699 81.694 153.759 81.4881C153.82 81.2822 153.818 81.0648 153.753 80.8599C153.344 80.7144 152.899 80.6771 152.468 80.7521C152.036 80.8271 151.637 81.0114 151.313 81.2845C151.058 81.5221 150.838 81.7899 150.66 82.0807C150.094 82.931 149.594 83.9468 149.921 84.8974C149.948 85.001 149.997 85.0987 150.065 85.1847C150.134 85.2707 150.22 85.3433 150.319 85.3982C150.466 85.4526 150.624 85.4754 150.782 85.4651C151.405 85.4643 152.028 85.429 152.646 85.3594C153.026 85.3166 153.467 85.2177 153.614 84.8921C153.807 84.464 153.34 83.9796 153.476 83.5334C153.566 83.3338 153.702 83.1547 153.874 83.0085C153.96 82.9348 154.025 82.8438 154.066 82.7427C154.107 82.6416 154.121 82.5331 154.109 82.4259C154.054 82.2165 153.706 82.0977 153.58 82.2796" fill="#0B71FB"/>
<path d="M156.641 78.1671C156.087 78.0499 155.517 78.0169 154.951 78.0693C154.826 78.0659 154.703 78.0918 154.591 78.1447C154.484 78.2178 154.406 78.322 154.37 78.4407C154.25 78.7937 154.28 79.1752 154.452 79.5091C154.624 79.8431 154.926 80.105 155.299 80.2428C155.502 80.2858 155.696 80.3578 155.875 80.4561C156.353 80.7977 156.048 81.4959 156.139 82.0469C156.24 82.6656 156.89 83.1849 156.771 83.8009C156.677 84.2862 156.114 84.6705 156.205 85.1563C156.3 85.6652 157.001 85.8181 157.559 85.8588C157.883 85.9111 158.216 85.8759 158.519 85.7575C158.822 85.5665 159.037 85.2787 159.124 84.9498C159.353 84.3225 159.449 83.6608 159.407 83.0002C159.405 82.6998 159.323 82.4044 159.168 82.1397C159 81.93 158.814 81.7333 158.611 81.5515C157.541 80.4044 158.668 78.6934 156.641 78.1671Z" fill="#0B71FB"/>
<path opacity="0.8" d="M297.366 168.025C297.366 168.025 215.402 124.67 180.115 132.885C180.115 132.885 105.331 140.301 96.6645 156.616C96.6645 156.616 72.8923 88.1614 64.2254 85.8796" stroke="black" stroke-width="2" stroke-miterlimit="10"/>
<path opacity="0.8" d="M96.6645 156.615C110.408 122.845 234.222 85.4232 234.222 85.4232C216.64 89.5305 180.115 132.885 180.115 132.885C180.115 132.885 102.855 81.0878 64.2254 85.8796C64.2254 85.8796 234.345 91.0136 297.366 168.024" stroke="black" stroke-width="2" stroke-miterlimit="10"/>
<path d="M64.2254 89.1881C66.2084 89.1881 67.816 87.7068 67.816 85.8795C67.816 84.0522 66.2084 82.5709 64.2254 82.5709C62.2423 82.5709 60.6348 84.0522 60.6348 85.8795C60.6348 87.7068 62.2423 89.1881 64.2254 89.1881Z" fill="black"/>
<path d="M96.6645 159.924C98.6476 159.924 100.255 158.443 100.255 156.616C100.255 154.788 98.6476 153.307 96.6645 153.307C94.6815 153.307 93.0739 154.788 93.0739 156.616C93.0739 158.443 94.6815 159.924 96.6645 159.924Z" fill="black"/>
<path d="M234.221 88.7319C236.205 88.7319 237.812 87.2505 237.812 85.4232C237.812 83.5959 236.205 82.1146 234.221 82.1146C232.238 82.1146 230.631 83.5959 230.631 85.4232C230.631 87.2505 232.238 88.7319 234.221 88.7319Z" fill="black"/>
<path d="M297.366 171.333C299.349 171.333 300.957 169.852 300.957 168.024C300.957 166.197 299.349 164.716 297.366 164.716C295.383 164.716 293.776 166.197 293.776 168.024C293.776 169.852 295.383 171.333 297.366 171.333Z" fill="black"/>
<path d="M180.115 136.193C182.098 136.193 183.706 134.712 183.706 132.885C183.706 131.057 182.098 129.576 180.115 129.576C178.132 129.576 176.524 131.057 176.524 132.885C176.524 134.712 178.132 136.193 180.115 136.193Z" fill="black"/>
</g>
<defs>
<clipPath id="clip0">
<rect width="353" height="241.615" fill="white"/>
</clipPath>
</defs>
</svg>
