<svg width="353" height="253" viewBox="0 0 353 253" fill="none" xmlns="http://www.w3.org/2000/svg">
<g clip-path="url(#clip0)">
<path opacity="0.1" d="M347.41 170.09C339.223 187.003 322.599 198.312 305.37 205.77C282.176 215.814 256.634 219.798 231.444 218.113C227.029 217.819 222.628 217.349 218.24 216.703C203 214.477 188.143 210.144 174.092 203.829C170.037 202.001 166.064 200.004 162.173 197.84C155.674 194.233 149.448 190.155 143.543 185.639C142.057 184.504 140.593 183.339 139.148 182.146C138.147 181.319 137.155 180.474 136.147 179.653C134.021 177.922 131.833 176.277 129.393 175.046C128.656 174.674 127.901 174.34 127.131 174.046C119.403 171.102 110.491 172.213 102.445 174.509C96.3257 176.256 90.36 178.647 84.2465 180.353C81.5271 181.135 78.7562 181.725 75.9543 182.118C69.6986 182.911 63.3459 182.353 57.324 180.48L56.8094 180.319C55.9466 180.048 55.091 179.751 54.2425 179.428L53.7279 179.23C52.9062 178.913 52.102 178.573 51.3152 178.209L50.8006 177.974C49.9788 177.592 49.1746 177.187 48.3878 176.762C48.1043 176.613 47.8239 176.453 47.5466 176.302C43.0701 173.798 39.001 170.626 35.4797 166.893C35.378 166.792 35.2825 166.687 35.1715 166.585C34.6816 166.054 34.2009 165.514 33.7356 164.962C33.563 164.758 33.3905 164.555 33.221 164.345C32.6684 163.67 32.1353 162.98 31.6217 162.274C31.5447 162.172 31.4707 162.067 31.3968 161.966C29.2926 159.051 27.5482 155.892 26.2015 152.557C26.1583 152.455 26.1183 152.351 26.0813 152.249C25.6704 151.189 25.2955 150.112 24.9566 149.018C24.8179 148.561 24.6854 148.092 24.5683 147.636C24.5282 147.5 24.4913 147.361 24.4574 147.225C22.7564 140.52 22.5623 133.549 22.5623 126.619C22.5623 125.81 22.5623 125.003 22.5623 124.197C22.6116 112.986 22.7841 101.585 24.4358 90.5285C24.4358 90.4513 24.4574 90.3742 24.4697 90.3001C25.0225 86.5781 25.7744 82.8884 26.7222 79.2471C27.7142 75.4264 28.9819 71.6828 30.5155 68.046C34.3149 59.0975 39.8399 50.9543 45.975 43.4066C61.4284 24.4141 81.695 8.4703 105.416 2.50254C130.976 -3.92498 159.384 2.23409 180.002 18.6716C186.288 23.6828 191.936 29.6166 198.996 33.4583C205.159 36.8032 212.373 38.1887 218.973 35.5566C224.427 33.3812 227.977 32.3012 234.103 32.6314C246.785 33.3498 259.287 35.9721 271.191 40.4104C271.672 40.5863 272.152 40.7684 272.63 40.9504C303.663 52.8396 330.339 76.4607 344.206 106.815C344.573 107.617 344.93 108.426 345.275 109.24C353.542 128.578 356.531 151.243 347.41 170.09Z" fill="#FF0000"/>
<path opacity="0.1" d="M37.0696 229.265C52.0934 229.265 64.2725 227.306 64.2725 224.889C64.2725 222.473 52.0934 220.514 37.0696 220.514C22.0459 220.514 9.86673 222.473 9.86673 224.889C9.86673 227.306 22.0459 229.265 37.0696 229.265Z" fill="#FF0000"/>
<path opacity="0.1" d="M281.107 253C307.746 253 329.341 250.9 329.341 248.31C329.341 245.719 307.746 243.62 281.107 243.62C254.468 243.62 232.873 245.719 232.873 248.31C232.873 250.9 254.468 253 281.107 253Z" fill="#FF0000"/>
<path d="M324.777 33.2484H39.6365C37.5109 33.2484 35.7878 34.9739 35.7878 37.1025V195.507C35.7878 197.636 37.5109 199.361 39.6365 199.361H324.777C326.903 199.361 328.626 197.636 328.626 195.507V37.1025C328.626 34.9739 326.903 33.2484 324.777 33.2484Z" fill="url(#paint0_linear)"/>
<path d="M324.346 35.5844H40.1018C37.9762 35.5844 36.2531 37.3099 36.2531 39.4384V194.955C36.2531 197.083 37.9762 198.809 40.1018 198.809H324.346C326.471 198.809 328.194 197.083 328.194 194.955V39.4384C328.194 37.3099 326.471 35.5844 324.346 35.5844Z" fill="white"/>
<path d="M324.346 35.5844H40.1018C37.9762 35.5844 36.2531 37.3099 36.2531 39.4384V194.955C36.2531 197.083 37.9762 198.809 40.1018 198.809H324.346C326.471 198.809 328.194 197.083 328.194 194.955V39.4384C328.194 37.3099 326.471 35.5844 324.346 35.5844Z" fill="white"/>
<path opacity="0.04" d="M324.346 35.5844H40.1018C37.9762 35.5844 36.2531 37.3099 36.2531 39.4384V194.955C36.2531 197.083 37.9762 198.809 40.1018 198.809H324.346C326.471 198.809 328.194 197.083 328.194 194.955V39.4384C328.194 37.3099 326.471 35.5844 324.346 35.5844Z" fill="white"/>
<path d="M326.712 33.7113H37.7352C37.3421 33.7113 36.9651 33.8677 36.6872 34.146C36.4092 34.4244 36.2531 34.8019 36.2531 35.1955V41.4688H328.182V35.1955C328.182 34.804 328.028 34.4284 327.752 34.1504C327.477 33.8724 327.103 33.7146 326.712 33.7113Z" fill="#5A5773"/>
<path d="M42.0832 39.5958C43.1894 39.5958 44.0861 38.6978 44.0861 37.5901C44.0861 36.4823 43.1894 35.5844 42.0832 35.5844C40.977 35.5844 40.0802 36.4823 40.0802 37.5901C40.0802 38.6978 40.977 39.5958 42.0832 39.5958Z" fill="white"/>
<path d="M47.4757 39.5958C48.5819 39.5958 49.4786 38.6978 49.4786 37.5901C49.4786 36.4823 48.5819 35.5844 47.4757 35.5844C46.3695 35.5844 45.4727 36.4823 45.4727 37.5901C45.4727 38.6978 46.3695 39.5958 47.4757 39.5958Z" fill="white"/>
<path d="M52.8682 39.5958C53.9744 39.5958 54.8711 38.6978 54.8711 37.5901C54.8711 36.4823 53.9744 35.5844 52.8682 35.5844C51.762 35.5844 50.8653 36.4823 50.8653 37.5901C50.8653 38.6978 51.762 39.5958 52.8682 39.5958Z" fill="white"/>
<path opacity="0.2" d="M138.643 56.058H60.2975V62.7169H138.643V56.058Z" fill="#FF0000"/>
<path opacity="0.1" d="M304.15 82.7587H60.2975V185.192H304.15V82.7587Z" fill="#5A5773"/>
<path opacity="0.1" d="M203.076 89.4392H198.901V81.3176C198.901 72.153 191.604 64.5344 182.452 64.3956C180.245 64.3724 178.055 64.7867 176.009 65.6148C173.963 66.4428 172.101 67.6682 170.53 69.2202C168.958 70.7723 167.71 72.6204 166.855 74.6579C166 76.6955 165.557 78.8823 165.55 81.0923V89.4392H161.384C159.543 89.4449 157.779 90.1798 156.477 91.4835C155.175 92.7872 154.441 94.5537 154.435 96.3974V129.791C154.441 131.635 155.175 133.401 156.477 134.705C157.779 136.009 159.543 136.743 161.384 136.749H203.076C204.917 136.743 206.681 136.008 207.982 134.705C209.283 133.401 210.017 131.634 210.021 129.791V96.3974C210.017 94.554 209.283 92.7875 207.982 91.4837C206.681 90.1799 204.917 89.4449 203.076 89.4392ZM184.664 111.147V123.107C184.668 123.741 184.432 124.352 184.003 124.817C183.574 125.282 182.984 125.567 182.353 125.613C182.024 125.628 181.695 125.577 181.386 125.461C181.077 125.346 180.795 125.169 180.557 124.941C180.318 124.713 180.128 124.439 179.998 124.135C179.869 123.832 179.802 123.505 179.802 123.175V111.141C178.674 110.59 177.767 109.674 177.227 108.54C176.687 107.406 176.546 106.123 176.829 104.899C177.111 103.676 177.799 102.584 178.78 101.802C179.762 101.02 180.979 100.594 182.233 100.594C183.487 100.594 184.704 101.02 185.686 101.802C186.667 102.584 187.355 103.676 187.637 104.899C187.92 106.123 187.779 107.406 187.239 108.54C186.699 109.674 185.792 110.59 184.664 111.141V111.147ZM194.044 89.4392H170.413V81.0923C170.413 77.9555 171.657 74.9471 173.872 72.729C176.087 70.5109 179.091 69.2648 182.224 69.2648C185.356 69.2648 188.361 70.5109 190.576 72.729C192.791 74.9471 194.035 77.9555 194.035 81.0923L194.044 89.4392Z" fill="black"/>
<path d="M203.076 88.822H198.901V80.7004C198.901 71.5359 191.604 63.9172 182.452 63.7784C180.245 63.7552 178.055 64.1695 176.009 64.9976C173.963 65.8256 172.101 67.051 170.53 68.603C168.958 70.1551 167.71 72.0032 166.855 74.0408C166 76.0783 165.557 78.2651 165.55 80.4751V88.822H161.384C159.543 88.8277 157.779 89.5626 156.477 90.8663C155.175 92.17 154.441 93.9365 154.435 95.7802V129.174C154.441 131.017 155.175 132.784 156.477 134.088C157.779 135.391 159.543 136.126 161.384 136.132H203.076C204.917 136.126 206.681 135.391 207.982 134.087C209.283 132.784 210.017 131.017 210.021 129.174V95.7802C210.017 93.9368 209.283 92.1703 207.982 90.8665C206.681 89.5627 204.917 88.8277 203.076 88.822ZM184.664 110.53V122.49C184.668 123.123 184.432 123.735 184.003 124.2C183.574 124.665 182.984 124.949 182.353 124.996C182.024 125.011 181.695 124.96 181.386 124.844C181.077 124.728 180.795 124.551 180.557 124.324C180.318 124.096 180.128 123.822 179.998 123.518C179.869 123.215 179.802 122.888 179.802 122.558V110.524C178.674 109.973 177.767 109.056 177.227 107.923C176.687 106.789 176.546 105.506 176.829 104.282C177.111 103.058 177.799 101.967 178.78 101.185C179.762 100.403 180.979 99.9772 182.233 99.9772C183.487 99.9772 184.704 100.403 185.686 101.185C186.667 101.967 187.355 103.058 187.637 104.282C187.92 105.506 187.779 106.789 187.239 107.923C186.699 109.056 185.792 109.973 184.664 110.524V110.53ZM194.044 88.822H170.413V80.4751C170.413 77.3383 171.657 74.3299 173.872 72.1118C176.087 69.8937 179.091 68.6476 182.224 68.6476C185.356 68.6476 188.361 69.8937 190.576 72.1118C192.791 74.3299 194.035 77.3383 194.035 80.4751L194.044 88.822Z" fill="#FF0000"/>
<path opacity="0.1" d="M304.15 72.8998H279.468V78.7348H304.15V72.8998Z" fill="#5A5773"/>
<path d="M312.55 249.723C312.387 248.905 312.109 248.114 311.724 247.375L308.026 241.845H308.048C308.048 241.845 307.466 239.068 308.048 237.704C308.63 236.34 305.971 232.986 305.971 232.986C305.971 232.986 305.648 232.144 306.492 231.107C307.336 230.07 305.971 227.034 305.971 227.034C305.971 227.034 305.324 220.693 305.259 219.724C305.195 218.755 304.674 213.386 304.674 213.386L303.441 202.003L301.247 171.834L301.207 171.269C301.478 171.136 301.623 171.053 301.623 171.053L301.186 154.372L301.565 154.029C304.874 151.03 312.507 144.087 312.43 143.936C312.353 143.785 311.505 132.343 311.407 129.479C311.322 127.444 310.878 125.44 310.094 123.561C309.903 123.181 309.351 120.679 309.123 119.62C309.062 119.33 309.022 119.148 309.022 119.148C309.022 119.148 306.785 114.878 306.979 112.937C307.173 110.996 307.561 109.542 302.791 108.864C302.791 108.864 298.785 108.265 296.4 106.633C294.99 105.655 293.448 104.882 291.821 104.337C291.821 104.337 290.484 101.868 289.553 102.705C289.159 101.824 288.865 100.902 288.675 99.9552L288.647 99.7824C290.414 98.5489 291.685 96.7269 292.234 94.6416C292.265 94.5244 292.29 94.404 292.317 94.2868C292.41 94.3182 292.506 94.3358 292.604 94.3392C293.414 94.3392 293.913 93.4351 294.672 93.1481C294.98 93.0278 295.359 93.0093 295.596 92.7655C295.674 92.6715 295.732 92.5626 295.767 92.4454C295.802 92.3282 295.813 92.2051 295.799 92.0836C295.807 91.9994 295.807 91.9147 295.799 91.8306C295.801 91.8007 295.801 91.7709 295.799 91.7411V91.7719C295.593 90.6487 294.724 89.652 294.819 88.5103C294.912 87.4365 295.855 86.4923 295.778 85.4462C295.777 85.3635 295.769 85.281 295.756 85.1994V85.2364C295.641 84.828 295.43 84.4533 295.14 84.1441C294.808 83.6915 294.373 83.3254 293.87 83.0764C293.442 82.8882 292.946 82.845 292.545 82.6197C291.368 81.9779 291.371 80.3054 290.672 79.1637C290.372 78.6871 289.947 78.3027 289.443 78.0527C288.939 77.8028 288.376 77.6972 287.815 77.7474C286.94 77.8338 286.148 78.2997 285.282 78.4509C284.099 78.6608 282.894 78.275 281.773 77.8338C280.651 77.3925 279.514 76.9081 278.309 76.9081C277.104 76.9081 275.801 77.5252 275.437 78.6638C275.243 79.281 275.339 79.9444 275.191 80.5708C274.926 81.6755 273.958 82.4654 272.957 83.0147C272.34 83.3572 271.607 83.7491 271.416 84.3971C271.416 84.3786 271.416 84.3631 271.416 84.3477C271.402 84.3994 271.392 84.452 271.385 84.5051C271.379 84.5739 271.379 84.6431 271.385 84.7118C271.385 85.1562 271.619 85.5789 271.776 86.0017C272.069 86.8059 272.063 87.6889 271.758 88.4887C271.53 89.075 271.142 89.5903 270.92 90.1735C270.815 90.4452 270.747 90.7295 270.716 91.019V90.9696C270.709 91.1012 270.709 91.2331 270.716 91.3646C270.713 91.8152 270.818 92.26 271.025 92.6606C271.166 92.9372 271.361 93.1826 271.599 93.3824C271.836 93.5822 272.112 93.7323 272.408 93.8239C273.024 93.9659 273.41 93.3611 274.06 93.5153C274.176 93.5434 274.29 93.5795 274.402 93.6233C274.423 93.7622 274.445 93.9011 274.47 94.0368C274.863 96.1135 275.968 97.9875 277.594 99.335C277.594 99.409 277.619 99.4831 277.628 99.5602C277.825 100.79 277.911 102.036 277.884 103.282C277.884 103.282 276.913 101.859 275.582 104.605C275.582 104.605 272.109 106.611 270.911 106.839C269.712 107.068 265.456 108.552 265.456 108.552C264.815 109.017 264.042 109.266 263.25 109.265C261.922 109.265 260.819 112.175 260.979 113.758C261.139 115.341 260.884 116.507 259.648 116.572C258.412 116.637 259.087 119.145 259.096 119.188L258.982 119.728C258.742 120.833 258.218 123.203 258.033 123.573C257.25 125.453 256.804 127.457 256.718 129.492C256.622 132.355 255.793 143.754 255.698 143.948C255.633 144.075 260.862 148.861 264.538 152.205L265.071 152.687L263.38 168.51C263.429 169.12 263.61 169.712 263.91 170.244C264.21 170.777 264.622 171.238 265.117 171.596C265.117 171.781 265.117 171.969 265.099 172.164C265.025 174.015 264.877 176.255 264.581 176.842C264.064 177.879 264.193 183.439 264.193 183.439C264.193 183.439 263.672 194.757 263.025 195.989C262.378 197.22 262.246 199.802 262.44 200.309C262.634 200.815 261.79 214.407 261.79 214.407L261.142 220.489C261.142 220.489 261.337 226.309 260.751 226.438C260.166 226.568 259.842 230.579 259.842 230.579C259.842 230.579 257.768 233.424 258.674 234.458C259.58 235.492 258.542 235.948 258.446 236.204C258.351 236.461 256.468 237.439 257.83 241.055C257.842 241.091 257.857 241.126 257.873 241.16C256.597 242.934 252.554 248.658 252.801 249.529C252.983 250.082 253.369 250.546 253.879 250.825C254.832 251.395 256.465 251.661 259.062 250.825C263.376 249.433 263.068 248.43 263.068 248.43C263.09 247.961 263.291 247.519 263.63 247.194C263.968 246.869 264.418 246.686 264.886 246.684C266.671 246.554 268.002 244.906 268.002 244.906L267.792 244.126L267.506 243.046C267.539 242.737 267.758 242.197 268.738 241.898C270.233 241.444 269.841 238.599 269.841 238.599C269.841 238.599 269.712 235.624 270.359 235.236C271.006 234.847 270.75 229.931 270.75 229.931C270.75 229.931 271.465 226.373 272.501 223.979C273.536 221.584 274.775 207.359 274.775 207.359C274.775 207.359 275.616 200.373 276.396 198.368C277.175 196.362 277.89 190.737 277.89 190.737C277.89 190.737 282.694 181.421 282.756 179.35C282.756 179.35 283.372 177.409 283.988 179.545C284.604 181.68 286.336 186.79 286.336 186.79L288.022 193.063L290.034 202.441L291.334 210.334C291.334 210.334 291.137 213.309 291.642 214.345C292.148 215.382 292.875 217.771 292.487 218.224C292.099 218.678 293.263 220.813 293.59 221.264C293.917 221.714 293.59 231.289 293.59 231.289C293.59 231.289 295.081 239.438 297.223 240.855C297.372 240.953 297.531 241.036 297.697 241.102C297.667 241.984 297.636 243.166 297.676 243.783C297.671 243.921 297.694 244.058 297.744 244.187C297.938 244.446 300.144 246.193 300.6 246.193C301.056 246.193 302.674 247.325 302.742 247.875C302.81 248.424 307.484 250.751 308.147 250.818C308.809 250.886 312.02 251.463 312.461 250.559C312.57 250.295 312.601 250.005 312.55 249.723ZM301.065 133.17L301.398 133.457C301.398 133.457 301.74 136.126 301.984 136.925C302.227 137.724 301.934 139.279 301.934 139.279C301.957 139.86 302.072 140.433 302.276 140.977C302.566 141.56 301.691 142.828 301.691 142.828H300.911L300.668 132.836L301.065 133.17ZM277.884 103.337V103.279C277.878 103.297 277.875 103.319 277.875 103.337H277.884ZM265.912 141.8C265.793 141.542 265.775 141.248 265.863 140.977C265.932 140.83 265.987 140.677 266.027 140.52C266.122 140.115 266.182 139.701 266.205 139.286C266.206 139.28 266.206 139.275 266.205 139.27C266.177 139.122 265.928 137.69 266.159 136.931C266.39 136.172 266.741 133.463 266.741 133.463L266.963 133.275L267.478 132.827C267.478 132.827 267.478 132.661 267.515 132.386C267.623 134.731 267.709 137.323 267.57 137.453C267.311 137.709 266.369 140.23 266.597 140.329C266.671 140.363 266.569 141.372 266.396 142.729C266.202 142.438 266.04 142.126 265.912 141.8Z" fill="url(#paint1_linear)"/>
<path d="M290.749 105.803V109.641L282.885 113.6C282.885 113.6 275.077 108.87 277.003 106.987C278.235 105.796 277.998 102.526 277.665 100.276C277.471 98.9677 277.246 98.0081 277.246 98.0081C277.246 98.0081 291.273 93.9967 289.153 97.0423C288.444 98.0605 288.388 99.3781 288.626 100.683C289.106 103.272 290.749 105.803 290.749 105.803Z" fill="#C37098"/>
<path d="M269.207 143.34L268.193 155.843C268.193 155.843 266.674 154.464 264.708 152.668C261.062 149.339 255.886 144.578 255.947 144.451C256.043 144.257 256.872 132.914 256.961 130.062C257.045 128.039 257.485 126.046 258.261 124.175C258.446 123.805 258.967 121.447 259.186 120.346C259.26 120.003 259.306 119.781 259.306 119.781L261.007 119.096C261.007 119.096 268.094 127.014 268.094 127.159C268.094 127.304 267.61 133.386 267.61 133.386L267.108 133.824L266.889 134.012C266.889 134.012 266.55 136.669 266.31 137.465C266.07 138.261 266.329 139.644 266.356 139.792C266.334 140.207 266.275 140.62 266.181 141.026C266.14 141.182 266.086 141.334 266.017 141.48C265.93 141.75 265.948 142.043 266.067 142.3C266.204 142.658 266.381 142.999 266.597 143.316L269.207 143.34Z" fill="#3F3D56"/>
<path d="M312.159 144.451C312.233 144.602 304.674 151.511 301.398 154.495L299.913 155.844L298.909 143.34H301.512C301.512 143.34 302.381 142.084 302.092 141.504C301.89 140.963 301.776 140.393 301.756 139.816C301.756 139.816 302.042 138.274 301.802 137.474C301.562 136.675 301.223 134.021 301.223 134.021L300.893 133.738L300.502 133.395C300.502 133.395 300.018 127.313 300.018 127.168C300.018 127.023 307.105 119.105 307.105 119.105L308.794 119.781C308.794 119.781 308.831 119.963 308.892 120.253C309.12 121.305 309.666 123.795 309.854 124.175C310.63 126.046 311.07 128.039 311.154 130.062C311.234 132.914 312.06 144.257 312.159 144.451Z" fill="#3F3D56"/>
<path d="M312.189 250.581C311.736 251.482 308.556 250.889 307.9 250.84C307.244 250.791 302.609 248.455 302.545 247.909C302.48 247.362 300.874 246.236 300.425 246.236C299.975 246.236 297.79 244.496 297.596 244.24C297.547 244.112 297.525 243.975 297.531 243.839C297.463 242.78 297.596 240.056 297.596 240.056L306.917 240.571L311.447 247.393C311.829 248.129 312.105 248.916 312.266 249.729C312.321 250.015 312.295 250.31 312.189 250.581Z" fill="#3F3D56"/>
<path opacity="0.1" d="M312.189 250.581C311.736 251.482 308.556 250.889 307.9 250.84C307.244 250.791 302.609 248.455 302.545 247.909C302.48 247.362 300.874 246.236 300.425 246.236C299.975 246.236 297.79 244.496 297.596 244.24C297.547 244.112 297.525 243.975 297.531 243.839C297.463 242.78 297.596 240.056 297.596 240.056L306.917 240.571L311.447 247.393C311.829 248.129 312.105 248.916 312.266 249.729C312.321 250.015 312.295 250.31 312.189 250.581Z" fill="black"/>
<path opacity="0.1" d="M312.189 250.581C311.736 251.482 308.556 250.889 307.9 250.84C307.244 250.791 302.609 248.455 302.545 247.909C302.48 247.363 300.874 246.236 300.425 246.236C299.975 246.236 297.79 244.496 297.596 244.24C297.547 244.112 297.525 243.975 297.531 243.839L300.551 245.752C300.551 245.752 302.48 246.986 302.994 247.717C303.509 248.449 307.564 249.97 307.9 250.001C308.15 250.025 310.812 249.513 312.266 249.729C312.321 250.015 312.295 250.31 312.189 250.581Z" fill="black"/>
<path d="M268.125 244.949C268.125 244.949 266.806 246.591 265.044 246.718C264.578 246.721 264.132 246.903 263.797 247.227C263.463 247.55 263.264 247.989 263.244 248.455C263.244 248.455 263.552 249.455 259.29 250.84C256.717 251.67 255.1 251.408 254.157 250.84C253.651 250.56 253.269 250.1 253.088 249.55C252.798 248.523 258.486 240.7 258.486 240.7L263.663 240.392L267.361 242.064L267.928 244.184L268.125 244.949Z" fill="#3F3D56"/>
<path opacity="0.1" d="M268.125 244.949C268.125 244.949 266.806 246.591 265.044 246.718C264.578 246.721 264.132 246.903 263.797 247.227C263.463 247.55 263.264 247.989 263.244 248.455C263.244 248.455 263.552 249.455 259.29 250.84C256.717 251.67 255.1 251.408 254.157 250.84C253.651 250.56 253.269 250.1 253.088 249.55C252.798 248.523 258.486 240.7 258.486 240.7L263.663 240.392L267.361 242.064L267.928 244.184L268.125 244.949Z" fill="black"/>
<path opacity="0.1" d="M268.125 244.949C268.125 244.949 266.806 246.591 265.044 246.718C264.578 246.721 264.132 246.903 263.798 247.227C263.463 247.55 263.264 247.989 263.244 248.455C263.244 248.455 263.552 249.455 259.291 250.84C256.718 251.67 255.1 251.408 254.157 250.84C256.582 250.587 261.941 249.053 262.477 248.523C263.121 247.878 263.925 246.107 264.47 246.076C264.849 246.051 266.775 244.891 267.931 244.172L268.125 244.949Z" fill="black"/>
<path d="M307.817 237.772C307.238 239.124 307.817 241.892 307.817 241.892C307.817 241.892 299.189 242.342 297.081 240.926C294.974 239.509 293.482 231.397 293.482 231.397C293.482 231.397 293.79 221.871 293.482 221.421C293.174 220.97 292.003 218.847 292.388 218.397C292.773 217.946 292.08 215.564 291.553 214.534C291.026 213.503 291.245 210.544 291.245 210.544L289.957 202.688L287.966 193.356L286.275 187.111C286.275 187.111 284.54 182.026 283.951 179.903C283.363 177.78 282.74 179.708 282.74 179.708C282.679 181.77 277.921 191.039 277.921 191.039C277.921 191.039 277.212 196.64 276.442 198.633C275.671 200.626 274.833 207.582 274.833 207.582C274.833 207.582 273.601 221.742 272.584 224.124C271.567 226.506 270.867 230.046 270.867 230.046C270.867 230.046 271.126 234.939 270.482 235.325C269.838 235.711 269.943 238.673 269.943 238.673C269.943 238.673 270.328 241.503 268.849 241.956C267.37 242.41 267.617 243.373 267.617 243.373C267.617 243.373 259.389 244.724 258.039 241.117C256.69 237.51 258.554 236.55 258.656 236.291C258.757 236.032 259.784 235.584 258.884 234.551C257.984 233.517 260.039 230.69 260.039 230.69C260.039 230.69 260.363 226.701 260.939 226.571C261.515 226.441 261.327 220.65 261.327 220.65L261.968 214.598C261.968 214.598 262.806 201.08 262.612 200.565C262.418 200.049 262.548 197.479 263.192 196.245C263.836 195.01 264.347 183.754 264.347 183.754C264.347 183.754 264.218 178.221 264.732 177.19C265.04 176.607 265.17 174.364 265.244 172.534C265.299 171.136 265.312 169.979 265.312 169.979L272.51 167.276L281.754 164.317L289.532 168.051L300.911 170.238L301.053 172.204L303.226 202.231L304.458 213.559C304.458 213.559 304.973 218.9 305.038 219.866C305.102 220.832 305.743 227.142 305.743 227.142C305.743 227.142 307.093 230.166 306.258 231.196C305.423 232.227 305.743 233.048 305.743 233.048C305.743 233.048 308.396 236.421 307.817 237.772Z" fill="#3F3D56"/>
<path opacity="0.1" d="M289.159 97.0423C288.45 98.0606 288.395 99.3782 288.632 100.683C287.013 101.827 285.063 102.407 283.082 102.333C281.102 102.259 279.201 101.535 277.671 100.273C277.477 98.9647 277.252 98.0051 277.252 98.0051C277.252 98.0051 291.279 93.9998 289.159 97.0423Z" fill="black"/>
<path d="M292.437 93.1049C292.437 94.8931 291.908 96.6411 290.916 98.1279C289.924 99.6147 288.514 100.774 286.864 101.458C285.214 102.142 283.399 102.321 281.647 101.972C279.896 101.623 278.287 100.762 277.025 99.498C275.762 98.2335 274.902 96.6226 274.554 94.8688C274.205 93.115 274.384 91.2971 275.068 89.645C275.751 87.993 276.908 86.581 278.393 85.5875C279.878 84.5941 281.623 84.0638 283.409 84.0638C284.596 84.0581 285.773 84.2881 286.871 84.7404C287.969 85.1927 288.966 85.8585 289.806 86.6991C290.645 87.5398 291.31 88.5388 291.762 89.6383C292.214 90.7378 292.443 91.916 292.437 93.1049Z" fill="#C37098"/>
<path opacity="0.1" d="M294.317 108.129L291.359 160.879L275.289 157.501L272.106 136.354L275.258 107.966L277.631 108.271L281.816 108.805L285.96 109.061L290.453 108.561L294.317 108.129Z" fill="black"/>
<path d="M294.317 108.515L291.359 161.265L275.289 157.886L272.106 136.74L275.258 108.354L277.631 108.657L281.816 109.191L285.96 109.447L290.453 108.947L294.317 108.515Z" fill="#FF0000"/>
<path d="M281.107 109.931L286.894 110.126L285.267 112.406C285.267 112.406 285.381 117.013 286.154 118.334C286.928 119.654 286.7 140.057 286.7 140.057L285.159 142.985L282.525 139.702L282.558 112.764L281.107 109.931Z" fill="#3F3D56"/>
<path opacity="0.1" d="M281.107 109.931L286.894 110.126L285.267 112.406C285.267 112.406 285.381 117.013 286.154 118.334C286.928 119.654 286.7 140.057 286.7 140.057L285.159 142.985L282.525 139.702L282.558 112.764L281.107 109.931Z" fill="black"/>
<path opacity="0.1" d="M290.17 103.945L284.771 109.931L287.855 113.15L292.967 108.16L290.17 103.945Z" fill="black"/>
<path d="M290.17 103.559L284.771 109.546L287.855 112.764L292.967 107.774L290.17 103.559Z" fill="#FF0000"/>
<path opacity="0.1" d="M282.491 109.641L277.024 104.17L276.51 107.034L279.018 113.31L282.491 109.641Z" fill="black"/>
<path d="M282.682 109.256L277.218 103.785L276.704 106.648L279.212 112.925L282.682 109.256Z" fill="#FF0000"/>
<path opacity="0.1" d="M301.081 172.213C298.457 173.465 295.647 174.279 292.761 174.623C287.458 175.299 283.988 168.541 283.988 168.541L281.964 171.18C281.32 173.981 271.518 174.688 267.533 173.626C266.707 173.422 265.929 173.054 265.247 172.543C265.302 171.146 265.315 169.988 265.315 169.988L272.513 167.285L281.757 164.326L289.535 168.06L300.915 170.248L301.081 172.213Z" fill="black"/>
<path opacity="0.1" d="M294.317 108.518L291.362 161.265L275.289 157.886L272.1 136.743L275.249 108.354L277.622 108.663C277.561 109.697 277.445 110.727 277.274 111.749C276.889 113.554 279.267 126.363 279.267 126.363C279.267 126.363 283.788 140.727 285.822 138.656C287.855 136.586 290.752 125.653 290.752 125.653C292.715 121.598 290.786 110.224 290.641 109.996C290.54 109.66 290.478 109.313 290.456 108.962L294.317 108.518Z" fill="black"/>
<path opacity="0.1" d="M301.26 149.336L301.395 154.504L299.91 155.853L298.909 143.34H301.127L301.26 149.336Z" fill="black"/>
<path opacity="0.1" d="M266.359 139.801C266.337 140.217 266.278 140.63 266.184 141.035C266.184 140.921 266.184 140.856 266.159 140.847C266.067 140.822 266.178 140.35 266.359 139.801Z" fill="black"/>
<path opacity="0.1" d="M269.207 143.34L268.193 155.844C268.193 155.844 266.674 154.464 264.708 152.668L264.942 150.453C264.942 150.453 265.771 145.01 266.073 142.325C266.21 142.683 266.388 143.023 266.603 143.34H269.207Z" fill="black"/>
<path d="M277.924 103.976C277.924 103.976 276.963 102.56 275.644 105.293C275.644 105.293 272.205 107.29 271.022 107.515C269.838 107.74 265.629 109.222 265.629 109.222C264.993 109.682 264.229 109.929 263.444 109.928C262.125 109.928 261.032 112.826 261.192 114.402C261.352 115.979 261.096 117.14 259.876 117.204C258.656 117.269 259.327 119.809 259.327 119.809L267.459 129.143C267.459 129.143 267.974 137.737 267.718 137.996C267.462 138.255 266.529 140.773 266.754 140.859C266.979 140.946 265.521 150.45 265.521 150.45L263.561 168.893C263.561 168.893 263.561 171.979 267.549 173.043C271.536 174.108 281.344 173.404 281.976 170.602L284.001 167.961C284.001 167.961 287.47 174.722 292.773 174.046C298.077 173.37 301.454 171.439 301.454 171.439L300.874 149.336L300.489 133.404L308.769 119.781C308.769 119.781 306.55 115.532 306.745 113.609C306.939 111.687 307.321 110.231 302.597 109.555C302.597 109.555 298.613 108.959 296.265 107.333C294.869 106.363 293.344 105.594 291.735 105.05C291.735 105.05 290.41 102.581 289.489 103.427C289.489 103.427 290.413 106.917 290.336 107.438C290.259 107.96 290.481 110.317 290.626 110.561C290.77 110.805 292.699 122.163 290.737 126.218C290.737 126.218 287.855 137.15 285.806 139.221C283.757 141.291 279.252 126.927 279.252 126.927C279.252 126.927 276.873 114.116 277.258 112.313C277.644 110.511 277.924 103.976 277.924 103.976Z" fill="#3F3D56"/>
<path d="M284.802 146.173C285.583 146.173 286.216 145.539 286.216 144.757C286.216 143.974 285.583 143.34 284.802 143.34C284.021 143.34 283.387 143.974 283.387 144.757C283.387 145.539 284.021 146.173 284.802 146.173Z" fill="#3F3D56"/>
<path d="M284.802 152.85C285.583 152.85 286.216 152.216 286.216 151.434C286.216 150.652 285.583 150.018 284.802 150.018C284.021 150.018 283.387 150.652 283.387 151.434C283.387 152.216 284.021 152.85 284.802 152.85Z" fill="#3F3D56"/>
<path opacity="0.1" d="M284.802 146.173C285.583 146.173 286.216 145.539 286.216 144.757C286.216 143.974 285.583 143.34 284.802 143.34C284.021 143.34 283.387 143.974 283.387 144.757C283.387 145.539 284.021 146.173 284.802 146.173Z" fill="black"/>
<path opacity="0.1" d="M284.802 152.85C285.583 152.85 286.216 152.216 286.216 151.434C286.216 150.652 285.583 150.018 284.802 150.018C284.021 150.018 283.387 150.652 283.387 151.434C283.387 152.216 284.021 152.85 284.802 152.85Z" fill="black"/>
<path opacity="0.1" d="M297.513 235.84C297.513 235.84 303.318 236.291 303.894 236.741C304.471 237.192 297.513 235.84 297.513 235.84Z" fill="black" stroke="#FF0000" stroke-miterlimit="10"/>
<path opacity="0.1" d="M262.948 231.271C262.948 231.271 264.181 232.813 263.657 233.523C263.133 234.233 262.948 231.271 262.948 231.271Z" fill="black" stroke="#FF0000" stroke-miterlimit="10"/>
<path opacity="0.1" d="M264.427 236.834C264.427 236.834 266.677 235.353 267.576 236.337C268.476 237.322 264.427 236.834 264.427 236.834Z" fill="black" stroke="#FF0000" stroke-miterlimit="10"/>
<path opacity="0.1" d="M292.437 93.105C292.439 93.8764 292.342 94.6449 292.148 95.3915C291.958 95.3047 291.799 95.1619 291.692 94.9821C291.585 94.8023 291.536 94.5942 291.55 94.3856C291.59 94.0184 291.834 93.682 291.781 93.3179C291.704 92.7563 291.026 92.5279 290.669 92.0836C290.228 91.5467 290.324 90.766 290.361 90.0717C290.398 89.3774 290.222 88.5289 289.572 88.2913C289.378 88.2203 289.165 88.2141 288.977 88.1339C288.466 87.9179 288.308 87.2822 287.966 86.8441C287.282 85.9616 285.923 85.9801 284.885 86.3997C284.433 86.6167 283.97 86.8104 283.498 86.9798C283.262 87.0633 283.011 87.0968 282.761 87.0782C282.511 87.0596 282.268 86.9893 282.047 86.8718C281.844 86.7422 281.68 86.5633 281.471 86.4337C280.774 86.014 279.862 86.4337 279.258 86.9737C278.654 87.5137 278.17 88.2388 277.409 88.569C277.067 88.7233 276.645 88.8158 276.485 89.1491C276.406 89.3305 276.372 89.5286 276.386 89.7261C276.386 90.9265 276.528 92.1453 276.278 93.321C276.118 94.077 275.588 94.9348 274.821 94.8422C274.725 94.8281 274.631 94.8043 274.541 94.7713C274.31 93.5354 274.339 92.2649 274.626 91.0409C274.913 89.8169 275.452 88.6663 276.208 87.6626C276.964 86.6589 277.921 85.8243 279.018 85.2119C280.114 84.5995 281.326 84.2229 282.576 84.1061C283.827 83.9893 285.087 84.1349 286.278 84.5336C287.469 84.9323 288.563 85.5754 289.492 86.4216C290.421 87.2679 291.163 88.2988 291.671 89.4486C292.179 90.5983 292.442 91.8415 292.444 93.0988L292.437 93.105Z" fill="black"/>
<path d="M274.137 94.259C274.368 94.3114 274.587 94.4318 274.824 94.4626C275.591 94.5552 276.121 93.6974 276.282 92.9414C276.531 91.7657 276.402 90.5469 276.392 89.3465C276.375 89.1492 276.408 88.9507 276.488 88.7695C276.664 88.4363 277.086 88.3437 277.412 88.1894C278.158 87.8561 278.645 87.1464 279.261 86.5941C279.878 86.0418 280.774 85.6344 281.471 86.0541C281.677 86.1775 281.844 86.3627 282.047 86.4923C282.269 86.6081 282.513 86.6774 282.763 86.6959C283.013 86.7145 283.264 86.682 283.501 86.6003C283.979 86.4583 284.426 86.2084 284.885 86.0201C285.914 85.6005 287.276 85.5851 287.966 86.4614C288.308 86.9027 288.466 87.5352 288.977 87.7512C289.165 87.8315 289.378 87.8407 289.572 87.9117C290.222 88.1555 290.388 88.9979 290.361 89.6921C290.333 90.3864 290.24 91.1671 290.669 91.704C291.026 92.1422 291.704 92.3705 291.781 92.9383C291.83 93.3024 291.59 93.6418 291.55 94.006C291.541 94.1413 291.559 94.2771 291.602 94.4055C291.646 94.5339 291.715 94.6524 291.804 94.754C291.894 94.8556 292.003 94.9384 292.125 94.9975C292.247 95.0566 292.379 95.0908 292.515 95.0983C293.316 95.0983 293.812 94.2004 294.561 93.9134C294.869 93.793 295.242 93.7745 295.485 93.5308C295.576 93.4136 295.639 93.2781 295.672 93.1337C295.705 92.9893 295.707 92.8394 295.676 92.6945C295.525 91.5127 294.579 90.4852 294.681 89.3003C294.776 88.1647 295.827 87.1742 295.605 86.0572C295.492 85.6453 295.281 85.2672 294.989 84.9556C294.659 84.5073 294.228 84.1427 293.732 83.891C293.303 83.7059 292.807 83.6627 292.416 83.4374C291.251 82.7987 291.254 81.1324 290.567 79.9969C290.272 79.5276 289.854 79.1486 289.358 78.9015C288.863 78.6544 288.308 78.5487 287.757 78.5959C286.891 78.6823 286.105 79.1421 285.248 79.2964C284.074 79.5062 282.885 79.1205 281.773 78.6793C280.66 78.238 279.536 77.7535 278.343 77.7535C277.151 77.7535 275.859 78.3707 275.496 79.5001C275.305 80.1172 275.4 80.7775 275.252 81.3978C274.993 82.4994 274.02 83.2831 273.04 83.8293C272.365 84.2058 271.555 84.6378 271.474 85.4061C271.422 85.8936 271.69 86.3318 271.86 86.8039C272.148 87.6026 272.141 88.4782 271.841 89.2725C271.616 89.8557 271.24 90.3679 271.012 90.948C270.85 91.3417 270.774 91.7654 270.788 92.1909C270.802 92.6165 270.905 93.0342 271.092 93.4166C271.236 93.6954 271.435 93.9418 271.677 94.1408C271.919 94.3398 272.2 94.4871 272.501 94.5737C273.108 94.7188 273.49 94.117 274.137 94.259Z" fill="#3F3D56"/>
<g opacity="0.1">
<path opacity="0.1" d="M276.282 92.2687C276.121 93.0247 275.588 93.8825 274.821 93.79C274.584 93.7591 274.368 93.6388 274.134 93.5863C273.49 93.4444 273.108 94.0492 272.501 93.8949C272.199 93.8083 271.918 93.661 271.676 93.4621C271.433 93.2631 271.233 93.0166 271.089 92.7377C270.928 92.4237 270.831 92.0807 270.803 91.7287C270.741 92.2751 270.841 92.8275 271.089 93.3179C271.233 93.5967 271.433 93.8432 271.676 94.0422C271.918 94.2411 272.199 94.3884 272.501 94.475C273.117 94.6169 273.49 94.0121 274.134 94.1664C274.359 94.245 274.589 94.312 274.821 94.367C275.588 94.4627 276.121 93.6048 276.282 92.8488C276.408 92.1809 276.458 91.5007 276.429 90.8215C276.426 91.3076 276.377 91.7922 276.282 92.2687Z" fill="black"/>
<path opacity="0.1" d="M272.06 87.6217C272.099 87.1161 272.03 86.6079 271.857 86.1313C271.717 85.8145 271.599 85.4887 271.502 85.1562C271.489 85.2081 271.479 85.2606 271.471 85.3136C271.419 85.7981 271.69 86.2393 271.857 86.7114C271.964 87.0046 272.033 87.3106 272.06 87.6217Z" fill="black"/>
<path opacity="0.1" d="M295.602 85.9955C295.457 86.8718 294.749 87.6957 294.678 88.6183C294.661 88.7763 294.661 88.9356 294.678 89.0935C294.832 88.0166 295.784 87.0631 295.602 85.9955Z" fill="black"/>
<path opacity="0.1" d="M295.655 92.5063C295.628 92.6354 295.568 92.7549 295.479 92.852C295.251 93.0957 294.863 93.1142 294.554 93.2346C293.806 93.5215 293.322 94.4287 292.508 94.4195C292.3 94.4077 292.1 94.3329 291.935 94.2052C291.77 94.0774 291.648 93.9025 291.584 93.7036C291.565 93.7705 291.551 93.8385 291.541 93.9073C291.532 94.0423 291.55 94.1778 291.594 94.3059C291.638 94.4339 291.706 94.552 291.796 94.6533C291.886 94.7546 291.995 94.837 292.116 94.896C292.238 94.9549 292.37 94.9891 292.505 94.9965C293.31 94.9965 293.803 94.0986 294.551 93.8147C294.859 93.6944 295.235 93.6758 295.476 93.4321C295.566 93.3149 295.63 93.1794 295.663 93.035C295.696 92.8906 295.697 92.7408 295.667 92.5958C295.664 92.5588 295.658 92.5341 295.655 92.5063Z" fill="black"/>
<path opacity="0.1" d="M291.79 92.2503C291.713 91.6887 291.035 91.4604 290.678 91.016C290.459 90.7241 290.34 90.3691 290.339 90.0039C290.314 90.5778 290.324 91.1641 290.678 91.5961C291.032 92.0281 291.572 92.2133 291.744 92.6576C291.788 92.5266 291.803 92.3878 291.79 92.2503Z" fill="black"/>
<path opacity="0.1" d="M290.358 89.0195C290.382 88.3252 290.216 87.4767 289.566 87.2391C289.375 87.1681 289.162 87.1588 288.974 87.0817C288.462 86.8657 288.302 86.23 287.963 85.7919C287.276 84.9124 285.917 84.9279 284.882 85.3475C284.42 85.5357 283.979 85.7857 283.498 85.9276C283.262 86.0111 283.011 86.0446 282.761 86.026C282.511 86.0074 282.268 85.9371 282.047 85.8196C281.844 85.69 281.677 85.5111 281.471 85.3815C280.771 84.9618 279.859 85.3815 279.258 85.9215C278.657 86.4615 278.17 87.1835 277.409 87.5168C277.064 87.6711 276.645 87.7636 276.466 88.0969C276.388 88.2785 276.355 88.4766 276.371 88.6739C276.371 88.7942 276.371 88.9146 276.371 89.0349C276.375 88.9106 276.405 88.7886 276.46 88.677C276.639 88.3437 277.058 88.2512 277.403 88.0969C278.149 87.7636 278.636 87.0539 279.252 86.5016C279.868 85.9492 280.765 85.5419 281.464 85.9616C281.671 86.085 281.837 86.2701 282.041 86.3967C282.262 86.5149 282.505 86.5855 282.755 86.6041C283.005 86.6227 283.256 86.5888 283.492 86.5047C283.963 86.3368 284.425 86.1442 284.876 85.9276C285.908 85.508 287.267 85.4895 287.957 86.3689C288.296 86.8071 288.456 87.4427 288.968 87.6587C289.156 87.7389 289.368 87.7482 289.559 87.8192C290.086 88.0167 290.296 88.6091 290.342 89.1954L290.358 89.0195Z" fill="black"/>
</g>
<g opacity="0.1">
<path opacity="0.1" d="M275.181 92.2503C275.199 91.7381 275.382 91.2456 275.703 90.8466C276.025 90.4476 276.466 90.1638 276.963 90.0379C278.337 89.7015 279.778 89.7668 281.116 90.2261C284.041 91.195 280.747 94.6818 280.747 94.6818C280.747 94.6818 278.556 96.8418 276.513 95.3329C275.909 94.8762 275.487 94.2203 275.32 93.4815C275.22 93.079 275.173 92.665 275.181 92.2503Z" fill="black"/>
<path opacity="0.1" d="M291.257 92.2502C291.239 91.7377 291.056 91.2448 290.734 90.8458C290.412 90.4467 289.97 90.1632 289.473 90.0378C288.1 89.702 286.66 89.7674 285.322 90.226C282.398 91.1949 285.692 94.6818 285.692 94.6818C285.692 94.6818 287.88 96.8418 289.926 95.3329C290.53 94.8762 290.952 94.2203 291.119 93.4814C291.219 93.0789 291.265 92.665 291.257 92.2502Z" fill="black"/>
<path opacity="0.1" d="M280.565 89.9422V90.0872H285.905V89.9144L280.565 89.9422Z" fill="black"/>
<path opacity="0.1" d="M282.269 91.4881H282.438V90.9975C282.438 90.9975 282.981 90.5748 283.88 90.9975V91.4357H284.188V91.1487H284.037C284.037 91.1487 284.099 90.5532 283.095 90.6488C283.095 90.6488 282.287 90.5717 282.306 91.0839H282.121L282.269 91.4881Z" fill="black"/>
</g>
<path d="M275.181 92.0497C275.199 91.5375 275.382 91.045 275.703 90.646C276.025 90.247 276.466 89.9632 276.963 89.8372C278.337 89.5031 279.778 89.5684 281.116 90.0255C284.041 90.9975 280.747 94.4813 280.747 94.4813C280.747 94.4813 278.556 96.6412 276.513 95.1323C275.908 94.6767 275.485 94.0204 275.32 93.2809C275.22 92.8784 275.173 92.4644 275.181 92.0497Z" fill="black"/>
<path d="M291.257 92.0496C291.239 91.5371 291.056 91.0442 290.734 90.6452C290.412 90.2461 289.97 89.9626 289.473 89.8372C288.1 89.503 286.66 89.5683 285.322 90.0254C282.398 90.9974 285.692 94.4812 285.692 94.4812C285.692 94.4812 287.88 96.6412 289.926 95.1323C290.531 94.6767 290.954 94.0203 291.119 93.2808C291.219 92.8784 291.266 92.4644 291.257 92.0496Z" fill="black"/>
<path d="M280.565 89.7477V89.8959H285.905V89.72L280.565 89.7477Z" fill="black"/>
<path d="M282.269 91.2937H282.438V90.8031C282.438 90.8031 282.981 90.3834 283.88 90.8031V91.2443H284.188V90.9543H284.037C284.037 90.9543 284.099 90.3618 283.095 90.4544C283.095 90.4544 282.287 90.3803 282.306 90.8895H282.121L282.269 91.2937Z" fill="black"/>
<path d="M37.9448 141.075H36.1945V180.542H37.9448V141.075Z" fill="#535461"/>
<path d="M48.9455 180.421L48.8346 182.199L48.6805 184.707L48.6158 185.753L48.4617 188.265L48.3939 189.311L48.2399 191.82L46.4742 220.353C46.3989 221.581 45.8587 222.734 44.9637 223.577C44.0688 224.42 42.8865 224.889 41.6579 224.889H32.4814C31.2531 224.889 30.0712 224.42 29.1768 223.577C28.2823 222.734 27.7428 221.581 27.6682 220.353L25.8933 191.82L25.7392 189.311L25.6745 188.265L25.5235 185.747L25.4588 184.701L25.3047 182.192L25.1938 180.415C25.1728 180.074 25.2217 179.732 25.3377 179.411C25.4536 179.089 25.6341 178.795 25.8679 178.546C26.1018 178.297 26.3841 178.099 26.6974 177.963C27.0107 177.828 27.3485 177.758 27.6898 177.758H46.4526C46.7943 177.758 47.1325 177.828 47.4461 177.964C47.7597 178.1 48.0421 178.299 48.2759 178.548C48.5096 178.798 48.6896 179.093 48.8048 179.415C48.92 179.737 48.9679 180.08 48.9455 180.421Z" fill="#3F3D56"/>
<path d="M48.8346 182.199L48.6805 184.707H25.4557L25.3017 182.199H48.8346Z" fill="#9D9CB5"/>
<path d="M48.6158 185.753L48.4617 188.265H25.6776L25.5204 185.753H48.6158Z" fill="#9D9CB5"/>
<path d="M48.394 189.311L48.2399 191.82H25.8995L25.7423 189.311H48.394Z" fill="#9D9CB5"/>
<path d="M22.6301 155.868C32.8235 163.252 37.0697 174.805 37.0697 174.805C37.0697 174.805 24.784 174.382 14.5752 166.998C4.3664 159.614 0.13559 148.061 0.13559 148.061C0.13559 148.061 12.4336 148.484 22.6301 155.868Z" fill="#FF0000"/>
<path d="M0.151001 148.061C0.151001 148.061 12.902 155.159 16.991 161.021C21.0801 166.884 37.0697 174.808 37.0697 174.808" stroke="#535461" stroke-width="2" stroke-miterlimit="10"/>
<path d="M29.2089 141.004C34.7555 145.016 37.0697 151.311 37.0697 151.311C37.0697 151.311 30.383 151.082 24.8333 147.062C19.2836 143.041 16.9756 136.755 16.9756 136.755C16.9756 136.755 23.6624 136.968 29.2089 141.004Z" fill="#FF0000"/>
<path d="M16.9756 136.74C16.9756 136.74 23.915 140.597 26.1398 143.791C28.3646 146.984 37.0697 151.295 37.0697 151.295" stroke="#535461" stroke-width="2" stroke-miterlimit="10"/>
<path d="M45.1338 150.977C38.7583 157.991 37.4117 167.156 37.4117 167.156C37.4117 167.156 46.3971 164.949 52.7696 157.936C59.142 150.922 60.4916 141.754 60.4916 141.754C60.4916 141.754 51.5062 143.96 45.1338 150.977Z" fill="#FF0000"/>
<path d="M60.4916 141.754C60.4916 141.754 52.1902 148.944 50.0795 153.899C47.9687 158.855 37.4117 167.168 37.4117 167.168" stroke="#535461" stroke-width="2" stroke-miterlimit="10"/>
</g>
<defs>
<linearGradient id="paint0_linear" x1="182.205" y1="199.361" x2="182.205" y2="33.2484" gradientUnits="userSpaceOnUse">
<stop stop-color="#808080" stop-opacity="0.25"/>
<stop offset="0.54" stop-color="#808080" stop-opacity="0.12"/>
<stop offset="1" stop-color="#808080" stop-opacity="0.1"/>
</linearGradient>
<linearGradient id="paint1_linear" x1="56708.7" y1="149173" x2="56708.7" y2="50543.2" gradientUnits="userSpaceOnUse">
<stop stop-color="#808080" stop-opacity="0.25"/>
<stop offset="0.54" stop-color="#808080" stop-opacity="0.12"/>
<stop offset="1" stop-color="#808080" stop-opacity="0.1"/>
</linearGradient>
<clipPath id="clip0">
<rect width="353" height="253" fill="white"/>
</clipPath>
</defs>
</svg>
