<svg width="353" height="253" viewBox="0 0 353 253" fill="none" xmlns="http://www.w3.org/2000/svg">
<path d="M176.872 215.271C152.954 215.271 129.776 207.845 111.288 194.259C92.799 180.674 80.1435 161.768 75.4774 140.764C70.8113 119.76 74.4234 97.9572 85.6982 79.0705C96.973 60.1837 115.213 45.3817 137.31 37.1864C159.407 28.991 183.994 27.9095 206.882 34.1261C229.77 40.3427 249.543 53.4728 262.831 71.2791C276.118 89.0855 282.1 110.466 279.756 131.779C277.411 153.091 266.886 173.016 249.974 188.159C240.396 196.782 229.004 203.618 216.456 208.271C203.908 212.925 190.454 215.304 176.872 215.271ZM176.872 30.8516C120.306 30.8516 74.2855 72.0572 74.2855 122.706C74.2855 173.354 120.306 214.559 176.872 214.559C233.438 214.559 279.458 173.354 279.458 122.706C279.458 72.0572 233.438 30.8516 176.872 30.8516Z" fill="#CCCCCC"/>
<path d="M215.258 229.153V135.898H137.742V229.153H215.258Z" fill="#2F2E41"/>
<path d="M228.575 133.051H124.425V170.068H228.575V133.051Z" fill="#3F3D56"/>
<path d="M228.575 174.339H124.425V211.356H228.575V174.339Z" fill="#3F3D56"/>
<path d="M228.575 215.627H124.425V252.644H228.575V215.627Z" fill="#3F3D56"/>
<path d="M228.575 148.746H124.425V154.441H228.575V148.746Z" fill="#00A037"/>
<path d="M228.575 190.034H124.425V195.729H228.575V190.034Z" fill="#00A037"/>
<path d="M228.575 231.323H124.425V237.017H228.575V231.323Z" fill="#00A037"/>
<path d="M208.302 140.525C209.619 140.525 210.687 139.569 210.687 138.39C210.687 137.21 209.619 136.254 208.302 136.254C206.985 136.254 205.917 137.21 205.917 138.39C205.917 139.569 206.985 140.525 208.302 140.525Z" fill="#00A037"/>
<path d="M216.65 140.525C217.967 140.525 219.035 139.569 219.035 138.39C219.035 137.21 217.967 136.254 216.65 136.254C215.333 136.254 214.265 137.21 214.265 138.39C214.265 139.569 215.333 140.525 216.65 140.525Z" fill="#00A037"/>
<path d="M224.998 140.525C226.315 140.525 227.383 139.569 227.383 138.39C227.383 137.21 226.315 136.254 224.998 136.254C223.68 136.254 222.613 137.21 222.613 138.39C222.613 139.569 223.68 140.525 224.998 140.525Z" fill="#00A037"/>
<path d="M208.302 181.102C209.619 181.102 210.687 180.145 210.687 178.966C210.687 177.786 209.619 176.83 208.302 176.83C206.985 176.83 205.917 177.786 205.917 178.966C205.917 180.145 206.985 181.102 208.302 181.102Z" fill="#00A037"/>
<path d="M216.65 181.102C217.967 181.102 219.035 180.145 219.035 178.966C219.035 177.786 217.967 176.83 216.65 176.83C215.333 176.83 214.265 177.786 214.265 178.966C214.265 180.145 215.333 181.102 216.65 181.102Z" fill="#00A037"/>
<path d="M224.998 181.102C226.315 181.102 227.383 180.145 227.383 178.966C227.383 177.786 226.315 176.83 224.998 176.83C223.68 176.83 222.613 177.786 222.613 178.966C222.613 180.145 223.68 181.102 224.998 181.102Z" fill="#00A037"/>
<path d="M208.302 221.678C209.619 221.678 210.687 220.722 210.687 219.542C210.687 218.363 209.619 217.407 208.302 217.407C206.985 217.407 205.917 218.363 205.917 219.542C205.917 220.722 206.985 221.678 208.302 221.678Z" fill="#00A037"/>
<path d="M216.65 221.678C217.967 221.678 219.035 220.722 219.035 219.542C219.035 218.363 217.967 217.407 216.65 217.407C215.333 217.407 214.265 218.363 214.265 219.542C214.265 220.722 215.333 221.678 216.65 221.678Z" fill="#00A037"/>
<path d="M224.998 221.678C226.315 221.678 227.383 220.722 227.383 219.542C227.383 218.363 226.315 217.407 224.998 217.407C223.68 217.407 222.613 218.363 222.613 219.542C222.613 220.722 223.68 221.678 224.998 221.678Z" fill="#00A037"/>
<path d="M353 252.288H0V253H353V252.288Z" fill="#3F3D56"/>
<path d="M96.1522 96.481V162.682C96.1519 164.067 95.5373 165.395 94.4436 166.374C93.3498 167.353 91.8665 167.904 90.3197 167.904H61.5874C60.0402 167.904 58.5563 167.354 57.462 166.375C56.3678 165.395 55.7528 164.067 55.7524 162.682V96.481C55.7528 95.0956 56.3678 93.7672 57.462 92.7879C58.5563 91.8085 60.0402 91.2584 61.5874 91.2586H65.0728C64.9017 91.6355 64.8365 92.0442 64.8831 92.4488C64.9297 92.8535 65.0866 93.2417 65.34 93.5794C65.5934 93.917 65.9356 94.1938 66.3364 94.3853C66.7373 94.5768 67.1845 94.6772 67.6388 94.6778H84.0201C84.4744 94.6772 84.9217 94.5768 85.3225 94.3853C85.7234 94.1938 86.0655 93.917 86.3189 93.5794C86.5723 93.2417 86.7292 92.8535 86.7758 92.4488C86.8224 92.0442 86.7573 91.6354 86.5861 91.2586H90.3197C91.8665 91.2589 93.3498 91.8092 94.4436 92.7885C95.5373 93.7678 96.1519 95.096 96.1522 96.481Z" fill="#B6B6B6"/>
<path d="M94.2383 103.901H57.6663V149.46H94.2383V103.901Z" fill="white"/>
<path d="M82.647 135.229H68.0501V135.976H82.647V135.229Z" fill="#B6B6B6"/>
<path d="M90.6216 137.971H68.0355V138.718H90.6216V137.971Z" fill="#00A037"/>
<path d="M85.7603 140.555H68.0355V141.301H85.7603V140.555Z" fill="#B6B6B6"/>
<path d="M78.4618 143.138H68.0355V143.885H78.4618V143.138Z" fill="#B6B6B6"/>
<path d="M83.675 145.722H68.0355V146.469H83.675V145.722Z" fill="#B6B6B6"/>
<path d="M63.0987 135.014H61.4304V136.508H63.0987V135.014Z" fill="#B6B6B6"/>
<path d="M63.0987 137.598H61.4304V139.091H63.0987V137.598Z" fill="#00A037"/>
<path d="M63.0987 140.181H61.4304V141.675H63.0987V140.181Z" fill="#B6B6B6"/>
<path d="M63.0987 142.765H61.4304V144.258H63.0987V142.765Z" fill="#B6B6B6"/>
<path d="M63.0987 145.348H61.4304V146.842H63.0987V145.348Z" fill="#B6B6B6"/>
<path d="M83.3797 109.595H68.6723V122.764H83.3797V109.595Z" fill="#B6B6B6"/>
<path d="M225.393 0.0496216H127.649V56.1002H225.393V0.0496216Z" fill="#B6B6B6"/>
<path d="M216.057 15.7306H135.017V43.15H216.057V15.7306Z" fill="white"/>
<path d="M169.232 20.4811H149.782V21.4762H169.232V20.4811Z" fill="#B6B6B6"/>
<path d="M179.857 24.1349H149.763V25.13H179.857V24.1349Z" fill="#00A037"/>
<path d="M173.38 27.5773H149.763V28.5725H173.38V27.5773Z" fill="#B6B6B6"/>
<path d="M163.655 31.0198H149.763V32.0149H163.655V31.0198Z" fill="#B6B6B6"/>
<path d="M170.602 34.4623H149.763V35.4574H170.602V34.4623Z" fill="#B6B6B6"/>
<path d="M143.185 20.1949H140.962V22.1851H143.185V20.1949Z" fill="#B6B6B6"/>
<path d="M143.185 23.6373H140.962V25.6276H143.185V23.6373Z" fill="#00A037"/>
<path d="M143.185 27.0798H140.962V29.07H143.185V27.0798Z" fill="#B6B6B6"/>
<path d="M143.185 30.5222H140.962V32.5125H143.185V30.5222Z" fill="#B6B6B6"/>
<path d="M143.185 33.9647H140.962V35.9549H143.185V33.9647Z" fill="#B6B6B6"/>
<path d="M212.08 19.1661H192.18V36.9837H212.08V19.1661Z" fill="#B6B6B6"/>
<path d="M225.351 0H127.607V3.71809H225.351V0Z" fill="#00A037"/>
<path d="M130.693 2.64729C131.153 2.64729 131.526 2.31314 131.526 1.90094C131.526 1.48875 131.153 1.1546 130.693 1.1546C130.232 1.1546 129.859 1.48875 129.859 1.90094C129.859 2.31314 130.232 2.64729 130.693 2.64729Z" fill="white"/>
<path d="M133.614 2.64729C134.075 2.64729 134.448 2.31314 134.448 1.90094C134.448 1.48875 134.075 1.1546 133.614 1.1546C133.154 1.1546 132.781 1.48875 132.781 1.90094C132.781 2.31314 133.154 2.64729 133.614 2.64729Z" fill="white"/>
<path d="M136.536 2.64729C136.996 2.64729 137.369 2.31314 137.369 1.90094C137.369 1.48875 136.996 1.1546 136.536 1.1546C136.075 1.1546 135.702 1.48875 135.702 1.90094C135.702 2.31314 136.075 2.64729 136.536 2.64729Z" fill="white"/>
<path d="M290.846 104.932H266.995V115.966H290.846V104.932Z" fill="#B6B6B6"/>
<path d="M290.846 144.44H266.995V155.474H290.846V144.44Z" fill="#B6B6B6"/>
<path d="M278.921 148C289.898 148 298.797 140.032 298.797 130.203C298.797 120.374 289.898 112.406 278.921 112.406C267.943 112.406 259.045 120.374 259.045 130.203C259.045 140.032 267.943 148 278.921 148Z" fill="#B6B6B6"/>
<path d="M278.921 144.085C287.483 144.085 294.424 137.87 294.424 130.203C294.424 122.537 287.483 116.322 278.921 116.322C270.358 116.322 263.417 122.537 263.417 130.203C263.417 137.87 270.358 144.085 278.921 144.085Z" fill="white"/>
<path d="M285.868 126.4H273.844V127.015H285.868V126.4Z" fill="black"/>
<path d="M292.437 128.659H273.832V129.274H292.437V128.659Z" fill="#00A037"/>
<path d="M288.432 130.787H273.832V131.402H288.432V130.787Z" fill="black"/>
<path d="M282.42 132.915H273.832V133.53H282.42V132.915Z" fill="black"/>
<path d="M286.715 135.043H273.832V135.658H286.715V135.043Z" fill="black"/>
<path d="M269.765 126.223H268.391V127.453H269.765V126.223Z" fill="black"/>
<path d="M269.765 128.351H268.391V129.581H269.765V128.351Z" fill="#00A037"/>
<path d="M269.765 130.479H268.391V131.71H269.765V130.479Z" fill="black"/>
<path d="M269.765 132.607H268.391V133.838H269.765V132.607Z" fill="black"/>
<path d="M269.765 134.735H268.391V135.966H269.765V134.735Z" fill="black"/>
</svg>
