<svg width="125" height="20" viewBox="0 0 125 20" fill="none" xmlns="http://www.w3.org/2000/svg">
<path d="M10.8333 7.50008H14.5833L14.1666 9.16675H10.8333V16.6667H9.16665V9.16675H5.83331V7.50008H9.16665V5.94008C9.16665 4.45425 9.32165 3.91508 9.61165 3.37175C9.89582 2.83492 10.3348 2.39592 10.8716 2.11175C11.415 1.82175 11.9541 1.66675 13.44 1.66675C13.875 1.66675 14.2566 1.70841 14.5833 1.79175V3.33341H13.44C12.3366 3.33341 12.0008 3.39841 11.6583 3.58175C11.405 3.71675 11.2166 3.90508 11.0816 4.15841C10.8983 4.50091 10.8333 4.83675 10.8333 5.94008V7.50008Z" fill="#CCD2E9"/>
<path d="M47.75 4.62501C47.1166 4.62491 46.5085 4.87345 46.0566 5.31715C45.6046 5.76086 45.3449 6.36426 45.3333 6.99751L45.31 8.31001C45.3086 8.38048 45.2924 8.44987 45.2623 8.51362C45.2322 8.57737 45.189 8.63404 45.1355 8.67991C45.082 8.72579 45.0194 8.75983 44.9518 8.77982C44.8842 8.7998 44.8132 8.80526 44.7433 8.79585L43.4425 8.61918C41.7308 8.38585 40.0908 7.59751 38.5175 6.28668C38.0191 9.04501 38.9925 10.9558 41.3366 12.43L42.7925 13.345C42.8616 13.3885 42.9191 13.4482 42.9598 13.5191C43.0006 13.5899 43.0233 13.6696 43.0261 13.7512C43.0289 13.8329 43.0117 13.914 42.9759 13.9874C42.9401 14.0609 42.8868 14.1244 42.8208 14.1725L41.4941 15.1417C42.2833 15.1908 43.0325 15.1558 43.6541 15.0325C47.5858 14.2475 50.2 11.2892 50.2 6.40918C50.2 6.01085 49.3566 4.62501 47.75 4.62501ZM43.6666 6.96668C43.6812 6.16339 43.9324 5.38224 44.3888 4.72103C44.8452 4.05983 45.4865 3.54795 46.2324 3.24949C46.9783 2.95103 47.7957 2.87925 48.5823 3.04314C49.3688 3.20703 50.0895 3.5993 50.6541 4.17085C51.2466 4.16668 51.7508 4.31668 52.8783 3.63335C52.5991 5.00001 52.4616 5.59335 51.8666 6.40918C51.8666 12.7775 47.9525 15.8742 43.9808 16.6667C41.2575 17.21 37.2975 16.3175 36.1625 15.1325C36.7408 15.0875 39.0908 14.835 40.4491 13.8408C39.3 13.0833 34.7258 10.3917 37.7316 3.15501C39.1425 4.80251 40.5733 5.92418 42.0233 6.51918C42.9883 6.91501 43.225 6.90668 43.6675 6.96751L43.6666 6.96668Z" fill="#CCD2E9"/>
<path d="M80 7.50008C79.337 7.50008 78.7011 7.76347 78.2323 8.23231C77.7634 8.70116 77.5 9.33704 77.5 10.0001C77.5 10.6631 77.7634 11.299 78.2323 11.7678C78.7011 12.2367 79.337 12.5001 80 12.5001C80.6631 12.5001 81.2989 12.2367 81.7678 11.7678C82.2366 11.299 82.5 10.6631 82.5 10.0001C82.5 9.33704 82.2366 8.70116 81.7678 8.23231C81.2989 7.76347 80.6631 7.50008 80 7.50008ZM80 5.83342C81.1051 5.83342 82.1649 6.2724 82.9463 7.0538C83.7277 7.83521 84.1667 8.89501 84.1667 10.0001C84.1667 11.1052 83.7277 12.165 82.9463 12.9464C82.1649 13.7278 81.1051 14.1667 80 14.1667C78.895 14.1667 77.8351 13.7278 77.0537 12.9464C76.2723 12.165 75.8334 11.1052 75.8334 10.0001C75.8334 8.89501 76.2723 7.83521 77.0537 7.0538C77.8351 6.2724 78.895 5.83342 80 5.83342ZM85.4167 5.62508C85.4167 5.90135 85.3069 6.1663 85.1116 6.36165C84.9162 6.557 84.6513 6.66675 84.375 6.66675C84.0988 6.66675 83.8338 6.557 83.6385 6.36165C83.4431 6.1663 83.3334 5.90135 83.3334 5.62508C83.3334 5.34881 83.4431 5.08386 83.6385 4.88851C83.8338 4.69316 84.0988 4.58341 84.375 4.58341C84.6513 4.58341 84.9162 4.69316 85.1116 4.88851C85.3069 5.08386 85.4167 5.34881 85.4167 5.62508ZM80 3.33341C77.9384 3.33341 77.6017 3.33925 76.6425 3.38175C75.9892 3.41258 75.5509 3.50008 75.1442 3.65841C74.7825 3.79841 74.5217 3.96591 74.2442 4.24425C73.9834 4.49625 73.7828 4.8039 73.6575 5.14425C73.4992 5.55258 73.4117 5.99008 73.3817 6.64258C73.3384 7.56258 73.3334 7.88425 73.3334 10.0001C73.3334 12.0617 73.3392 12.3984 73.3817 13.3576C73.4125 14.0101 73.5 14.4492 73.6575 14.8551C73.7992 15.2176 73.9659 15.4784 74.2425 15.7551C74.5234 16.0351 74.7842 16.2026 75.1425 16.3409C75.5542 16.5001 75.9925 16.5884 76.6425 16.6184C77.5625 16.6617 77.8842 16.6667 80 16.6667C82.0617 16.6667 82.3984 16.6609 83.3575 16.6184C84.0092 16.5876 84.4484 16.5001 84.855 16.3426C85.2159 16.2017 85.4784 16.0342 85.755 15.7576C86.0359 15.4767 86.2034 15.2159 86.3417 14.8576C86.5 14.4467 86.5884 14.0076 86.6184 13.3576C86.6617 12.4376 86.6667 12.1159 86.6667 10.0001C86.6667 7.93842 86.6609 7.60175 86.6184 6.64258C86.5875 5.99092 86.5 5.55091 86.3417 5.14425C86.2161 4.80425 86.0159 4.49672 85.7559 4.24425C85.504 3.98329 85.1963 3.78272 84.8559 3.65758C84.4475 3.49925 84.0092 3.41175 83.3575 3.38175C82.4375 3.33841 82.1159 3.33341 80 3.33341ZM80 1.66675C82.2642 1.66675 82.5467 1.67508 83.435 1.71675C84.3225 1.75841 84.9267 1.89758 85.4584 2.10425C86.0084 2.31591 86.4717 2.60258 86.935 3.06508C87.3588 3.48166 87.6866 3.98557 87.8959 4.54175C88.1017 5.07258 88.2417 5.67758 88.2834 6.56508C88.3225 7.45341 88.3334 7.73592 88.3334 10.0001C88.3334 12.2642 88.325 12.5467 88.2834 13.4351C88.2417 14.3226 88.1017 14.9267 87.8959 15.4584C87.6873 16.0149 87.3593 16.5189 86.935 16.9351C86.5183 17.3587 86.0144 17.6865 85.4584 17.8959C84.9275 18.1017 84.3225 18.2417 83.435 18.2834C82.5467 18.3226 82.2642 18.3334 80 18.3334C77.7359 18.3334 77.4534 18.3251 76.565 18.2834C75.6775 18.2417 75.0734 18.1017 74.5417 17.8959C73.9853 17.6871 73.4813 17.3592 73.065 16.9351C72.6412 16.5186 72.3133 16.0146 72.1042 15.4584C71.8975 14.9276 71.7584 14.3226 71.7167 13.4351C71.6775 12.5467 71.6667 12.2642 71.6667 10.0001C71.6667 7.73592 71.675 7.45341 71.7167 6.56508C71.7584 5.67675 71.8975 5.07341 72.1042 4.54175C72.3127 3.98523 72.6407 3.48118 73.065 3.06508C73.4814 2.64111 73.9854 2.31319 74.5417 2.10425C75.0734 1.89758 75.6767 1.75841 76.565 1.71675C77.4534 1.67758 77.7359 1.66675 80 1.66675Z" fill="#CCD2E9"/>
<path d="M115 7.95841C115.764 7.17758 116.759 6.66675 117.917 6.66675C119.132 6.66675 120.298 7.14963 121.158 8.00917C122.017 8.86872 122.5 10.0345 122.5 11.2501V17.5001H120.833V11.2501C120.833 10.4765 120.526 9.73467 119.979 9.18769C119.432 8.64071 118.69 8.33341 117.917 8.33341C117.143 8.33341 116.401 8.64071 115.854 9.18769C115.307 9.73467 115 10.4765 115 11.2501V17.5001H113.333V7.08341H115V7.95841ZM109.167 5.41675C108.835 5.41675 108.517 5.28505 108.283 5.05063C108.048 4.81621 107.917 4.49827 107.917 4.16675C107.917 3.83523 108.048 3.51729 108.283 3.28286C108.517 3.04844 108.835 2.91675 109.167 2.91675C109.498 2.91675 109.816 3.04844 110.051 3.28286C110.285 3.51729 110.417 3.83523 110.417 4.16675C110.417 4.49827 110.285 4.81621 110.051 5.05063C109.816 5.28505 109.498 5.41675 109.167 5.41675ZM108.333 7.08341H110V17.5001H108.333V7.08341Z" fill="#CCD2E9"/>
</svg>
